font.ufo
<glyph name="comma" format="1">
	<unicode hex="002C"/>
	<advance width="600"/>
	<outline>
		<contour>
			<point x="219" y="-217" type="line"/>
			<point x="357" y="-175"/>
			<point x="429" y="-84"/>
			<point x="429" y="43" type="curve" smooth="yes"/>
			<point x="429" y="151"/>
			<point x="387" y="215"/>
			<point x="305" y="215" type="curve" smooth="yes"/>
			<point x="243" y="215"/>
			<point x="193" y="174"/>
			<point x="193" y="112" type="curve" smooth="yes"/>
			<point x="193" y="46"/>
			<point x="245" y="10"/>
			<point x="301" y="10" type="curve" smooth="yes"/>
			<point x="325" y="10"/>
			<point x="348" y="17"/>
			<point x="367" y="33" type="curve"/>
			<point x="307" y="133" type="line"/>
			<point x="312" y="14" type="line"/>
			<point x="314" y="-50"/>
			<point x="271" y="-100"/>
			<point x="182" y="-131" type="curve"/>
		</contour>
	</outline>
</glyph>
<glyph name="zero" format="1">
	<unicode hex="0030"/>
	<advance width="600"/>
	<outline>
		<contour>
			<point x="300" y="-12" type="curve" smooth="yes"/>
			<point x="447" y="-12"/>
			<point x="544" y="105"/>
			<point x="544" y="320" type="curve" smooth="yes"/>
			<point x="544" y="536"/>
			<point x="447" y="647"/>
			<point x="300" y="647" type="curve" smooth="yes"/>
			<point x="153" y="647"/>
			<point x="56" y="536"/>
			<point x="56" y="320" type="curve" smooth="yes"/>
			<point x="56" y="105"/>
			<point x="153" y="-12"/>
		</contour>
		<contour>
			<point x="300" y="102" type="curve" smooth="yes"/>
			<point x="237" y="102"/>
			<point x="187" y="155"/>
			<point x="187" y="320" type="curve" smooth="yes"/>
			<point x="187" y="485"/>
			<point x="237" y="533"/>
			<point x="300" y="533" type="curve" smooth="yes"/>
			<point x="363" y="533"/>
			<point x="413" y="485"/>
			<point x="413" y="320" type="curve" smooth="yes"/>
			<point x="413" y="155"/>
			<point x="363" y="102"/>
		</contour>
		<contour>
			<point x="300" y="246" type="curve" smooth="yes"/>
			<point x="342" y="246"/>
			<point x="375" y="276"/>
			<point x="375" y="322" type="curve" smooth="yes"/>
			<point x="375" y="368"/>
			<point x="342" y="398"/>
			<point x="300" y="398" type="curve" smooth="yes"/>
			<point x="258" y="398"/>
			<point x="225" y="368"/>
			<point x="225" y="322" type="curve" smooth="yes"/>
			<point x="225" y="276"/>
			<point x="258" y="246"/>
		</contour>
	</outline>
</glyph>
<glyph name="one" format="1">
  <advance width="600"/>
  <unicode hex="0031"/>
  <outline>
    <contour>
      <point x="82" y="0" type="line"/>
      <point x="536" y="0" type="line"/>
      <point x="536" y="119" type="line"/>
      <point x="392" y="119" type="line"/>
      <point x="392" y="635" type="line"/>
      <point x="284" y="635" type="line"/>
      <point x="237" y="608"/>
      <point x="187" y="590"/>
      <point x="113" y="577" type="curve"/>
      <point x="113" y="486" type="line"/>
      <point x="245" y="486" type="line"/>
      <point x="245" y="119" type="line"/>
      <point x="82" y="119" type="line"/>
    </contour>
  </outline>
</glyph>
<glyph name="four" format="1">
	<unicode hex="0034"/>
	<advance width="600"/>
	<outline>
		<contour>
			<point x="341" y="0" type="line"/>
			<point x="478" y="0" type="line"/>
			<point x="478" y="635" type="line"/>
			<point x="300" y="635" type="line"/>
			<point x="35" y="253" type="line"/>
			<point x="35" y="152" type="line"/>
			<point x="558" y="152" type="line"/>
			<point x="558" y="264" type="line"/>
			<point x="177" y="264" type="line"/>
			<point x="273" y="402" type="line" smooth="yes"/>
			<point x="295" y="438"/>
			<point x="321" y="474"/>
			<point x="342" y="510" type="curve"/>
			<point x="346" y="510" type="line"/>
			<point x="344" y="470"/>
			<point x="341" y="411"/>
			<point x="341" y="371" type="curve" smooth="yes"/>
		</contour>
	</outline>
</glyph>
<glyph name="five" format="1">
  <advance width="600"/>
  <unicode hex="0035"/>
  <outline>
    <contour>
      <point x="283" y="-12" type="curve" smooth="yes"/>
      <point x="414" y="-12"/>
      <point x="532" y="69"/>
      <point x="532" y="210" type="curve" smooth="yes"/>
      <point x="532" y="345"/>
      <point x="431" y="407"/>
      <point x="314" y="407" type="curve" smooth="yes"/>
      <point x="282" y="407"/>
      <point x="259" y="403"/>
      <point x="230" y="392" type="curve"/>
      <point x="241" y="511" type="line"/>
      <point x="503" y="511" type="line"/>
      <point x="503" y="635" type="line"/>
      <point x="114" y="635" type="line"/>
      <point x="97" y="314" type="line"/>
      <point x="162" y="272" type="line"/>
      <point x="205" y="296"/>
      <point x="227" y="304"/>
      <point x="269" y="304" type="curve" smooth="yes"/>
      <point x="336" y="304"/>
      <point x="385" y="270"/>
      <point x="385" y="206" type="curve" smooth="yes"/>
      <point x="385" y="141"/>
      <point x="334" y="107"/>
      <point x="262" y="107" type="curve" smooth="yes"/>
      <point x="202" y="107"/>
      <point x="154" y="135"/>
      <point x="112" y="170" type="curve"/>
      <point x="46" y="77" type="line"/>
      <point x="98" y="27"/>
      <point x="173" y="-12"/>
    </contour>
  </outline>
</glyph>
<glyph name="seven" format="1">
  <advance width="600"/>
  <unicode hex="0037"/>
  <outline>
    <contour>
      <point x="193" y="0" type="curve"/>
      <point x="341" y="0" type="line"/>
      <point x="353" y="248"/>
      <point x="378" y="367"/>
      <point x="539" y="545" type="curve"/>
      <point x="539" y="635" type="line"/>
      <point x="62" y="635" type="line"/>
      <point x="62" y="511" type="line"/>
      <point x="381" y="511" type="line"/>
      <point x="248" y="344"/>
      <point x="205" y="212"/>
    </contour>
  </outline>
</glyph>
<glyph name="eight" format="1">
  <advance width="600"/>
  <unicode hex="0038"/>
  <outline>
    <contour>
      <point x="299" y="-12" type="curve" smooth="yes"/>
      <point x="454" y="-12"/>
      <point x="540" y="64"/>
      <point x="540" y="164" type="curve" smooth="yes"/>
      <point x="540" y="250"/>
      <point x="488" y="297"/>
      <point x="421" y="330" type="curve"/>
      <point x="421" y="334" type="line"/>
      <point x="471" y="366"/>
      <point x="512" y="414"/>
      <point x="512" y="473" type="curve" smooth="yes"/>
      <point x="512" y="578"/>
      <point x="431" y="647"/>
      <point x="304" y="647" type="curve" smooth="yes"/>
      <point x="178" y="647"/>
      <point x="88" y="580"/>
      <point x="88" y="472" type="curve" smooth="yes"/>
      <point x="88" y="405"/>
      <point x="128" y="359"/>
      <point x="181" y="322" type="curve"/>
      <point x="181" y="318" type="line"/>
      <point x="115" y="286"/>
      <point x="61" y="240"/>
      <point x="61" y="162" type="curve" smooth="yes"/>
      <point x="61" y="59"/>
      <point x="152" y="-12"/>
    </contour>
    <contour>
      <point x="343" y="370" type="curve"/>
      <point x="269" y="395"/>
      <point x="217" y="420"/>
      <point x="217" y="472" type="curve" smooth="yes"/>
      <point x="217" y="521"/>
      <point x="254" y="545"/>
      <point x="301" y="545" type="curve" smooth="yes"/>
      <point x="359" y="545"/>
      <point x="391" y="512"/>
      <point x="391" y="463" type="curve" smooth="yes"/>
      <point x="391" y="430"/>
      <point x="375" y="399"/>
    </contour>
    <contour>
      <point x="303" y="90" type="curve" smooth="yes"/>
      <point x="238" y="90"/>
      <point x="188" y="123"/>
      <point x="188" y="179" type="curve" smooth="yes"/>
      <point x="188" y="220"/>
      <point x="214" y="254"/>
      <point x="250" y="280" type="curve"/>
      <point x="341" y="246"/>
      <point x="403" y="227"/>
      <point x="403" y="169" type="curve" smooth="yes"/>
      <point x="403" y="116"/>
      <point x="362" y="90"/>
    </contour>
  </outline>
</glyph>
<glyph name="less" format="1">
	<unicode hex="003C"/>
	<advance width="600"/>
	<outline>
		<contour>
			<point x="502" y="31" type="line"/>
			<point x="502" y="164" type="line"/>
			<point x="237" y="330" type="line"/>
			<point x="237" y="334" type="line"/>
			<point x="502" y="500" type="line"/>
			<point x="502" y="633" type="line"/>
			<point x="116" y="383" type="line"/>
			<point x="116" y="281" type="line"/>
		</contour>
	</outline>
</glyph>
<glyph name="greater" format="1">
  <advance width="600"/>
  <unicode hex="003E"/>
  <outline>
    <contour>
      <point x="98" y="31" type="line"/>
      <point x="484" y="281" type="line"/>
      <point x="484" y="383" type="line"/>
      <point x="98" y="633" type="line"/>
      <point x="98" y="500" type="line"/>
      <point x="363" y="334" type="line"/>
      <point x="363" y="330" type="line"/>
      <point x="98" y="164" type="line"/>
    </contour>
  </outline>
</glyph>
<glyph name="at" format="1">
  <advance width="600"/>
  <unicode hex="0040"/>
  <outline>
    <contour>
      <point x="339" y="-147" type="curve" smooth="yes"/>
      <point x="410" y="-147"/>
      <point x="463" y="-126"/>
      <point x="519" y="-93" type="curve"/>
      <point x="477" y="-20" type="line"/>
      <point x="438" y="-43"/>
      <point x="404" y="-58"/>
      <point x="344" y="-58" type="curve" smooth="yes"/>
      <point x="235" y="-58"/>
      <point x="132" y="41"/>
      <point x="132" y="249" type="curve" smooth="yes"/>
      <point x="132" y="469"/>
      <point x="234" y="556"/>
      <point x="328" y="556" type="curve" smooth="yes"/>
      <point x="417" y="556"/>
      <point x="459" y="490"/>
      <point x="459" y="416" type="curve" smooth="yes"/>
      <point x="459" y="400" type="line"/>
      <point x="307" y="381"/>
      <point x="210" y="336"/>
      <point x="210" y="228" type="curve" smooth="yes"/>
      <point x="210" y="150"/>
      <point x="264" y="88"/>
      <point x="337" y="88" type="curve" smooth="yes"/>
      <point x="391" y="88"/>
      <point x="432" y="114"/>
      <point x="457" y="151" type="curve"/>
      <point x="461" y="151" type="line"/>
      <point x="472" y="100" type="line"/>
      <point x="550" y="100" type="line"/>
      <point x="550" y="399" type="line" smooth="yes"/>
      <point x="550" y="537"/>
      <point x="483" y="644"/>
      <point x="331" y="644" type="curve" smooth="yes"/>
      <point x="168" y="644"/>
      <point x="31" y="524"/>
      <point x="31" y="253" type="curve" smooth="yes"/>
      <point x="31" y="-19"/>
      <point x="179" y="-147"/>
    </contour>
    <contour>
      <point x="370" y="184" type="curve" smooth="yes"/>
      <point x="337" y="184"/>
      <point x="317" y="202"/>
      <point x="317" y="232" type="curve" smooth="yes"/>
      <point x="317" y="276"/>
      <point x="351" y="297"/>
      <point x="444" y="312" type="curve"/>
      <point x="444" y="220" type="line"/>
      <point x="422" y="198"/>
      <point x="399" y="184"/>
    </contour>
  </outline>
</glyph>
<glyph name="A" format="1">
	<unicode hex="0041"/>
	<advance width="600"/>
	<outline>
		<contour>
			<point x="9" y="0" type="line"/>
			<point x="159" y="0" type="line"/>
			<point x="244" y="330" type="line" smooth="yes"/>
			<point x="261" y="395"/>
			<point x="279" y="471"/>
			<point x="295" y="540" type="curve"/>
			<point x="299" y="540" type="line"/>
			<point x="314" y="471"/>
			<point x="334" y="395"/>
			<point x="351" y="330" type="curve" smooth="yes"/>
			<point x="435" y="0" type="line"/>
			<point x="591" y="0" type="line"/>
			<point x="388" y="652" type="line"/>
			<point x="212" y="652" type="line"/>
		</contour>
		<contour>
			<point x="143" y="155" type="line"/>
			<point x="455" y="155" type="line"/>
			<point x="455" y="270" type="line"/>
			<point x="143" y="270" type="line"/>
		</contour>
		<contour>
			<point name="aboveUC" x="300" y="672" type="move"/>
		</contour>
		<contour>
			<point name="ogonekCXT-ATH" x="300" y="0" type="move"/>
		</contour>
		<contour>
			<point name="ogonekUC" x="494" y="0" type="move"/>
		</contour>
		<contour>
			<point name="baseLC" x="516" y="0" type="move"/>
		</contour>
		<contour>
			<point name="belowLC" x="300" y="-20" type="move"/>
		</contour>
	</outline>
</glyph>
<glyph name="D" format="1">
  <advance width="600"/>
  <unicode hex="0044"/>
  <outline>
    <contour>
      <point x="70" y="0" type="line"/>
      <point x="259" y="0" type="line" smooth="yes"/>
      <point x="440" y="0"/>
      <point x="564" y="105"/>
      <point x="564" y="329" type="curve" smooth="yes"/>
      <point x="564" y="553"/>
      <point x="440" y="652"/>
      <point x="250" y="652" type="curve" smooth="yes"/>
      <point x="70" y="652" type="line"/>
    </contour>
    <contour>
      <point x="218" y="119" type="line"/>
      <point x="218" y="533" type="line"/>
      <point x="242" y="533" type="line" smooth="yes"/>
      <point x="344" y="533"/>
      <point x="413" y="485"/>
      <point x="413" y="329" type="curve" smooth="yes"/>
      <point x="413" y="173"/>
      <point x="344" y="119"/>
      <point x="242" y="119" type="curve" smooth="yes"/>
    </contour>
    <contour>
      <point x="300" y="672" type="move" name="aboveUC"/>
    </contour>
    <contour>
      <point x="280" y="0" type="move" name="baseLC"/>
    </contour>
    <contour>
      <point x="298" y="-20" type="move" name="belowLC"/>
    </contour>
  </outline>
</glyph>
<glyph name="K" format="1">
  <advance width="600"/>
  <unicode hex="004B"/>
  <outline>
    <contour>
      <point x="68" y="0" type="line"/>
      <point x="217" y="0" type="line"/>
      <point x="217" y="178" type="line"/>
      <point x="576" y="652" type="line"/>
      <point x="413" y="652" type="line"/>
      <point x="220" y="385" type="line"/>
      <point x="217" y="385" type="line"/>
      <point x="217" y="652" type="line"/>
      <point x="68" y="652" type="line"/>
    </contour>
    <contour>
      <point x="431" y="0" type="line"/>
      <point x="594" y="0" type="line"/>
      <point x="366" y="418" type="line"/>
      <point x="279" y="303" type="line"/>
    </contour>
    <contour>
      <point x="322" y="672" type="move" name="aboveUC"/>
    </contour>
    <contour>
      <point x="325" y="-20" type="move" name="belowLC"/>
    </contour>
  </outline>
</glyph>
<glyph name="N" format="1">
  <advance width="600"/>
  <unicode hex="004E"/>
  <outline>
    <contour>
      <point x="66" y="0" type="line"/>
      <point x="207" y="0" type="line"/>
      <point x="207" y="231" type="line" smooth="yes"/>
      <point x="207" y="308"/>
      <point x="193" y="395"/>
      <point x="186" y="467" type="curve"/>
      <point x="190" y="467" type="line"/>
      <point x="246" y="325" type="line"/>
      <point x="383" y="0" type="line"/>
      <point x="534" y="0" type="line"/>
      <point x="534" y="652" type="line"/>
      <point x="393" y="652" type="line"/>
      <point x="393" y="421" type="line" smooth="yes"/>
      <point x="393" y="344"/>
      <point x="407" y="253"/>
      <point x="414" y="184" type="curve"/>
      <point x="410" y="184" type="line"/>
      <point x="354" y="328" type="line"/>
      <point x="217" y="652" type="line"/>
      <point x="66" y="652" type="line"/>
    </contour>
    <contour>
      <point x="310" y="672" type="move" name="aboveUC"/>
    </contour>
    <contour>
      <point x="464" y="0" type="move" name="baseLC"/>
    </contour>
    <contour>
      <point x="300" y="-20" type="move" name="belowLC"/>
    </contour>
  </outline>
</glyph>
<glyph name="O" format="1">
  <advance width="600"/>
  <unicode hex="004F"/>
  <outline>
    <contour>
      <point x="300" y="-12" type="curve" smooth="yes"/>
      <point x="455" y="-12"/>
      <point x="562" y="106"/>
      <point x="562" y="329" type="curve" smooth="yes"/>
      <point x="562" y="547"/>
      <point x="455" y="664"/>
      <point x="300" y="664" type="curve" smooth="yes"/>
      <point x="145" y="664"/>
      <point x="38" y="547"/>
      <point x="38" y="329" type="curve" smooth="yes"/>
      <point x="38" y="106"/>
      <point x="145" y="-12"/>
    </contour>
    <contour>
      <point x="300" y="115" type="curve" smooth="yes"/>
      <point x="232" y="115"/>
      <point x="189" y="188"/>
      <point x="189" y="329" type="curve" smooth="yes"/>
      <point x="189" y="464"/>
      <point x="232" y="537"/>
      <point x="300" y="537" type="curve" smooth="yes"/>
      <point x="368" y="537"/>
      <point x="411" y="464"/>
      <point x="411" y="329" type="curve" smooth="yes"/>
      <point x="411" y="188"/>
      <point x="368" y="115"/>
    </contour>
    <contour>
      <point x="300" y="672" type="move" name="aboveUC"/>
    </contour>
    <contour>
      <point x="424" y="642" type="move" name="hornLC"/>
    </contour>
    <contour>
      <point x="300" y="0" type="move" name="ogonekUC"/>
    </contour>
    <contour>
      <point x="300" y="0" type="move" name="baseLC"/>
    </contour>
    <contour>
      <point x="300" y="-20" type="move" name="belowLC"/>
    </contour>
  </outline>
</glyph>
<glyph name="R" format="1">
	<unicode hex="0052"/>
	<advance width="600"/>
	<outline>
		<contour>
			<point x="70" y="0" type="line"/>
			<point x="217" y="0" type="line"/>
			<point x="217" y="235" type="line"/>
			<point x="301" y="235" type="line" smooth="yes"/>
			<point x="439" y="235"/>
			<point x="553" y="299"/>
			<point x="553" y="449" type="curve" smooth="yes"/>
			<point x="553" y="604"/>
			<point x="439" y="652"/>
			<point x="301" y="652" type="curve" smooth="yes"/>
			<point x="70" y="652" type="line"/>
		</contour>
		<contour>
			<point x="217" y="352" type="line"/>
			<point x="217" y="535" type="line"/>
			<point x="289" y="535" type="line" smooth="yes"/>
			<point x="367" y="535"/>
			<point x="408" y="513"/>
			<point x="408" y="449" type="curve" smooth="yes"/>
			<point x="408" y="385"/>
			<point x="367" y="352"/>
			<point x="289" y="352" type="curve" smooth="yes"/>
		</contour>
		<contour>
			<point x="274" y="273" type="line"/>
			<point x="419" y="0" type="line"/>
			<point x="584" y="0" type="line"/>
			<point x="376" y="368" type="line"/>
		</contour>
		<contour>
			<point name="aboveUC" x="301" y="672" type="move"/>
		</contour>
		<contour>
			<point name="baseLC" x="144" y="0" type="move"/>
		</contour>
		<contour>
			<point name="belowLC" x="320" y="-20" type="move"/>
		</contour>
	</outline>
</glyph>
<glyph name="S" format="1">
  <advance width="600"/>
  <unicode hex="0053"/>
  <outline>
    <contour>
      <point x="298" y="-12" type="curve" smooth="yes"/>
      <point x="460" y="-12"/>
      <point x="551" y="82"/>
      <point x="551" y="190" type="curve" smooth="yes"/>
      <point x="551" y="282"/>
      <point x="497" y="335"/>
      <point x="411" y="367" type="curve" smooth="yes"/>
      <point x="332" y="401" type="line" smooth="yes"/>
      <point x="269" y="424"/>
      <point x="225" y="439"/>
      <point x="225" y="478" type="curve" smooth="yes"/>
      <point x="225" y="516"/>
      <point x="258" y="537"/>
      <point x="307" y="537" type="curve" smooth="yes"/>
      <point x="371" y="537"/>
      <point x="412" y="518"/>
      <point x="457" y="485" type="curve"/>
      <point x="532" y="578" type="line"/>
      <point x="473" y="634"/>
      <point x="394" y="664"/>
      <point x="315" y="664" type="curve" smooth="yes"/>
      <point x="174" y="664"/>
      <point x="76" y="578"/>
      <point x="76" y="470" type="curve" smooth="yes"/>
      <point x="76" y="375"/>
      <point x="142" y="319"/>
      <point x="215" y="292" type="curve" smooth="yes"/>
      <point x="299" y="256" type="line" smooth="yes"/>
      <point x="361" y="230"/>
      <point x="400" y="218"/>
      <point x="400" y="172" type="curve" smooth="yes"/>
      <point x="400" y="139"/>
      <point x="371" y="115"/>
      <point x="308" y="115" type="curve" smooth="yes"/>
      <point x="245" y="115"/>
      <point x="184" y="143"/>
      <point x="135" y="183" type="curve"/>
      <point x="50" y="82" type="line"/>
      <point x="120" y="20"/>
      <point x="210" y="-12"/>
    </contour>
    <contour>
      <point x="319" y="672" type="move" name="aboveUC"/>
    </contour>
    <contour>
      <point x="304" y="0" type="move" name="baseLC"/>
    </contour>
    <contour>
      <point x="304" y="-20" type="move" name="belowLC"/>
    </contour>
  </outline>
</glyph>
<glyph name="T" format="1">
  <advance width="600"/>
  <unicode hex="0054"/>
  <outline>
    <contour>
      <point x="226" y="0" type="line"/>
      <point x="374" y="0" type="line"/>
      <point x="374" y="528" type="line"/>
      <point x="569" y="528" type="line"/>
      <point x="569" y="652" type="line"/>
      <point x="31" y="652" type="line"/>
      <point x="31" y="528" type="line"/>
      <point x="226" y="528" type="line"/>
    </contour>
    <contour>
      <point x="300" y="672" type="move" name="aboveUC"/>
    </contour>
    <contour>
      <point x="300" y="0" type="move" name="baseLC"/>
    </contour>
    <contour>
      <point x="300" y="-20" type="move" name="belowLC"/>
    </contour>
  </outline>
</glyph>
<glyph name="U" format="1">
	<unicode hex="0055"/>
	<advance width="600"/>
	<outline>
		<contour>
			<point x="302" y="-12" type="curve" smooth="yes"/>
			<point x="460" y="-12"/>
			<point x="536" y="82"/>
			<point x="536" y="251" type="curve" smooth="yes"/>
			<point x="536" y="652" type="line"/>
			<point x="394" y="652" type="line"/>
			<point x="394" y="236" type="line" smooth="yes"/>
			<point x="394" y="158"/>
			<point x="364" y="115"/>
			<point x="302" y="115" type="curve" smooth="yes"/>
			<point x="240" y="115"/>
			<point x="211" y="158"/>
			<point x="211" y="236" type="curve" smooth="yes"/>
			<point x="211" y="652" type="line"/>
			<point x="64" y="652" type="line"/>
			<point x="64" y="251" type="line" smooth="yes"/>
			<point x="64" y="82"/>
			<point x="143" y="-12"/>
		</contour>
		<contour>
			<point name="aboveUC" x="300" y="672" type="move"/>
		</contour>
		<contour>
			<point name="hornLC" x="512" y="662" type="move"/>
		</contour>
		<contour>
			<point name="ogonekUC" x="300" y="0" type="move"/>
		</contour>
		<contour>
			<point name="baseLC" x="300" y="0" type="move"/>
		</contour>
		<contour>
			<point name="belowLC" x="300" y="-20" type="move"/>
		</contour>
	</outline>
</glyph>
<glyph name="bracketleft" format="1">
  <advance width="600"/>
  <unicode hex="005B"/>
  <outline>
    <contour>
      <point x="200" y="-152" type="line"/>
      <point x="496" y="-152" type="line"/>
      <point x="496" y="-74" type="line"/>
      <point x="312" y="-74" type="line"/>
      <point x="312" y="630" type="line"/>
      <point x="496" y="630" type="line"/>
      <point x="496" y="708" type="line"/>
      <point x="200" y="708" type="line"/>
    </contour>
  </outline>
</glyph>
<glyph name="backslash" format="1">
  <advance width="600"/>
  <unicode hex="005C"/>
  <outline>
    <contour>
      <point x="403" y="-160" type="line"/>
      <point x="526" y="-160" type="line"/>
      <point x="197" y="710" type="line"/>
      <point x="74" y="710" type="line"/>
    </contour>
  </outline>
</glyph>
<glyph name="h" format="1">
  <advance width="600"/>
  <unicode hex="0068"/>
  <outline>
    <contour>
      <point x="72" y="0" type="line"/>
      <point x="219" y="0" type="line"/>
      <point x="219" y="331" type="line"/>
      <point x="254" y="365"/>
      <point x="280" y="383"/>
      <point x="320" y="383" type="curve" smooth="yes"/>
      <point x="374" y="383"/>
      <point x="393" y="353"/>
      <point x="393" y="287" type="curve" smooth="yes"/>
      <point x="393" y="0" type="line"/>
      <point x="540" y="0" type="line"/>
      <point x="540" y="306" type="line" smooth="yes"/>
      <point x="540" y="431"/>
      <point x="490" y="508"/>
      <point x="379" y="508" type="curve" smooth="yes"/>
      <point x="304" y="508"/>
      <point x="251" y="472"/>
      <point x="214" y="434" type="curve"/>
      <point x="211" y="434" type="line"/>
      <point x="219" y="529" type="line"/>
      <point x="219" y="701" type="line"/>
      <point x="72" y="701" type="line"/>
    </contour>
    <contour>
      <point x="145" y="732" type="move" name="aboveUC"/>
    </contour>
    <contour>
      <point x="144" y="0" type="move" name="baseLC"/>
    </contour>
    <contour>
      <point x="308" y="-20" type="move" name="belowLC"/>
    </contour>
  </outline>
</glyph>
<glyph name="j" format="1">
	<unicode hex="006A"/>
	<advance width="600"/>
	<outline>
		<component base="dotlessj"/>
		<component base="dotaccentcmb" xOffset="45"/>
		<contour>
			<point name="aboveUC" x="345" y="761" type="move"/>
		</contour>
		<contour>
			<point name="belowLC" x="246" y="-205" type="move"/>
		</contour>
	</outline>
</glyph>
<glyph name="p" format="1">
  <advance width="600"/>
  <unicode hex="0070"/>
  <outline>
    <contour>
      <point x="72" y="-184" type="line"/>
      <point x="219" y="-184" type="line"/>
      <point x="219" y="-39" type="line"/>
      <point x="212" y="42" type="line"/>
      <point x="216" y="42" type="line"/>
      <point x="251" y="7"/>
      <point x="294" y="-12"/>
      <point x="338" y="-12" type="curve" smooth="yes"/>
      <point x="449" y="-12"/>
      <point x="553" y="86"/>
      <point x="553" y="256" type="curve" smooth="yes"/>
      <point x="553" y="409"/>
      <point x="478" y="508"/>
      <point x="354" y="508" type="curve" smooth="yes"/>
      <point x="301" y="508"/>
      <point x="246" y="482"/>
      <point x="206" y="446" type="curve"/>
      <point x="203" y="446" type="line"/>
      <point x="192" y="496" type="line"/>
      <point x="72" y="496" type="line"/>
    </contour>
    <contour>
      <point x="304" y="108" type="curve" smooth="yes"/>
      <point x="279" y="108"/>
      <point x="247" y="117"/>
      <point x="219" y="141" type="curve"/>
      <point x="219" y="342" type="line"/>
      <point x="250" y="374"/>
      <point x="279" y="388"/>
      <point x="311" y="388" type="curve" smooth="yes"/>
      <point x="373" y="388"/>
      <point x="402" y="343"/>
      <point x="402" y="254" type="curve" smooth="yes"/>
      <point x="402" y="152"/>
      <point x="359" y="108"/>
    </contour>
    <contour>
      <point x="323" y="516" type="move" name="aboveLC"/>
    </contour>
    <contour>
      <point x="146" y="-205" type="move" name="belowLC"/>
    </contour>
  </outline>
</glyph>
<glyph name="q" format="1">
  <advance width="600"/>
  <unicode hex="0071"/>
  <outline>
    <contour>
      <point x="381" y="-184" type="line"/>
      <point x="528" y="-184" type="line"/>
      <point x="528" y="496" type="line"/>
      <point x="413" y="496" type="line"/>
      <point x="401" y="445" type="line"/>
      <point x="397" y="445" type="line"/>
      <point x="356" y="489"/>
      <point x="315" y="508"/>
      <point x="259" y="508" type="curve" smooth="yes"/>
      <point x="151" y="508"/>
      <point x="47" y="410"/>
      <point x="47" y="248" type="curve" smooth="yes"/>
      <point x="47" y="86"/>
      <point x="130" y="-12"/>
      <point x="256" y="-12" type="curve" smooth="yes"/>
      <point x="303" y="-12"/>
      <point x="351" y="12"/>
      <point x="384" y="45" type="curve"/>
      <point x="388" y="45" type="line"/>
      <point x="381" y="-35" type="line"/>
    </contour>
    <contour>
      <point x="294" y="108" type="curve" smooth="yes"/>
      <point x="233" y="108"/>
      <point x="198" y="152"/>
      <point x="198" y="250" type="curve" smooth="yes"/>
      <point x="198" y="344"/>
      <point x="244" y="388"/>
      <point x="298" y="388" type="curve" smooth="yes"/>
      <point x="327" y="388"/>
      <point x="354" y="379"/>
      <point x="381" y="355" type="curve"/>
      <point x="381" y="154" type="line"/>
      <point x="355" y="121"/>
      <point x="327" y="108"/>
    </contour>
    <contour>
      <point x="308" y="516" type="move" name="aboveLC"/>
    </contour>
    <contour>
      <point x="449" y="-205" type="move" name="belowLC"/>
    </contour>
  </outline>
</glyph>
<glyph name="w" format="1">
  <advance width="600"/>
  <unicode hex="0077"/>
  <outline>
    <contour>
      <point x="85" y="0" type="line"/>
      <point x="255" y="0" type="line"/>
      <point x="281" y="161" type="line" smooth="yes"/>
      <point x="289" y="223"/>
      <point x="294" y="266"/>
      <point x="298" y="308" type="curve"/>
      <point x="302" y="308" type="line"/>
      <point x="308" y="251"/>
      <point x="314" y="204"/>
      <point x="320" y="161" type="curve" smooth="yes"/>
      <point x="347" y="0" type="line"/>
      <point x="520" y="0" type="line"/>
      <point x="596" y="496" type="line"/>
      <point x="460" y="496" type="line"/>
      <point x="432" y="266" type="line" smooth="yes"/>
      <point x="427" y="217"/>
      <point x="425" y="169"/>
      <point x="418" y="119" type="curve"/>
      <point x="414" y="119" type="line"/>
      <point x="407" y="169"/>
      <point x="399" y="217"/>
      <point x="389" y="266" type="curve" smooth="yes"/>
      <point x="357" y="430" type="line"/>
      <point x="250" y="430" type="line"/>
      <point x="219" y="266" type="line"/>
      <point x="209" y="219"/>
      <point x="202" y="169"/>
      <point x="196" y="119" type="curve"/>
      <point x="193" y="119" type="line"/>
      <point x="187" y="169"/>
      <point x="183" y="217"/>
      <point x="177" y="266" type="curve" smooth="yes"/>
      <point x="146" y="496" type="line"/>
      <point x="4" y="496" type="line"/>
    </contour>
    <contour>
      <point x="300" y="516" type="move" name="aboveLC"/>
    </contour>
    <contour>
      <point x="300" y="-20" type="move" name="belowLC"/>
    </contour>
  </outline>
</glyph>
<glyph name="x" format="1">
  <advance width="600"/>
  <unicode hex="0078"/>
  <outline>
    <contour>
      <point x="37" y="0" type="line"/>
      <point x="191" y="0" type="line"/>
      <point x="240" y="82" type="line"/>
      <point x="255" y="111"/>
      <point x="271" y="140"/>
      <point x="286" y="168" type="curve"/>
      <point x="290" y="168" type="line"/>
      <point x="308" y="140"/>
      <point x="329" y="110"/>
      <point x="347" y="82" type="curve" smooth="yes"/>
      <point x="404" y="0" type="line"/>
      <point x="562" y="0" type="line"/>
      <point x="390" y="241" type="line"/>
      <point x="552" y="496" type="line"/>
      <point x="398" y="496" type="line"/>
      <point x="354" y="416" type="line"/>
      <point x="341" y="389"/>
      <point x="326" y="359"/>
      <point x="313" y="331" type="curve"/>
      <point x="309" y="331" type="line"/>
      <point x="292" y="359"/>
      <point x="272" y="388"/>
      <point x="257" y="416" type="curve"/>
      <point x="206" y="496" type="line"/>
      <point x="48" y="496" type="line"/>
      <point x="209" y="258" type="line"/>
    </contour>
    <contour>
      <point x="300" y="516" type="move" name="aboveLC"/>
    </contour>
    <contour>
      <point x="473" y="0" type="move" name="baseLC"/>
    </contour>
    <contour>
      <point x="300" y="-20" type="move" name="belowLC"/>
    </contour>
  </outline>
</glyph>
<glyph name="z" format="1">
	<unicode hex="007A"/>
	<advance width="600"/>
	<outline>
		<contour>
			<point x="70" y="0" type="line"/>
			<point x="540" y="0" type="line"/>
			<point x="540" y="115" type="line"/>
			<point x="273" y="115" type="line"/>
			<point x="533" y="418" type="line"/>
			<point x="533" y="496" type="line"/>
			<point x="101" y="496" type="line"/>
			<point x="101" y="381" type="line"/>
			<point x="329" y="381" type="line"/>
			<point x="70" y="79" type="line"/>
		</contour>
		<contour>
			<point name="aboveLC" x="328" y="516" type="move"/>
		</contour>
		<contour>
			<point name="baseLC" x="320" y="0" type="move"/>
		</contour>
		<contour>
			<point name="belowLC" x="311" y="-20" type="move"/>
		</contour>
	</outline>
</glyph>
<glyph name="braceleft" format="1">
	<unicode hex="007B"/>
	<advance width="600"/>
	<outline>
		<contour>
			<point x="419" y="-152" type="curve" smooth="yes"/>
			<point x="496" y="-152" type="line"/>
			<point x="496" y="-74" type="line"/>
			<point x="455" y="-74" type="line" smooth="yes"/>
			<point x="372" y="-74"/>
			<point x="353" y="-60"/>
			<point x="353" y="-4" type="curve" smooth="yes"/>
			<point x="353" y="50"/>
			<point x="358" y="98"/>
			<point x="358" y="159" type="curve" smooth="yes"/>
			<point x="358" y="235"/>
			<point x="329" y="264"/>
			<point x="258" y="276" type="curve"/>
			<point x="258" y="280" type="line"/>
			<point x="329" y="292"/>
			<point x="358" y="321"/>
			<point x="358" y="397" type="curve" smooth="yes"/>
			<point x="358" y="456"/>
			<point x="353" y="507"/>
			<point x="353" y="560" type="curve" smooth="yes"/>
			<point x="353" y="616"/>
			<point x="372" y="630"/>
			<point x="455" y="630" type="curve" smooth="yes"/>
			<point x="496" y="630" type="line"/>
			<point x="496" y="708" type="line"/>
			<point x="419" y="708" type="line" smooth="yes"/>
			<point x="291" y="708"/>
			<point x="233" y="674"/>
			<point x="233" y="566" type="curve" smooth="yes"/>
			<point x="233" y="496"/>
			<point x="243" y="457"/>
			<point x="243" y="395" type="curve" smooth="yes"/>
			<point x="243" y="360"/>
			<point x="214" y="323"/>
			<point x="106" y="321" type="curve"/>
			<point x="106" y="235" type="line"/>
			<point x="214" y="233"/>
			<point x="243" y="196"/>
			<point x="243" y="161" type="curve" smooth="yes"/>
			<point x="243" y="98"/>
			<point x="233" y="61"/>
			<point x="233" y="-10" type="curve" smooth="yes"/>
			<point x="233" y="-118"/>
			<point x="291" y="-152"/>
		</contour>
	</outline>
</glyph>
<glyph name="cent" format="1">
  <advance width="600"/>
  <unicode hex="00A2"/>
  <outline>
    <contour>
      <point x="358" y="51" type="curve" smooth="yes"/>
      <point x="412" y="51"/>
      <point x="475" y="71"/>
      <point x="523" y="113" type="curve"/>
      <point x="464" y="206" type="line"/>
      <point x="440" y="187"/>
      <point x="410" y="170"/>
      <point x="375" y="170" type="curve" smooth="yes"/>
      <point x="288" y="170"/>
      <point x="239" y="223"/>
      <point x="239" y="307" type="curve" smooth="yes"/>
      <point x="239" y="391"/>
      <point x="286" y="444"/>
      <point x="380" y="444" type="curve" smooth="yes"/>
      <point x="403" y="444"/>
      <point x="425" y="436"/>
      <point x="449" y="416" type="curve"/>
      <point x="516" y="506" type="line"/>
      <point x="483" y="540"/>
      <point x="432" y="563"/>
      <point x="371" y="563" type="curve" smooth="yes"/>
      <point x="218" y="563"/>
      <point x="96" y="470"/>
      <point x="96" y="307" type="curve" smooth="yes"/>
      <point x="96" y="145"/>
      <point x="202" y="51"/>
    </contour>
    <contour>
      <point x="311" y="-41" type="line"/>
      <point x="392" y="-41" type="line"/>
      <point x="392" y="655" type="line"/>
      <point x="311" y="655" type="line"/>
    </contour>
  </outline>
</glyph>
<glyph name="currency" format="1">
  <advance width="600"/>
  <unicode hex="00A4"/>
  <outline>
    <contour>
      <point x="109" y="63" type="line"/>
      <point x="199" y="154" type="line"/>
      <point x="230" y="138"/>
      <point x="265" y="130"/>
      <point x="300" y="130" type="curve" smooth="yes"/>
      <point x="334" y="130"/>
      <point x="370" y="138"/>
      <point x="401" y="154" type="curve"/>
      <point x="491" y="63" type="line"/>
      <point x="564" y="137" type="line"/>
      <point x="482" y="219" type="line"/>
      <point x="504" y="249"/>
      <point x="517" y="286"/>
      <point x="517" y="330" type="curve" smooth="yes"/>
      <point x="517" y="373"/>
      <point x="505" y="410"/>
      <point x="483" y="439" type="curve"/>
      <point x="564" y="521" type="line"/>
      <point x="491" y="595" type="line"/>
      <point x="402" y="505" type="line"/>
      <point x="370" y="521"/>
      <point x="335" y="530"/>
      <point x="300" y="530" type="curve" smooth="yes"/>
      <point x="265" y="530"/>
      <point x="229" y="521"/>
      <point x="198" y="505" type="curve"/>
      <point x="109" y="595" type="line"/>
      <point x="36" y="521" type="line"/>
      <point x="116" y="439" type="line"/>
      <point x="95" y="410"/>
      <point x="83" y="373"/>
      <point x="83" y="330" type="curve" smooth="yes"/>
      <point x="83" y="286"/>
      <point x="95" y="249"/>
      <point x="117" y="219" type="curve"/>
      <point x="36" y="137" type="line"/>
    </contour>
    <contour>
      <point x="300" y="232" type="curve" smooth="yes"/>
      <point x="252" y="232"/>
      <point x="214" y="270"/>
      <point x="214" y="330" type="curve" smooth="yes"/>
      <point x="214" y="389"/>
      <point x="252" y="428"/>
      <point x="300" y="428" type="curve" smooth="yes"/>
      <point x="348" y="428"/>
      <point x="386" y="389"/>
      <point x="386" y="330" type="curve" smooth="yes"/>
      <point x="386" y="270"/>
      <point x="348" y="232"/>
    </contour>
  </outline>
</glyph>
<glyph name="yen" format="1">
	<unicode hex="00A5"/>
	<advance width="600"/>
	<outline>
		<contour>
			<point x="226" y="0" type="line"/>
			<point x="373" y="0" type="line"/>
			<point x="373" y="147" type="line"/>
			<point x="543" y="147" type="line"/>
			<point x="543" y="217" type="line"/>
			<point x="373" y="217" type="line"/>
			<point x="373" y="272" type="line"/>
			<point x="543" y="272" type="line"/>
			<point x="543" y="342" type="line"/>
			<point x="406" y="342" type="line"/>
			<point x="569" y="635" type="line"/>
			<point x="422" y="635" type="line"/>
			<point x="361" y="502" type="line" smooth="yes"/>
			<point x="342" y="459"/>
			<point x="323" y="415"/>
			<point x="304" y="371" type="curve"/>
			<point x="300" y="371" type="line"/>
			<point x="280" y="414"/>
			<point x="262" y="458"/>
			<point x="243" y="502" type="curve" smooth="yes"/>
			<point x="182" y="635" type="line"/>
			<point x="31" y="635" type="line"/>
			<point x="194" y="342" type="line"/>
			<point x="57" y="342" type="line"/>
			<point x="57" y="272" type="line"/>
			<point x="226" y="272" type="line"/>
			<point x="226" y="217" type="line"/>
			<point x="57" y="217" type="line"/>
			<point x="57" y="147" type="line"/>
			<point x="226" y="147" type="line"/>
		</contour>
	</outline>
</glyph>
<glyph name="logicalnot" format="1">
  <advance width="600"/>
  <unicode hex="00AC"/>
  <outline>
    <contour>
      <point x="422" y="94" type="line"/>
      <point x="530" y="94" type="line"/>
      <point x="530" y="382" type="line"/>
      <point x="70" y="382" type="line"/>
      <point x="70" y="278" type="line"/>
      <point x="422" y="278" type="line"/>
    </contour>
  </outline>
</glyph>
<glyph name="degree" format="1">
  <advance width="600"/>
  <unicode hex="00B0"/>
  <outline>
    <contour>
      <point x="301" y="398" type="curve" smooth="yes"/>
      <point x="382" y="398"/>
      <point x="445" y="458"/>
      <point x="445" y="542" type="curve" smooth="yes"/>
      <point x="445" y="626"/>
      <point x="382" y="686"/>
      <point x="301" y="686" type="curve" smooth="yes"/>
      <point x="220" y="686"/>
      <point x="156" y="626"/>
      <point x="156" y="542" type="curve" smooth="yes"/>
      <point x="156" y="458"/>
      <point x="220" y="398"/>
    </contour>
    <contour>
      <point x="301" y="468" type="curve" smooth="yes"/>
      <point x="261" y="468"/>
      <point x="234" y="498"/>
      <point x="234" y="542" type="curve" smooth="yes"/>
      <point x="234" y="585"/>
      <point x="261" y="615"/>
      <point x="301" y="615" type="curve" smooth="yes"/>
      <point x="341" y="615"/>
      <point x="368" y="585"/>
      <point x="368" y="542" type="curve" smooth="yes"/>
      <point x="368" y="498"/>
      <point x="341" y="468"/>
    </contour>
  </outline>
</glyph>
<glyph name="AE" format="1">
  <advance width="600"/>
  <unicode hex="00C6"/>
  <outline>
    <contour>
      <point x="-3" y="0" type="line"/>
      <point x="148" y="0" type="line"/>
      <point x="255" y="356" type="line" smooth="yes"/>
      <point x="271" y="413"/>
      <point x="291" y="476"/>
      <point x="308" y="541" type="curve"/>
      <point x="311" y="541" type="line"/>
      <point x="311" y="0" type="line"/>
      <point x="595" y="0" type="line"/>
      <point x="595" y="124" type="line"/>
      <point x="441" y="124" type="line"/>
      <point x="441" y="275" type="line"/>
      <point x="559" y="275" type="line"/>
      <point x="559" y="399" type="line"/>
      <point x="441" y="399" type="line"/>
      <point x="441" y="528" type="line"/>
      <point x="586" y="528" type="line"/>
      <point x="586" y="652" type="line"/>
      <point x="215" y="652" type="line"/>
    </contour>
    <contour>
      <point x="132" y="149" type="line"/>
      <point x="368" y="149" type="line"/>
      <point x="368" y="263" type="line"/>
      <point x="132" y="263" type="line"/>
    </contour>
    <contour>
      <point x="391" y="672" type="move" name="aboveUC"/>
    </contour>
    <contour>
      <point x="468" y="0" type="move" name="baseLC"/>
    </contour>
    <contour>
      <point x="332" y="-20" type="move" name="belowLC"/>
    </contour>
  </outline>
</glyph>
<glyph name="multiply" format="1">
  <advance width="600"/>
  <unicode hex="00D7"/>
  <outline>
    <contour>
      <point x="157" y="112" type="line"/>
      <point x="300" y="256" type="line"/>
      <point x="443" y="112" type="line"/>
      <point x="516" y="186" type="line"/>
      <point x="374" y="329" type="line"/>
      <point x="516" y="473" type="line"/>
      <point x="443" y="547" type="line"/>
      <point x="300" y="403" type="line"/>
      <point x="157" y="547" type="line"/>
      <point x="84" y="473" type="line"/>
      <point x="226" y="329" type="line"/>
      <point x="84" y="186" type="line"/>
    </contour>
  </outline>
</glyph>
<glyph name="ae" format="1">
  <advance width="600"/>
  <unicode hex="00E6"/>
  <outline>
    <contour>
      <point x="149" y="-12" type="curve" smooth="yes"/>
      <point x="205" y="-12"/>
      <point x="257" y="15"/>
      <point x="315" y="88" type="curve"/>
      <point x="274" y="154" type="line"/>
      <point x="241" y="113"/>
      <point x="215" y="102"/>
      <point x="194" y="102" type="curve" smooth="yes"/>
      <point x="167" y="102"/>
      <point x="147" y="118"/>
      <point x="147" y="148" type="curve" smooth="yes"/>
      <point x="147" y="187"/>
      <point x="174" y="221"/>
      <point x="267" y="230" type="curve"/>
      <point x="267" y="317" type="line"/>
      <point x="97" y="298"/>
      <point x="16" y="239"/>
      <point x="16" y="130" type="curve" smooth="yes"/>
      <point x="16" y="47"/>
      <point x="70" y="-12"/>
    </contour>
    <contour>
      <point x="445" y="-12" type="curve" smooth="yes"/>
      <point x="487" y="-12"/>
      <point x="540" y="5"/>
      <point x="578" y="35" type="curve"/>
      <point x="527" y="130" type="line"/>
      <point x="501" y="112"/>
      <point x="477" y="103"/>
      <point x="451" y="103" type="curve" smooth="yes"/>
      <point x="394" y="103"/>
      <point x="352" y="151"/>
      <point x="352" y="248" type="curve" smooth="yes"/>
      <point x="352" y="357"/>
      <point x="389" y="396"/>
      <point x="424" y="396" type="curve" smooth="yes"/>
      <point x="462" y="396"/>
      <point x="478" y="362"/>
      <point x="478" y="277" type="curve"/>
      <point x="502" y="297" type="line"/>
      <point x="328" y="297" type="line"/>
      <point x="328" y="204" type="line"/>
      <point x="587" y="204" type="line"/>
      <point x="589" y="218"/>
      <point x="593" y="242"/>
      <point x="593" y="269" type="curve" smooth="yes"/>
      <point x="593" y="399"/>
      <point x="540" y="508"/>
      <point x="436" y="508" type="curve" smooth="yes"/>
      <point x="380" y="508"/>
      <point x="332" y="482"/>
      <point x="293" y="406" type="curve"/>
      <point x="323" y="406" type="line"/>
      <point x="292" y="482"/>
      <point x="250" y="508"/>
      <point x="191" y="508" type="curve" smooth="yes"/>
      <point x="137" y="508"/>
      <point x="84" y="486"/>
      <point x="29" y="453" type="curve"/>
      <point x="81" y="357" type="line"/>
      <point x="116" y="378"/>
      <point x="145" y="391"/>
      <point x="181" y="391" type="curve" smooth="yes"/>
      <point x="216" y="391"/>
      <point x="243" y="371"/>
      <point x="243" y="292" type="curve" smooth="yes"/>
      <point x="243" y="249" type="line"/>
      <point x="243" y="98"/>
      <point x="316" y="-12"/>
    </contour>
    <contour>
      <point x="310" y="516" type="move" name="aboveLC"/>
    </contour>
    <contour>
      <point x="435" y="0" type="move" name="baseLC"/>
    </contour>
    <contour>
      <point x="308" y="-20" type="move" name="belowLC"/>
    </contour>
  </outline>
</glyph>
<glyph name="divide" format="1">
	<unicode hex="00F7"/>
	<advance width="600"/>
	<outline>
		<contour>
			<point x="300" y="433" type="curve" smooth="yes"/>
			<point x="346" y="433"/>
			<point x="381" y="465"/>
			<point x="381" y="510" type="curve" smooth="yes"/>
			<point x="381" y="555"/>
			<point x="346" y="587"/>
			<point x="300" y="587" type="curve" smooth="yes"/>
			<point x="254" y="587"/>
			<point x="219" y="555"/>
			<point x="219" y="510" type="curve" smooth="yes"/>
			<point x="219" y="465"/>
			<point x="254" y="433"/>
		</contour>
		<contour>
			<point x="300" y="73" type="curve" smooth="yes"/>
			<point x="346" y="73"/>
			<point x="381" y="105"/>
			<point x="381" y="150" type="curve" smooth="yes"/>
			<point x="381" y="195"/>
			<point x="346" y="227"/>
			<point x="300" y="227" type="curve" smooth="yes"/>
			<point x="254" y="227"/>
			<point x="219" y="195"/>
			<point x="219" y="150" type="curve" smooth="yes"/>
			<point x="219" y="105"/>
			<point x="254" y="73"/>
		</contour>
		<contour>
			<point x="70" y="278" type="line"/>
			<point x="530" y="278" type="line"/>
			<point x="530" y="382" type="line"/>
			<point x="70" y="382" type="line"/>
		</contour>
	</outline>
</glyph>
<glyph name="dotlessi" format="1">
	<unicode hex="0131"/>
	<advance width="600"/>
	<outline>
		<contour>
			<point x="278" y="0" type="line"/>
			<point x="425" y="0" type="line"/>
			<point x="425" y="496" type="line"/>
			<point x="79" y="496" type="line"/>
			<point x="79" y="381" type="line"/>
			<point x="278" y="381" type="line"/>
		</contour>
		<contour>
			<point name="ogonekLC" x="352" y="0" type="move"/>
		</contour>
		<contour>
			<point name="aboveLC" x="345" y="516" type="move"/>
		</contour>
		<contour>
			<point name="baseLC" x="354" y="0" type="move"/>
		</contour>
		<contour>
			<point name="belowLC" x="345" y="-20" type="move"/>
		</contour>
	</outline>
</glyph>
<glyph name="IJ" format="1">
  <advance width="600"/>
  <unicode hex="0132"/>
  <outline>
    <contour>
      <point x="74" y="0" type="line"/>
      <point x="222" y="0" type="line"/>
      <point x="222" y="652" type="line"/>
      <point x="74" y="652" type="line"/>
    </contour>
    <contour>
      <point x="343" y="-182" type="curve" smooth="yes"/>
      <point x="483" y="-182"/>
      <point x="526" y="-91"/>
      <point x="526" y="18" type="curve" smooth="yes"/>
      <point x="526" y="652" type="line"/>
      <point x="378" y="652" type="line"/>
      <point x="378" y="14" type="line" smooth="yes"/>
      <point x="378" y="-41"/>
      <point x="363" y="-66"/>
      <point x="320" y="-66" type="curve" smooth="yes"/>
      <point x="305" y="-66"/>
      <point x="291" y="-62"/>
      <point x="275" y="-57" type="curve"/>
      <point x="249" y="-166" type="line"/>
      <point x="271" y="-174"/>
      <point x="298" y="-182"/>
    </contour>
  </outline>
</glyph>
<glyph name="ij" format="1">
	<unicode hex="0133"/>
	<advance width="600"/>
	<outline>
		<contour>
			<point x="77" y="0" type="line"/>
			<point x="224" y="0" type="line"/>
			<point x="224" y="496" type="line"/>
			<point x="77" y="496" type="line"/>
		</contour>
		<contour>
			<point x="151" y="569" type="curve" smooth="yes"/>
			<point x="201" y="569"/>
			<point x="237" y="601"/>
			<point x="237" y="647" type="curve" smooth="yes"/>
			<point x="237" y="693"/>
			<point x="201" y="725"/>
			<point x="151" y="725" type="curve" smooth="yes"/>
			<point x="101" y="725"/>
			<point x="65" y="693"/>
			<point x="65" y="647" type="curve" smooth="yes"/>
			<point x="65" y="601"/>
			<point x="101" y="569"/>
		</contour>
		<contour>
			<point x="357" y="-196" type="curve" smooth="yes"/>
			<point x="492" y="-196"/>
			<point x="534" y="-105"/>
			<point x="534" y="3" type="curve" smooth="yes"/>
			<point x="534" y="496" type="line"/>
			<point x="387" y="496" type="line"/>
			<point x="387" y="-1" type="line" smooth="yes"/>
			<point x="387" y="-56"/>
			<point x="374" y="-81"/>
			<point x="335" y="-81" type="curve" smooth="yes"/>
			<point x="321" y="-81"/>
			<point x="309" y="-78"/>
			<point x="296" y="-74" type="curve"/>
			<point x="270" y="-182" type="line"/>
			<point x="290" y="-190"/>
			<point x="316" y="-196"/>
		</contour>
		<contour>
			<point x="461" y="569" type="curve" smooth="yes"/>
			<point x="511" y="569"/>
			<point x="547" y="601"/>
			<point x="547" y="647" type="curve" smooth="yes"/>
			<point x="547" y="693"/>
			<point x="511" y="725"/>
			<point x="461" y="725" type="curve" smooth="yes"/>
			<point x="411" y="725"/>
			<point x="375" y="693"/>
			<point x="375" y="647" type="curve" smooth="yes"/>
			<point x="375" y="601"/>
			<point x="411" y="569"/>
		</contour>
	</outline>
</glyph>
<glyph name="Lslash" format="1">
	<unicode hex="0141"/>
	<advance width="600"/>
	<outline>
		<contour>
			<point x="43" y="170" type="line"/>
			<point x="123" y="217" type="line"/>
			<point x="239" y="267" type="line"/>
			<point x="483" y="401" type="line"/>
			<point x="434" y="489" type="line"/>
			<point x="239" y="381" type="line"/>
			<point x="123" y="331" type="line"/>
			<point x="-7" y="258" type="line"/>
		</contour>
		<component base="L"/>
		<contour>
			<point name="aboveUC" x="193" y="672" type="move"/>
		</contour>
		<contour>
			<point name="belowLC" x="335" y="-20" type="move"/>
		</contour>
	</outline>
</glyph>
<glyph name="eng" format="1">
  <advance width="600"/>
  <unicode hex="014B"/>
  <outline>
    <contour>
      <point x="369" y="-187" type="curve" smooth="yes"/>
      <point x="496" y="-187"/>
      <point x="540" y="-95"/>
      <point x="540" y="15" type="curve" smooth="yes"/>
      <point x="540" y="306" type="line" smooth="yes"/>
      <point x="540" y="431"/>
      <point x="490" y="508"/>
      <point x="378" y="508" type="curve" smooth="yes"/>
      <point x="304" y="508"/>
      <point x="250" y="472"/>
      <point x="207" y="430" type="curve"/>
      <point x="203" y="430" type="line"/>
      <point x="192" y="496" type="line"/>
      <point x="72" y="496" type="line"/>
      <point x="72" y="0" type="line"/>
      <point x="219" y="0" type="line"/>
      <point x="219" y="331" type="line"/>
      <point x="254" y="365"/>
      <point x="280" y="383"/>
      <point x="320" y="383" type="curve" smooth="yes"/>
      <point x="374" y="383"/>
      <point x="393" y="353"/>
      <point x="393" y="287" type="curve" smooth="yes"/>
      <point x="393" y="10" type="line" smooth="yes"/>
      <point x="393" y="-46"/>
      <point x="379" y="-71"/>
      <point x="346" y="-71" type="curve" smooth="yes"/>
      <point x="333" y="-71"/>
      <point x="322" y="-68"/>
      <point x="309" y="-64" type="curve"/>
      <point x="283" y="-173" type="line"/>
      <point x="303" y="-180"/>
      <point x="329" y="-187"/>
    </contour>
    <contour>
      <point x="315" y="516" type="move" name="aboveLC"/>
    </contour>
    <contour>
      <point x="324" y="-205" type="move" name="belowLC"/>
    </contour>
  </outline>
</glyph>
<glyph name="oe" format="1">
  <advance width="600"/>
  <unicode hex="0153"/>
  <outline>
    <contour>
      <point x="205" y="107" type="curve" smooth="yes"/>
      <point x="163" y="107"/>
      <point x="144" y="162"/>
      <point x="144" y="248" type="curve" smooth="yes"/>
      <point x="144" y="334"/>
      <point x="163" y="390"/>
      <point x="205" y="390" type="curve" smooth="yes"/>
      <point x="240" y="390"/>
      <point x="260" y="334"/>
      <point x="260" y="248" type="curve" smooth="yes"/>
      <point x="260" y="162"/>
      <point x="240" y="107"/>
    </contour>
    <contour>
      <point x="194" y="-12" type="curve" smooth="yes"/>
      <point x="255" y="-12"/>
      <point x="300" y="17"/>
      <point x="326" y="99" type="curve"/>
      <point x="308" y="99" type="line"/>
      <point x="330" y="17"/>
      <point x="394" y="-12"/>
      <point x="448" y="-12" type="curve" smooth="yes"/>
      <point x="488" y="-12"/>
      <point x="540" y="5"/>
      <point x="578" y="35" type="curve"/>
      <point x="527" y="130" type="line"/>
      <point x="501" y="112"/>
      <point x="479" y="103"/>
      <point x="453" y="103" type="curve" smooth="yes"/>
      <point x="400" y="103"/>
      <point x="356" y="148"/>
      <point x="356" y="248" type="curve" smooth="yes"/>
      <point x="356" y="354"/>
      <point x="389" y="396"/>
      <point x="424" y="396" type="curve" smooth="yes"/>
      <point x="462" y="396"/>
      <point x="478" y="362"/>
      <point x="478" y="277" type="curve"/>
      <point x="502" y="297" type="line"/>
      <point x="333" y="297" type="line"/>
      <point x="333" y="204" type="line"/>
      <point x="587" y="204" type="line"/>
      <point x="589" y="218"/>
      <point x="593" y="242"/>
      <point x="593" y="269" type="curve" smooth="yes"/>
      <point x="593" y="399"/>
      <point x="540" y="508"/>
      <point x="438" y="508" type="curve" smooth="yes"/>
      <point x="388" y="508"/>
      <point x="330" y="475"/>
      <point x="308" y="392" type="curve"/>
      <point x="326" y="392" type="line"/>
      <point x="300" y="475"/>
      <point x="255" y="508"/>
      <point x="197" y="508" type="curve" smooth="yes"/>
      <point x="95" y="508"/>
      <point x="12" y="413"/>
      <point x="12" y="248" type="curve" smooth="yes"/>
      <point x="12" y="83"/>
      <point x="93" y="-12"/>
    </contour>
    <contour>
      <point x="315" y="516" type="move" name="aboveLC"/>
    </contour>
    <contour>
      <point x="437" y="0" type="move" name="baseLC"/>
    </contour>
    <contour>
      <point x="308" y="-20" type="move" name="belowLC"/>
    </contour>
  </outline>
</glyph>
<glyph name="Tbar" format="1">
  <advance width="600"/>
  <unicode hex="0166"/>
  <outline>
    <contour>
      <point x="93" y="285" type="line"/>
      <point x="507" y="285" type="line"/>
      <point x="507" y="356" type="line"/>
      <point x="187" y="356" type="line"/>
      <point x="93" y="350" type="line"/>
    </contour>
    <component base="T"/>
  </outline>
</glyph>
<glyph name="bstroke" format="1">
  <advance width="600"/>
  <unicode hex="0180"/>
  <outline>
    <contour>
      <point x="338" y="-12" type="curve" smooth="yes"/>
      <point x="449" y="-12"/>
      <point x="553" y="82"/>
      <point x="553" y="247" type="curve" smooth="yes"/>
      <point x="553" y="393"/>
      <point x="477" y="488"/>
      <point x="353" y="488" type="curve" smooth="yes"/>
      <point x="305" y="488"/>
      <point x="254" y="467"/>
      <point x="218" y="431" type="curve"/>
      <point x="214" y="431" type="line"/>
      <point x="216" y="504" type="line"/>
      <point x="219" y="700" type="line"/>
      <point x="72" y="700" type="line"/>
      <point x="72" y="0" type="line"/>
      <point x="187" y="0" type="line"/>
      <point x="199" y="54" type="line"/>
      <point x="203" y="54" type="line"/>
      <point x="244" y="11"/>
      <point x="292" y="-12"/>
    </contour>
    <contour>
      <point x="305" y="108" type="curve" smooth="yes"/>
      <point x="278" y="108"/>
      <point x="247" y="117"/>
      <point x="219" y="141" type="curve"/>
      <point x="219" y="322" type="line"/>
      <point x="250" y="354"/>
      <point x="279" y="368"/>
      <point x="311" y="368" type="curve" smooth="yes"/>
      <point x="373" y="368"/>
      <point x="402" y="327"/>
      <point x="402" y="244" type="curve" smooth="yes"/>
      <point x="402" y="148"/>
      <point x="359" y="108"/>
    </contour>
    <contour>
      <point x="6" y="553" type="line"/>
      <point x="401" y="553" type="line"/>
      <point x="401" y="629" type="line"/>
      <point x="82" y="629" type="line"/>
      <point x="6" y="623" type="line"/>
    </contour>
  </outline>
</glyph>
<glyph name="Ghook" format="1">
  <advance width="600"/>
  <unicode hex="0193"/>
  <outline>
    <contour>
      <point x="536" y="581" type="line"/>
      <point x="518" y="603"/>
      <point x="503" y="623"/>
      <point x="503" y="655" type="curve" smooth="yes"/>
      <point x="503" y="686"/>
      <point x="524" y="703"/>
      <point x="554" y="703" type="curve" smooth="yes"/>
      <point x="565" y="703"/>
      <point x="572" y="700"/>
      <point x="582" y="696" type="curve"/>
      <point x="608" y="805" type="line"/>
      <point x="588" y="812"/>
      <point x="564" y="818"/>
      <point x="523" y="818" type="curve" smooth="yes"/>
      <point x="435" y="818"/>
      <point x="382" y="758"/>
      <point x="382" y="685" type="curve" smooth="yes"/>
      <point x="382" y="653"/>
      <point x="396" y="612"/>
      <point x="417" y="577" type="curve"/>
    </contour>
    <component base="G"/>
  </outline>
</glyph>
<glyph name="Ohorn" format="1">
  <advance width="600"/>
  <unicode hex="01A0"/>
  <outline>
    <contour>
      <point x="478" y="588" type="line"/>
      <point x="558" y="609"/>
      <point x="595" y="657"/>
      <point x="595" y="732" type="curve" smooth="yes"/>
      <point x="595" y="772"/>
      <point x="581" y="809"/>
      <point x="566" y="831" type="curve"/>
      <point x="457" y="787" type="line"/>
      <point x="464" y="772"/>
      <point x="472" y="747"/>
      <point x="472" y="722" type="curve" smooth="yes"/>
      <point x="472" y="672"/>
      <point x="452" y="648"/>
      <point x="410" y="637" type="curve"/>
    </contour>
    <component base="O"/>
    <contour>
      <point x="300" y="672" type="move" name="aboveUC"/>
    </contour>
    <contour>
      <point x="300" y="-20" type="move" name="belowLC"/>
    </contour>
  </outline>
</glyph>
<glyph name="ohorn" format="1">
  <advance width="600"/>
  <unicode hex="01A1"/>
  <outline>
    <contour>
      <point x="463" y="436" type="line"/>
      <point x="538" y="458"/>
      <point x="593" y="510"/>
      <point x="593" y="596" type="curve" smooth="yes"/>
      <point x="593" y="636"/>
      <point x="580" y="675"/>
      <point x="563" y="699" type="curve"/>
      <point x="455" y="651" type="line"/>
      <point x="465" y="637"/>
      <point x="470" y="612"/>
      <point x="470" y="586" type="curve" smooth="yes"/>
      <point x="470" y="523"/>
      <point x="439" y="496"/>
      <point x="394" y="484" type="curve"/>
    </contour>
    <component base="o"/>
    <contour>
      <point x="300" y="516" type="move" name="aboveLC"/>
    </contour>
    <contour>
      <point x="300" y="-20" type="move" name="belowLC"/>
    </contour>
  </outline>
</glyph>
<glyph name="Uhorn" format="1">
  <advance width="600"/>
  <unicode hex="01AF"/>
  <outline>
    <contour>
      <point x="536" y="598" type="line"/>
      <point x="614" y="612"/>
      <point x="660" y="654"/>
      <point x="660" y="736" type="curve" smooth="yes"/>
      <point x="660" y="776"/>
      <point x="646" y="812"/>
      <point x="631" y="834" type="curve"/>
      <point x="522" y="790" type="line"/>
      <point x="529" y="775"/>
      <point x="537" y="751"/>
      <point x="537" y="725" type="curve" smooth="yes"/>
      <point x="537" y="664"/>
      <point x="502" y="654"/>
      <point x="463" y="652" type="curve"/>
    </contour>
    <component base="U"/>
    <contour>
      <point x="300" y="672" type="move" name="aboveUC"/>
    </contour>
    <contour>
      <point x="300" y="-20" type="move" name="belowLC"/>
    </contour>
  </outline>
</glyph>
<glyph name="oogonek" format="1">
  <advance width="600"/>
  <unicode hex="01EB"/>
  <outline>
    <contour>
      <point x="320" y="-227" type="curve" smooth="yes"/>
      <point x="363" y="-227"/>
      <point x="409" y="-213"/>
      <point x="436" y="-191" type="curve"/>
      <point x="404" y="-126" type="line"/>
      <point x="395" y="-133"/>
      <point x="377" y="-140"/>
      <point x="355" y="-140" type="curve" smooth="yes"/>
      <point x="332" y="-140"/>
      <point x="306" y="-126"/>
      <point x="306" y="-94" type="curve" smooth="yes"/>
      <point x="306" y="-62"/>
      <point x="329" y="-23"/>
      <point x="380" y="1" type="curve" smooth="yes"/>
      <point x="483" y="46"/>
      <point x="553" y="116"/>
      <point x="553" y="248" type="curve" smooth="yes"/>
      <point x="553" y="413"/>
      <point x="432" y="508"/>
      <point x="300" y="508" type="curve" smooth="yes"/>
      <point x="168" y="508"/>
      <point x="47" y="413"/>
      <point x="47" y="248" type="curve" smooth="yes"/>
      <point x="47" y="98"/>
      <point x="148" y="4"/>
      <point x="269" y="-10" type="curve"/>
      <point x="242" y="-33"/>
      <point x="206" y="-74"/>
      <point x="206" y="-128" type="curve" smooth="yes"/>
      <point x="206" y="-194"/>
      <point x="256" y="-227"/>
    </contour>
    <contour>
      <point x="300" y="103" type="curve" smooth="yes"/>
      <point x="232" y="103"/>
      <point x="198" y="159"/>
      <point x="198" y="248" type="curve" smooth="yes"/>
      <point x="198" y="334"/>
      <point x="232" y="389"/>
      <point x="300" y="389" type="curve" smooth="yes"/>
      <point x="368" y="389"/>
      <point x="402" y="334"/>
      <point x="402" y="248" type="curve" smooth="yes"/>
      <point x="402" y="159"/>
      <point x="368" y="103"/>
    </contour>
    <contour>
      <point x="300" y="516" type="move" name="aboveLC"/>
    </contour>
  </outline>
</glyph>
<glyph name="aringacute" format="1">
  <advance width="600"/>
  <unicode hex="01FB"/>
  <outline>
    <contour>
      <point x="292" y="734" type="line"/>
      <point x="446" y="804" type="line"/>
      <point x="387" y="878" type="line"/>
      <point x="230" y="750" type="line"/>
    </contour>
    <component base="aring"/>
  </outline>
</glyph>
<glyph name="aturned" format="1">
	<unicode hex="0250"/>
	<advance width="600"/>
	<outline>
		<contour>
			<point x="296" y="-12" type="curve" smooth="yes"/>
			<point x="381" y="-12"/>
			<point x="460" y="16"/>
			<point x="528" y="55" type="curve"/>
			<point x="476" y="152" type="line"/>
			<point x="420" y="124"/>
			<point x="373" y="105"/>
			<point x="325" y="105" type="curve" smooth="yes"/>
			<point x="258" y="105"/>
			<point x="224" y="132"/>
			<point x="219" y="177" type="curve"/>
			<point x="454" y="191"/>
			<point x="546" y="247"/>
			<point x="546" y="359" type="curve" smooth="yes"/>
			<point x="546" y="442"/>
			<point x="483" y="508"/>
			<point x="383" y="508" type="curve" smooth="yes"/>
			<point x="319" y="508"/>
			<point x="257" y="478"/>
			<point x="207" y="440" type="curve"/>
			<point x="203" y="440" type="line"/>
			<point x="192" y="496" type="line"/>
			<point x="72" y="496" type="line"/>
			<point x="72" y="212" type="line" smooth="yes"/>
			<point x="72" y="60"/>
			<point x="157" y="-12"/>
		</contour>
		<contour>
			<point x="219" y="265" type="curve"/>
			<point x="219" y="347" type="line"/>
			<point x="254" y="374"/>
			<point x="292" y="394"/>
			<point x="336" y="394" type="curve" smooth="yes"/>
			<point x="378" y="394"/>
			<point x="405" y="379"/>
			<point x="405" y="347" type="curve" smooth="yes"/>
			<point x="405" y="304"/>
			<point x="365" y="273"/>
		</contour>
		<contour>
			<point name="aboveLC" x="328" y="516" type="move"/>
		</contour>
		<contour>
			<point name="belowLC" x="302" y="-20" type="move"/>
		</contour>
	</outline>
</glyph>
<glyph name="alphalatin" format="1">
  <advance width="600"/>
  <unicode hex="0251"/>
  <outline>
    <contour>
      <point x="256" y="-12" type="curve" smooth="yes"/>
      <point x="304" y="-12"/>
      <point x="358" y="15"/>
      <point x="394" y="51" type="curve"/>
      <point x="397" y="51" type="line"/>
      <point x="408" y="0" type="line"/>
      <point x="528" y="0" type="line"/>
      <point x="528" y="496" type="line"/>
      <point x="413" y="496" type="line"/>
      <point x="401" y="445" type="line"/>
      <point x="397" y="445" type="line"/>
      <point x="357" y="489"/>
      <point x="312" y="508"/>
      <point x="262" y="508" type="curve" smooth="yes"/>
      <point x="150" y="508"/>
      <point x="47" y="410"/>
      <point x="47" y="248" type="curve" smooth="yes"/>
      <point x="47" y="86"/>
      <point x="131" y="-12"/>
    </contour>
    <contour>
      <point x="294" y="108" type="curve" smooth="yes"/>
      <point x="233" y="108"/>
      <point x="198" y="152"/>
      <point x="198" y="250" type="curve" smooth="yes"/>
      <point x="198" y="344"/>
      <point x="244" y="388"/>
      <point x="298" y="388" type="curve" smooth="yes"/>
      <point x="327" y="388"/>
      <point x="354" y="379"/>
      <point x="381" y="355" type="curve"/>
      <point x="381" y="154" type="line"/>
      <point x="355" y="121"/>
      <point x="327" y="108"/>
    </contour>
    <contour>
      <point x="308" y="516" type="move" name="aboveLC"/>
    </contour>
    <contour>
      <point x="467" y="0" type="move" name="baseLC"/>
    </contour>
    <contour>
      <point x="308" y="-20" type="move" name="belowLC"/>
    </contour>
  </outline>
</glyph>
<glyph name="alphalatinturned" format="1">
	<unicode hex="0252"/>
	<advance width="600"/>
	<outline>
		<contour>
			<point x="337" y="-12" type="curve" smooth="yes"/>
			<point x="449" y="-12"/>
			<point x="553" y="86"/>
			<point x="553" y="258" type="curve" smooth="yes"/>
			<point x="553" y="409"/>
			<point x="477" y="508"/>
			<point x="354" y="508" type="curve" smooth="yes"/>
			<point x="297" y="508"/>
			<point x="242" y="481"/>
			<point x="206" y="445" type="curve"/>
			<point x="203" y="445" type="line"/>
			<point x="192" y="496" type="line"/>
			<point x="72" y="496" type="line"/>
			<point x="72" y="0" type="line"/>
			<point x="187" y="0" type="line"/>
			<point x="199" y="54" type="line"/>
			<point x="203" y="54" type="line"/>
			<point x="243" y="11"/>
			<point x="292" y="-12"/>
		</contour>
		<contour>
			<point x="303" y="108" type="curve" smooth="yes"/>
			<point x="276" y="108"/>
			<point x="246" y="117"/>
			<point x="219" y="141" type="curve"/>
			<point x="219" y="342" type="line"/>
			<point x="245" y="375"/>
			<point x="274" y="388"/>
			<point x="308" y="388" type="curve" smooth="yes"/>
			<point x="370" y="388"/>
			<point x="402" y="343"/>
			<point x="402" y="248" type="curve" smooth="yes"/>
			<point x="402" y="152"/>
			<point x="357" y="108"/>
		</contour>
		<contour>
			<point name="aboveLC" x="318" y="516" type="move"/>
		</contour>
		<contour>
			<point name="belowLC" x="312" y="-20" type="move"/>
		</contour>
	</outline>
</glyph>
<glyph name="bhook" format="1">
  <advance width="600"/>
  <unicode hex="0253"/>
  <outline>
    <contour>
      <point x="339" y="-12" type="curve" smooth="yes"/>
      <point x="448" y="-12"/>
      <point x="551" y="82"/>
      <point x="551" y="248" type="curve" smooth="yes"/>
      <point x="551" y="396"/>
      <point x="475" y="492"/>
      <point x="353" y="492" type="curve" smooth="yes"/>
      <point x="305" y="492"/>
      <point x="256" y="471"/>
      <point x="217" y="435" type="curve"/>
      <point x="213" y="435" type="line"/>
      <point x="219" y="502" type="line"/>
      <point x="219" y="511" type="line"/>
      <point x="223" y="572"/>
      <point x="252" y="597"/>
      <point x="309" y="597" type="curve" smooth="yes"/>
      <point x="329" y="597"/>
      <point x="352" y="591"/>
      <point x="374" y="583" type="curve"/>
      <point x="401" y="691" type="line"/>
      <point x="376" y="701"/>
      <point x="336" y="713"/>
      <point x="288" y="713" type="curve" smooth="yes"/>
      <point x="132" y="713"/>
      <point x="72" y="615"/>
      <point x="72" y="500" type="curve"/>
      <point x="72" y="0" type="line"/>
      <point x="187" y="0" type="line"/>
      <point x="199" y="54" type="line"/>
      <point x="203" y="54" type="line"/>
      <point x="244" y="10"/>
      <point x="293" y="-12"/>
    </contour>
    <contour>
      <point x="305" y="108" type="curve" smooth="yes"/>
      <point x="278" y="108"/>
      <point x="247" y="116"/>
      <point x="219" y="141" type="curve"/>
      <point x="219" y="325" type="line"/>
      <point x="249" y="358"/>
      <point x="279" y="371"/>
      <point x="311" y="371" type="curve" smooth="yes"/>
      <point x="372" y="371"/>
      <point x="401" y="329"/>
      <point x="401" y="246" type="curve" smooth="yes"/>
      <point x="401" y="149"/>
      <point x="358" y="108"/>
    </contour>
    <contour>
      <point x="284" y="732" type="move" name="aboveUC"/>
    </contour>
    <contour>
      <point x="312" y="-20" type="move" name="belowLC"/>
    </contour>
  </outline>
</glyph>
<glyph name="ereversed" format="1">
  <advance width="600"/>
  <unicode hex="0258"/>
  <outline>
    <contour>
      <point x="270" y="-12" type="curve" smooth="yes"/>
      <point x="424" y="-12"/>
      <point x="545" y="84"/>
      <point x="545" y="248" type="curve" smooth="yes"/>
      <point x="545" y="410"/>
      <point x="429" y="508"/>
      <point x="297" y="508" type="curve" smooth="yes"/>
      <point x="144" y="508"/>
      <point x="54" y="405"/>
      <point x="54" y="270" type="curve" smooth="yes"/>
      <point x="54" y="244"/>
      <point x="58" y="216"/>
      <point x="60" y="204" type="curve"/>
      <point x="436" y="204" type="line"/>
      <point x="436" y="303" type="line"/>
      <point x="159" y="303" type="line"/>
      <point x="182" y="275" type="line"/>
      <point x="182" y="354"/>
      <point x="219" y="396"/>
      <point x="284" y="396" type="curve" smooth="yes"/>
      <point x="357" y="396"/>
      <point x="402" y="347"/>
      <point x="402" y="248" type="curve" smooth="yes"/>
      <point x="402" y="145"/>
      <point x="346" y="100"/>
      <point x="250" y="100" type="curve" smooth="yes"/>
      <point x="205" y="100"/>
      <point x="166" y="112"/>
      <point x="122" y="134" type="curve"/>
      <point x="74" y="46" type="line"/>
      <point x="130" y="10"/>
      <point x="204" y="-12"/>
    </contour>
    <contour>
      <point x="316" y="516" type="move" name="aboveLC"/>
    </contour>
    <contour>
      <point x="298" y="-20" type="move" name="belowLC"/>
    </contour>
  </outline>
</glyph>
<glyph name="schwa" format="1">
  <advance width="600"/>
  <unicode hex="0259"/>
  <outline>
    <contour>
      <point x="291" y="-12" type="curve" smooth="yes"/>
      <point x="425" y="-12"/>
      <point x="546" y="85"/>
      <point x="546" y="248" type="curve" smooth="yes"/>
      <point x="546" y="412"/>
      <point x="433" y="508"/>
      <point x="282" y="508" type="curve" smooth="yes"/>
      <point x="216" y="508"/>
      <point x="143" y="486"/>
      <point x="86" y="450" type="curve"/>
      <point x="134" y="362" type="line"/>
      <point x="178" y="384"/>
      <point x="217" y="396"/>
      <point x="262" y="396" type="curve" smooth="yes"/>
      <point x="353" y="396"/>
      <point x="404" y="351"/>
      <point x="404" y="248" type="curve" smooth="yes"/>
      <point x="404" y="148"/>
      <point x="360" y="100"/>
      <point x="286" y="100" type="curve" smooth="yes"/>
      <point x="218" y="100"/>
      <point x="184" y="143"/>
      <point x="184" y="224" type="curve"/>
      <point x="161" y="196" type="line"/>
      <point x="438" y="196" type="line"/>
      <point x="438" y="294" type="line"/>
      <point x="61" y="294" type="line"/>
      <point x="59" y="282"/>
      <point x="55" y="255"/>
      <point x="55" y="228" type="curve" smooth="yes"/>
      <point x="55" y="93"/>
      <point x="136" y="-12"/>
    </contour>
    <contour>
      <point x="292" y="0" type="move" name="ogonekLC"/>
    </contour>
    <contour>
      <point x="310" y="516" type="move" name="aboveLC"/>
    </contour>
    <contour>
      <point x="292" y="0" type="move" name="baseLC"/>
    </contour>
    <contour>
      <point x="292" y="-20" type="move" name="belowLC"/>
    </contour>
  </outline>
</glyph>
<glyph name="dotlessjstroke" format="1">
  <advance width="600"/>
  <unicode hex="025F"/>
  <outline>
    <contour>
      <point x="105" y="187" type="line"/>
      <point x="558" y="187" type="line"/>
      <point x="558" y="263" type="line"/>
      <point x="279" y="263" type="line"/>
      <point x="105" y="257" type="line"/>
    </contour>
    <component base="dotlessj"/>
    <contour>
      <point x="345" y="516" type="move" name="aboveLC"/>
    </contour>
    <contour>
      <point x="246" y="-205" type="move" name="belowLC"/>
    </contour>
  </outline>
</glyph>
<glyph name="gscript" format="1">
  <advance width="600"/>
  <unicode hex="0261"/>
  <outline>
    <contour>
      <point x="270" y="-196" type="curve" smooth="yes"/>
      <point x="439" y="-196"/>
      <point x="528" y="-118"/>
      <point x="528" y="16" type="curve" smooth="yes"/>
      <point x="528" y="496" type="line"/>
      <point x="413" y="496" type="line"/>
      <point x="401" y="445" type="line"/>
      <point x="397" y="445" type="line"/>
      <point x="359" y="487"/>
      <point x="314" y="508"/>
      <point x="262" y="508" type="curve" smooth="yes"/>
      <point x="148" y="508"/>
      <point x="47" y="409"/>
      <point x="47" y="257" type="curve" smooth="yes"/>
      <point x="47" y="114"/>
      <point x="131" y="13"/>
      <point x="256" y="13" type="curve" smooth="yes"/>
      <point x="303" y="13"/>
      <point x="355" y="33"/>
      <point x="387" y="64" type="curve"/>
      <point x="391" y="64" type="line"/>
      <point x="386" y="1" type="line"/>
      <point x="381" y="-45"/>
      <point x="343" y="-81"/>
      <point x="270" y="-81" type="curve" smooth="yes"/>
      <point x="229" y="-81"/>
      <point x="174" y="-70"/>
      <point x="127" y="-44" type="curve"/>
      <point x="78" y="-144" type="line"/>
      <point x="136" y="-181"/>
      <point x="215" y="-196"/>
    </contour>
    <contour>
      <point x="294" y="131" type="curve" smooth="yes"/>
      <point x="236" y="131"/>
      <point x="196" y="177"/>
      <point x="196" y="259" type="curve" smooth="yes"/>
      <point x="196" y="342"/>
      <point x="246" y="388"/>
      <point x="296" y="388" type="curve" smooth="yes"/>
      <point x="327" y="388"/>
      <point x="354" y="379"/>
      <point x="381" y="355" type="curve"/>
      <point x="381" y="179" type="line"/>
      <point x="354" y="144"/>
      <point x="326" y="131"/>
    </contour>
    <contour>
      <point x="310" y="516" type="move" name="aboveLC"/>
    </contour>
    <contour>
      <point x="298" y="-205" type="move" name="belowLC"/>
    </contour>
  </outline>
</glyph>
<glyph name="gsmall" format="1">
  <advance width="600"/>
  <unicode hex="0262"/>
  <outline>
    <contour>
      <point x="337" y="-12" type="curve" smooth="yes"/>
      <point x="413" y="-12"/>
      <point x="489" y="16"/>
      <point x="532" y="56" type="curve"/>
      <point x="532" y="297" type="line"/>
      <point x="314" y="297" type="line"/>
      <point x="314" y="199" type="line"/>
      <point x="406" y="199" type="line"/>
      <point x="406" y="116" type="line"/>
      <point x="387" y="105"/>
      <point x="367" y="100"/>
      <point x="342" y="100" type="curve" smooth="yes"/>
      <point x="266" y="100"/>
      <point x="213" y="153"/>
      <point x="213" y="245" type="curve" smooth="yes"/>
      <point x="213" y="350"/>
      <point x="280" y="396"/>
      <point x="351" y="396" type="curve" smooth="yes"/>
      <point x="404" y="396"/>
      <point x="429" y="379"/>
      <point x="465" y="354" type="curve"/>
      <point x="531" y="442" type="line"/>
      <point x="484" y="480"/>
      <point x="432" y="508"/>
      <point x="341" y="508" type="curve" smooth="yes"/>
      <point x="199" y="508"/>
      <point x="64" y="414"/>
      <point x="64" y="245" type="curve" smooth="yes"/>
      <point x="64" y="70"/>
      <point x="191" y="-12"/>
    </contour>
    <contour>
      <point x="338" y="516" type="move" name="aboveLC"/>
    </contour>
    <contour>
      <point x="322" y="-20" type="move" name="belowLC"/>
    </contour>
  </outline>
</glyph>
<glyph name="gammalatin" format="1">
  <advance width="600"/>
  <unicode hex="0263"/>
  <outline>
    <contour>
      <point x="218" y="60" type="line"/>
      <point x="387" y="60" type="line"/>
      <point x="569" y="496" type="line"/>
      <point x="428" y="496" type="line"/>
      <point x="346" y="272" type="line"/>
      <point x="332" y="229"/>
      <point x="320" y="199"/>
      <point x="305" y="153" type="curve"/>
      <point x="301" y="153" type="line"/>
      <point x="287" y="199"/>
      <point x="275" y="229"/>
      <point x="261" y="272" type="curve"/>
      <point x="179" y="496" type="line"/>
      <point x="31" y="496" type="line"/>
    </contour>
    <contour>
      <point x="303" y="-211" type="curve" smooth="yes"/>
      <point x="401" y="-211"/>
      <point x="464" y="-153"/>
      <point x="464" y="-65" type="curve" smooth="yes"/>
      <point x="464" y="-5"/>
      <point x="427" y="37"/>
      <point x="374" y="131" type="curve"/>
      <point x="233" y="131" type="line"/>
      <point x="180" y="37"/>
      <point x="143" y="-5"/>
      <point x="143" y="-65" type="curve" smooth="yes"/>
      <point x="143" y="-153"/>
      <point x="206" y="-211"/>
    </contour>
    <contour>
      <point x="303" y="-119" type="curve" smooth="yes"/>
      <point x="279" y="-119"/>
      <point x="262" y="-99"/>
      <point x="262" y="-67" type="curve" smooth="yes"/>
      <point x="262" y="-43"/>
      <point x="276" y="-17"/>
      <point x="300" y="25" type="curve"/>
      <point x="305" y="25" type="line"/>
      <point x="331" y="-18"/>
      <point x="345" y="-42"/>
      <point x="345" y="-67" type="curve" smooth="yes"/>
      <point x="345" y="-99"/>
      <point x="329" y="-119"/>
    </contour>
    <contour>
      <point x="300" y="516" type="move" name="aboveLC"/>
    </contour>
    <contour>
      <point x="300" y="-220" type="move" name="belowLC"/>
    </contour>
  </outline>
</glyph>
<glyph name="henghook" format="1">
  <advance width="600"/>
  <unicode hex="0267"/>
  <outline>
    <contour>
      <point x="361" y="-187" type="curve" smooth="yes"/>
      <point x="497" y="-187"/>
      <point x="540" y="-95"/>
      <point x="540" y="15" type="curve"/>
      <point x="540" y="290" type="line" smooth="yes"/>
      <point x="540" y="415"/>
      <point x="490" y="492"/>
      <point x="379" y="492" type="curve" smooth="yes"/>
      <point x="304" y="492"/>
      <point x="251" y="456"/>
      <point x="214" y="418" type="curve"/>
      <point x="210" y="418" type="line"/>
      <point x="219" y="502" type="line"/>
      <point x="219" y="511" type="line"/>
      <point x="223" y="572"/>
      <point x="252" y="597"/>
      <point x="309" y="597" type="curve" smooth="yes"/>
      <point x="329" y="597"/>
      <point x="352" y="591"/>
      <point x="374" y="583" type="curve"/>
      <point x="401" y="691" type="line"/>
      <point x="375" y="701"/>
      <point x="336" y="713"/>
      <point x="288" y="713" type="curve" smooth="yes"/>
      <point x="132" y="713"/>
      <point x="72" y="615"/>
      <point x="72" y="500" type="curve"/>
      <point x="72" y="0" type="line"/>
      <point x="219" y="0" type="line"/>
      <point x="219" y="315" type="line"/>
      <point x="254" y="348"/>
      <point x="280" y="366"/>
      <point x="320" y="366" type="curve" smooth="yes"/>
      <point x="374" y="366"/>
      <point x="393" y="337"/>
      <point x="393" y="271" type="curve" smooth="yes"/>
      <point x="393" y="10" type="line"/>
      <point x="393" y="-46"/>
      <point x="379" y="-71"/>
      <point x="338" y="-71" type="curve" smooth="yes"/>
      <point x="324" y="-71"/>
      <point x="312" y="-68"/>
      <point x="298" y="-64" type="curve"/>
      <point x="271" y="-173" type="line"/>
      <point x="292" y="-180"/>
      <point x="319" y="-187"/>
    </contour>
    <contour>
      <point x="285" y="732" type="move" name="aboveUC"/>
    </contour>
    <contour>
      <point x="324" y="-205" type="move" name="belowLC"/>
    </contour>
  </outline>
</glyph>
<glyph name="lezh" format="1">
  <advance width="600"/>
  <unicode hex="026E"/>
  <outline>
    <contour>
      <point x="41" y="0" type="line"/>
      <point x="188" y="0" type="line"/>
      <point x="188" y="701" type="line"/>
      <point x="41" y="701" type="line"/>
    </contour>
    <contour>
      <point x="369" y="-196" type="curve" smooth="yes"/>
      <point x="493" y="-196"/>
      <point x="599" y="-114"/>
      <point x="599" y="32" type="curve" smooth="yes"/>
      <point x="599" y="137"/>
      <point x="533" y="224"/>
      <point x="396" y="225" type="curve"/>
      <point x="408" y="198" type="line"/>
      <point x="576" y="418" type="line"/>
      <point x="576" y="496" type="line"/>
      <point x="184" y="496" type="line"/>
      <point x="184" y="381" type="line"/>
      <point x="400" y="381" type="line"/>
      <point x="247" y="181" type="line"/>
      <point x="296" y="110" type="line"/>
      <point x="318" y="119"/>
      <point x="328" y="122"/>
      <point x="356" y="122" type="curve" smooth="yes"/>
      <point x="413" y="122"/>
      <point x="452" y="88"/>
      <point x="452" y="29" type="curve" smooth="yes"/>
      <point x="452" y="-38"/>
      <point x="410" y="-77"/>
      <point x="352" y="-77" type="curve" smooth="yes"/>
      <point x="301" y="-77"/>
      <point x="261" y="-54"/>
      <point x="228" y="-24" type="curve"/>
      <point x="162" y="-115" type="line"/>
      <point x="208" y="-160"/>
      <point x="273" y="-196"/>
    </contour>
    <contour>
      <point x="114" y="732" type="move" name="aboveUC"/>
    </contour>
    <contour>
      <point x="366" y="-205" type="move" name="belowLC"/>
    </contour>
  </outline>
</glyph>
<glyph name="mturned" format="1">
  <advance width="600"/>
  <unicode hex="026F"/>
  <outline>
    <component base="m" xScale="-1.0" yScale="-1.0" xOffset="600" yOffset="496"/>
    <contour>
      <point x="298" y="519" type="move" name="aboveLC"/>
    </contour>
    <contour>
      <point x="298" y="-20" type="move" name="belowLC"/>
    </contour>
  </outline>
</glyph>
<glyph name="mlonglegturned" format="1">
  <advance width="600"/>
  <unicode hex="0270"/>
  <outline>
    <contour>
      <point x="426" y="-184" type="line"/>
      <point x="565" y="-184" type="line"/>
      <point x="565" y="496" type="line"/>
      <point x="425" y="496" type="line"/>
      <point x="425" y="161" type="line"/>
      <point x="412" y="129"/>
      <point x="400" y="113"/>
      <point x="381" y="113" type="curve" smooth="yes"/>
      <point x="362" y="113"/>
      <point x="353" y="128"/>
      <point x="353" y="158" type="curve" smooth="yes"/>
      <point x="353" y="496" type="line"/>
      <point x="238" y="496" type="line"/>
      <point x="238" y="161" type="line"/>
      <point x="224" y="129"/>
      <point x="211" y="113"/>
      <point x="193" y="113" type="curve" smooth="yes"/>
      <point x="173" y="113"/>
      <point x="166" y="128"/>
      <point x="166" y="158" type="curve" smooth="yes"/>
      <point x="166" y="496" type="line"/>
      <point x="26" y="496" type="line"/>
      <point x="26" y="148" type="line" smooth="yes"/>
      <point x="26" y="49"/>
      <point x="68" y="-12"/>
      <point x="137" y="-12" type="curve" smooth="yes"/>
      <point x="193" y="-12"/>
      <point x="228" y="24"/>
      <point x="246" y="69" type="curve"/>
      <point x="258" y="16"/>
      <point x="289" y="-12"/>
      <point x="332" y="-12" type="curve" smooth="yes"/>
      <point x="386" y="-12"/>
      <point x="413" y="22"/>
      <point x="432" y="63" type="curve"/>
      <point x="436" y="63" type="line"/>
      <point x="426" y="-34" type="line"/>
    </contour>
    <contour>
      <point x="300" y="516" type="move" name="aboveLC"/>
    </contour>
    <contour>
      <point x="492" y="-220" type="move" name="belowLC"/>
    </contour>
  </outline>
</glyph>
<glyph name="nretroflex" format="1">
  <advance width="600"/>
  <unicode hex="0273"/>
  <outline>
    <contour>
      <point x="550" y="-187" type="curve" smooth="yes"/>
      <point x="586" y="-187"/>
      <point x="609" y="-181"/>
      <point x="628" y="-173" type="curve"/>
      <point x="601" y="-65" type="line"/>
      <point x="591" y="-69"/>
      <point x="583" y="-71"/>
      <point x="573" y="-71" type="curve" smooth="yes"/>
      <point x="541" y="-71"/>
      <point x="530" y="-50"/>
      <point x="530" y="-1" type="curve"/>
      <point x="530" y="306" type="line" smooth="yes"/>
      <point x="530" y="431"/>
      <point x="482" y="508"/>
      <point x="371" y="508" type="curve" smooth="yes"/>
      <point x="301" y="508"/>
      <point x="250" y="472"/>
      <point x="207" y="430" type="curve"/>
      <point x="203" y="430" type="line"/>
      <point x="192" y="496" type="line"/>
      <point x="72" y="496" type="line"/>
      <point x="72" y="0" type="line"/>
      <point x="219" y="0" type="line"/>
      <point x="219" y="331" type="line"/>
      <point x="254" y="365"/>
      <point x="277" y="383"/>
      <point x="316" y="383" type="curve" smooth="yes"/>
      <point x="362" y="383"/>
      <point x="383" y="360"/>
      <point x="383" y="287" type="curve" smooth="yes"/>
      <point x="383" y="4" type="line" smooth="yes"/>
      <point x="383" y="-100"/>
      <point x="422" y="-187"/>
    </contour>
    <contour>
      <point x="328" y="516" type="move" name="aboveLC"/>
    </contour>
    <contour>
      <point x="343" y="-205" type="move" name="belowLC"/>
    </contour>
  </outline>
</glyph>
<glyph name="nsmall" format="1">
  <advance width="600"/>
  <unicode hex="0274"/>
  <outline>
    <contour>
      <point x="74" y="0" type="line"/>
      <point x="212" y="0" type="line"/>
      <point x="212" y="138" type="line" smooth="yes"/>
      <point x="212" y="188"/>
      <point x="205" y="252"/>
      <point x="199" y="313" type="curve"/>
      <point x="203" y="313" type="line"/>
      <point x="218" y="283"/>
      <point x="241" y="237"/>
      <point x="258" y="209" type="curve" smooth="yes"/>
      <point x="390" y="0" type="line"/>
      <point x="526" y="0" type="line"/>
      <point x="526" y="496" type="line"/>
      <point x="388" y="496" type="line"/>
      <point x="388" y="358" type="line" smooth="yes"/>
      <point x="388" y="309"/>
      <point x="395" y="243"/>
      <point x="401" y="183" type="curve"/>
      <point x="397" y="183" type="line"/>
      <point x="382" y="213"/>
      <point x="360" y="259"/>
      <point x="342" y="287" type="curve" smooth="yes"/>
      <point x="210" y="496" type="line"/>
      <point x="74" y="496" type="line"/>
    </contour>
    <contour>
      <point x="307" y="516" type="move" name="aboveLC"/>
    </contour>
    <contour>
      <point x="305" y="-20" type="move" name="belowLC"/>
    </contour>
  </outline>
</glyph>
<glyph name="oesmall" format="1">
  <advance width="600"/>
  <unicode hex="0276"/>
  <outline>
    <contour>
      <point x="241" y="-12" type="curve" smooth="yes"/>
      <point x="277" y="-12"/>
      <point x="305" y="-9"/>
      <point x="346" y="0" type="curve"/>
      <point x="593" y="0" type="line"/>
      <point x="593" y="116" type="line"/>
      <point x="425" y="116" type="line"/>
      <point x="425" y="204" type="line"/>
      <point x="553" y="204" type="line"/>
      <point x="553" y="303" type="line"/>
      <point x="425" y="303" type="line"/>
      <point x="425" y="380" type="line"/>
      <point x="583" y="380" type="line"/>
      <point x="583" y="496" type="line"/>
      <point x="346" y="496" type="line"/>
      <point x="301" y="505"/>
      <point x="277" y="508"/>
      <point x="241" y="508" type="curve" smooth="yes"/>
      <point x="129" y="508"/>
      <point x="19" y="422"/>
      <point x="19" y="247" type="curve" smooth="yes"/>
      <point x="19" y="70"/>
      <point x="129" y="-12"/>
    </contour>
    <contour>
      <point x="254" y="103" type="curve" smooth="yes"/>
      <point x="210" y="103"/>
      <point x="170" y="137"/>
      <point x="170" y="247" type="curve" smooth="yes"/>
      <point x="170" y="350"/>
      <point x="210" y="390"/>
      <point x="254" y="390" type="curve" smooth="yes"/>
      <point x="269" y="390"/>
      <point x="283" y="386"/>
      <point x="294" y="383" type="curve"/>
      <point x="294" y="111" type="line"/>
      <point x="281" y="106"/>
      <point x="267" y="103"/>
    </contour>
    <contour>
      <point x="358" y="516" type="move" name="aboveLC"/>
    </contour>
    <contour>
      <point x="350" y="-20" type="move" name="belowLC"/>
    </contour>
  </outline>
</glyph>
<glyph name="philatin" format="1">
  <advance width="600"/>
  <unicode hex="0278"/>
  <outline>
    <contour>
      <point x="254" y="-8" type="curve"/>
      <point x="246" y="102" type="line"/>
      <point x="190" y="103"/>
      <point x="154" y="153"/>
      <point x="154" y="248" type="curve" smooth="yes"/>
      <point x="154" y="343"/>
      <point x="190" y="393"/>
      <point x="246" y="394" type="curve"/>
      <point x="254" y="504" type="line"/>
      <point x="135" y="503"/>
      <point x="25" y="413"/>
      <point x="25" y="248" type="curve" smooth="yes"/>
      <point x="25" y="83"/>
      <point x="135" y="-7"/>
    </contour>
    <contour>
      <point x="346" y="-8" type="line"/>
      <point x="465" y="-7"/>
      <point x="575" y="83"/>
      <point x="575" y="248" type="curve" smooth="yes"/>
      <point x="575" y="413"/>
      <point x="465" y="503"/>
      <point x="346" y="504" type="curve"/>
      <point x="354" y="394" type="line"/>
      <point x="410" y="393"/>
      <point x="446" y="343"/>
      <point x="446" y="248" type="curve" smooth="yes"/>
      <point x="446" y="153"/>
      <point x="410" y="103"/>
      <point x="354" y="102" type="curve"/>
    </contour>
    <contour>
      <point x="238" y="-185" type="line"/>
      <point x="362" y="-184" type="line"/>
      <point x="362" y="700" type="line"/>
      <point x="238" y="700" type="line"/>
    </contour>
    <contour>
      <point x="300" y="732" type="move" name="aboveUC"/>
    </contour>
    <contour>
      <point x="300" y="-205" type="move" name="belowLC"/>
    </contour>
  </outline>
</glyph>
<glyph name="rturned" format="1">
	<unicode hex="0279"/>
	<advance width="600"/>
	<outline>
		<component base="r" xScale="-1" yScale="-1" xOffset="600" yOffset="496"/>
		<contour>
			<point name="aboveLC" x="410" y="516" type="move"/>
		</contour>
		<contour>
			<point name="belowLC" x="285" y="-20" type="move"/>
		</contour>
	</outline>
</glyph>
<glyph name="rfishhook" format="1">
  <advance width="600"/>
  <unicode hex="027E"/>
  <outline>
    <contour>
      <point x="116" y="0" type="line"/>
      <point x="263" y="0" type="line"/>
      <point x="263" y="225" type="line" smooth="yes"/>
      <point x="263" y="342"/>
      <point x="342" y="381"/>
      <point x="404" y="381" type="curve" smooth="yes"/>
      <point x="451" y="381"/>
      <point x="470" y="378"/>
      <point x="518" y="365" type="curve"/>
      <point x="548" y="488" type="line"/>
      <point x="510" y="500"/>
      <point x="454" y="508"/>
      <point x="383" y="508" type="curve" smooth="yes"/>
      <point x="197" y="508"/>
      <point x="116" y="398"/>
      <point x="116" y="257" type="curve" smooth="yes"/>
    </contour>
    <contour>
      <point x="352" y="516" type="move" name="aboveLC"/>
    </contour>
    <contour>
      <point x="193" y="-20" type="move" name="belowLC"/>
    </contour>
  </outline>
</glyph>
<glyph name="rsmall" format="1">
  <advance width="600"/>
  <unicode hex="0280"/>
  <outline>
    <contour>
      <point x="74" y="0" type="line"/>
      <point x="221" y="0" type="line"/>
      <point x="221" y="161" type="line"/>
      <point x="325" y="161" type="line"/>
      <point x="420" y="161"/>
      <point x="531" y="208"/>
      <point x="531" y="332" type="curve" smooth="yes"/>
      <point x="531" y="455"/>
      <point x="440" y="496"/>
      <point x="326" y="496" type="curve" smooth="yes"/>
      <point x="74" y="496" type="line"/>
    </contour>
    <contour>
      <point x="221" y="261" type="line"/>
      <point x="221" y="388" type="line"/>
      <point x="307" y="388" type="line" smooth="yes"/>
      <point x="360" y="388"/>
      <point x="386" y="369"/>
      <point x="386" y="328" type="curve" smooth="yes"/>
      <point x="386" y="288"/>
      <point x="360" y="261"/>
      <point x="307" y="261" type="curve" smooth="yes"/>
    </contour>
    <contour>
      <point x="401" y="0" type="line"/>
      <point x="566" y="0" type="line"/>
      <point x="392" y="240" type="line"/>
      <point x="266" y="200" type="line"/>
    </contour>
    <contour>
      <point x="312" y="516" type="move" name="aboveLC"/>
    </contour>
    <contour>
      <point x="312" y="-20" type="move" name="belowLC"/>
    </contour>
  </outline>
</glyph>
<glyph name="shook" format="1">
  <advance width="600"/>
  <unicode hex="0282"/>
  <outline>
    <contour>
      <point x="214" y="-187" type="curve" smooth="yes"/>
      <point x="255" y="-187"/>
      <point x="281" y="-181"/>
      <point x="301" y="-173" type="curve"/>
      <point x="275" y="-68" type="line"/>
      <point x="262" y="-72"/>
      <point x="250" y="-75"/>
      <point x="236" y="-75" type="curve" smooth="yes"/>
      <point x="197" y="-75"/>
      <point x="182" y="-53"/>
      <point x="182" y="-13" type="curve"/>
      <point x="182" y="46" type="line"/>
      <point x="53" y="64" type="line"/>
      <point x="53" y="13" type="line" smooth="yes"/>
      <point x="53" y="-112"/>
      <point x="97" y="-187"/>
    </contour>
    <component base="s"/>
    <contour>
      <point x="312" y="516" type="move" name="aboveLC"/>
    </contour>
    <contour>
      <point x="310" y="-205" type="move" name="belowLC"/>
    </contour>
  </outline>
</glyph>
<glyph name="esh" format="1">
  <advance width="600"/>
  <unicode hex="0283"/>
  <outline>
    <contour>
      <point x="185" y="-196" type="curve" smooth="yes"/>
      <point x="332" y="-196"/>
      <point x="375" y="-103"/>
      <point x="375" y="11" type="curve" smooth="yes"/>
      <point x="375" y="511" type="line" smooth="yes"/>
      <point x="375" y="570"/>
      <point x="395" y="598"/>
      <point x="452" y="598" type="curve" smooth="yes"/>
      <point x="476" y="598"/>
      <point x="497" y="591"/>
      <point x="524" y="579" type="curve"/>
      <point x="561" y="684" type="line"/>
      <point x="527" y="698"/>
      <point x="490" y="713"/>
      <point x="429" y="713" type="curve" smooth="yes"/>
      <point x="276" y="713"/>
      <point x="228" y="620"/>
      <point x="228" y="506" type="curve" smooth="yes"/>
      <point x="228" y="6" type="line"/>
      <point x="228" y="-53"/>
      <point x="212" y="-81"/>
      <point x="162" y="-81" type="curve" smooth="yes"/>
      <point x="136" y="-81"/>
      <point x="112" y="-73"/>
      <point x="85" y="-61" type="curve"/>
      <point x="43" y="-163" type="line"/>
      <point x="80" y="-181"/>
      <point x="119" y="-196"/>
    </contour>
    <contour>
      <point x="389" y="732" type="move" name="aboveUC"/>
    </contour>
    <contour>
      <point x="227" y="-205" type="move" name="belowLC"/>
    </contour>
  </outline>
</glyph>
<glyph name="yturned" format="1">
	<unicode hex="028E"/>
	<advance width="600"/>
	<outline>
		<contour>
			<point x="29" y="0" type="line"/>
			<point x="168" y="0" type="line"/>
			<point x="241" y="213" type="line" smooth="yes"/>
			<point x="256" y="262"/>
			<point x="273" y="313"/>
			<point x="286" y="362" type="curve"/>
			<point x="290" y="362" type="line"/>
			<point x="306" y="310"/>
			<point x="322" y="260"/>
			<point x="340" y="213" type="curve" smooth="yes"/>
			<point x="423" y="0" type="line"/>
			<point x="569" y="0" type="line"/>
			<point x="354" y="483" type="line"/>
			<point x="372" y="528" type="line"/>
			<point x="388" y="567"/>
			<point x="417" y="597"/>
			<point x="471" y="597" type="curve" smooth="yes"/>
			<point x="484" y="597"/>
			<point x="495" y="595"/>
			<point x="508" y="591" type="curve"/>
			<point x="535" y="703" type="line"/>
			<point x="513" y="709"/>
			<point x="489" y="713"/>
			<point x="460" y="713" type="curve" smooth="yes"/>
			<point x="338" y="713"/>
			<point x="281" y="645"/>
			<point x="233" y="521" type="curve" smooth="yes"/>
		</contour>
		<contour>
			<point name="aboveUC" x="356" y="732" type="move"/>
		</contour>
		<contour>
			<point name="belowLC" x="302" y="-20" type="move"/>
		</contour>
	</outline>
</glyph>
<glyph name="ysmall" format="1">
  <advance width="600"/>
  <unicode hex="028F"/>
  <outline>
    <contour>
      <point x="228" y="0" type="line"/>
      <point x="375" y="0" type="line"/>
      <point x="375" y="150" type="line"/>
      <point x="569" y="496" type="line"/>
      <point x="416" y="496" type="line"/>
      <point x="364" y="389" type="line"/>
      <point x="341" y="342"/>
      <point x="324" y="302"/>
      <point x="304" y="253" type="curve"/>
      <point x="300" y="253" type="line"/>
      <point x="280" y="303"/>
      <point x="261" y="342"/>
      <point x="242" y="389" type="curve"/>
      <point x="188" y="496" type="line"/>
      <point x="33" y="496" type="line"/>
      <point x="228" y="150" type="line"/>
    </contour>
    <contour>
      <point x="300" y="516" type="move" name="aboveLC"/>
    </contour>
    <contour>
      <point x="300" y="-20" type="move" name="belowLC"/>
    </contour>
  </outline>
</glyph>
<glyph name="zcurl" format="1">
  <advance width="600"/>
  <unicode hex="0291"/>
  <outline>
    <contour>
      <point x="359" y="-113" type="line"/>
      <point x="394" y="101"/>
      <point x="442" y="175"/>
      <point x="480" y="175" type="curve" smooth="yes"/>
      <point x="498" y="175"/>
      <point x="508" y="166"/>
      <point x="508" y="149" type="curve" smooth="yes"/>
      <point x="508" y="127"/>
      <point x="490" y="107"/>
      <point x="451" y="107" type="curve" smooth="yes"/>
      <point x="385" y="107"/>
      <point x="324" y="111"/>
      <point x="255" y="115" type="curve"/>
      <point x="492" y="417" type="line"/>
      <point x="492" y="496" type="line"/>
      <point x="101" y="496" type="line"/>
      <point x="101" y="381" type="line"/>
      <point x="309" y="381" type="line"/>
      <point x="70" y="79" type="line"/>
      <point x="70" y="0" type="line"/>
      <point x="412" y="0" type="line" smooth="yes"/>
      <point x="534" y="0"/>
      <point x="589" y="66"/>
      <point x="589" y="146" type="curve" smooth="yes"/>
      <point x="589" y="218"/>
      <point x="547" y="255"/>
      <point x="482" y="255" type="curve" smooth="yes"/>
      <point x="388" y="255"/>
      <point x="323" y="117"/>
      <point x="285" y="-99" type="curve"/>
    </contour>
    <contour>
      <point x="303" y="516" type="move" name="aboveLC"/>
    </contour>
  </outline>
</glyph>
<glyph name="glottalstop" format="1">
  <advance width="600"/>
  <unicode hex="0294"/>
  <outline>
    <contour>
      <point x="205" y="0" type="line"/>
      <point x="352" y="0" type="line"/>
      <point x="352" y="258" type="line"/>
      <point x="458" y="335"/>
      <point x="527" y="393"/>
      <point x="527" y="502" type="curve" smooth="yes"/>
      <point x="527" y="643"/>
      <point x="411" y="713"/>
      <point x="275" y="713" type="curve" smooth="yes"/>
      <point x="172" y="713"/>
      <point x="98" y="669"/>
      <point x="50" y="617" type="curve"/>
      <point x="123" y="524" type="line"/>
      <point x="155" y="562"/>
      <point x="203" y="594"/>
      <point x="259" y="594" type="curve" smooth="yes"/>
      <point x="333" y="594"/>
      <point x="380" y="559"/>
      <point x="380" y="496" type="curve" smooth="yes"/>
      <point x="380" y="431"/>
      <point x="337" y="393"/>
      <point x="205" y="313" type="curve"/>
    </contour>
    <contour>
      <point x="300" y="732" type="move" name="aboveUC"/>
    </contour>
    <contour>
      <point x="278" y="-20" type="move" name="belowLC"/>
    </contour>
  </outline>
</glyph>
<glyph name="glottalstopreversed" format="1">
  <advance width="600"/>
  <unicode hex="0295"/>
  <outline>
    <contour>
      <point x="245" y="0" type="line"/>
      <point x="392" y="0" type="line"/>
      <point x="392" y="313" type="line"/>
      <point x="259" y="393"/>
      <point x="217" y="431"/>
      <point x="217" y="496" type="curve" smooth="yes"/>
      <point x="217" y="559"/>
      <point x="264" y="594"/>
      <point x="338" y="594" type="curve" smooth="yes"/>
      <point x="393" y="594"/>
      <point x="442" y="562"/>
      <point x="474" y="524" type="curve"/>
      <point x="547" y="617" type="line"/>
      <point x="498" y="669"/>
      <point x="424" y="713"/>
      <point x="322" y="713" type="curve" smooth="yes"/>
      <point x="186" y="713"/>
      <point x="69" y="643"/>
      <point x="69" y="502" type="curve" smooth="yes"/>
      <point x="69" y="393"/>
      <point x="139" y="334"/>
      <point x="245" y="258" type="curve"/>
    </contour>
    <contour>
      <point x="302" y="732" type="move" name="aboveUC"/>
    </contour>
    <contour>
      <point x="320" y="-20" type="move" name="belowLC"/>
    </contour>
  </outline>
</glyph>
<glyph name="glottalstopstrokereversed" format="1">
  <advance width="600"/>
  <unicode hex="02A2"/>
  <outline>
    <contour>
      <point x="245" y="0" type="line"/>
      <point x="392" y="0" type="line"/>
      <point x="392" y="239" type="line"/>
      <point x="543" y="239" type="line"/>
      <point x="543" y="314" type="line"/>
      <point x="374" y="314" type="line"/>
      <point x="267" y="378"/>
      <point x="217" y="440"/>
      <point x="217" y="496" type="curve" smooth="yes"/>
      <point x="217" y="559"/>
      <point x="261" y="594"/>
      <point x="330" y="594" type="curve" smooth="yes"/>
      <point x="389" y="594"/>
      <point x="439" y="562"/>
      <point x="474" y="524" type="curve"/>
      <point x="547" y="616" type="line"/>
      <point x="497" y="669"/>
      <point x="421" y="712"/>
      <point x="314" y="712" type="curve" smooth="yes"/>
      <point x="182" y="712"/>
      <point x="70" y="643"/>
      <point x="70" y="502" type="curve" smooth="yes"/>
      <point x="70" y="428"/>
      <point x="125" y="363"/>
      <point x="189" y="314" type="curve"/>
      <point x="133" y="314" type="line"/>
      <point x="57" y="308" type="line"/>
      <point x="57" y="239" type="line"/>
      <point x="245" y="239" type="line"/>
    </contour>
    <contour>
      <point x="302" y="732" type="move" name="aboveUC"/>
    </contour>
    <contour>
      <point x="320" y="-20" type="move" name="belowLC"/>
    </contour>
  </outline>
</glyph>
<glyph name="dezh" format="1">
  <advance width="600"/>
  <unicode hex="02A4"/>
  <outline>
    <contour>
      <point x="146" y="-12" type="curve" smooth="yes"/>
      <point x="182" y="-12"/>
      <point x="211" y="8"/>
      <point x="235" y="44" type="curve"/>
      <point x="239" y="44" type="line"/>
      <point x="251" y="0" type="line"/>
      <point x="340" y="0" type="line"/>
      <point x="340" y="700" type="line"/>
      <point x="225" y="700" type="line"/>
      <point x="225" y="553" type="line"/>
      <point x="231" y="462" type="line"/>
      <point x="229" y="462" type="line"/>
      <point x="208" y="492"/>
      <point x="178" y="508"/>
      <point x="147" y="508" type="curve" smooth="yes"/>
      <point x="60" y="508"/>
      <point x="-7" y="405"/>
      <point x="-7" y="248" type="curve" smooth="yes"/>
      <point x="-7" y="89"/>
      <point x="57" y="-12"/>
    </contour>
    <contour>
      <point x="181" y="108" type="curve" smooth="yes"/>
      <point x="144" y="108"/>
      <point x="121" y="155"/>
      <point x="121" y="249" type="curve" smooth="yes"/>
      <point x="121" y="342"/>
      <point x="146" y="388"/>
      <point x="181" y="388" type="curve" smooth="yes"/>
      <point x="198" y="388"/>
      <point x="213" y="376"/>
      <point x="225" y="355" type="curve"/>
      <point x="225" y="159" type="line"/>
      <point x="218" y="127"/>
      <point x="201" y="108"/>
    </contour>
    <contour>
      <point x="438" y="-196" type="curve" smooth="yes"/>
      <point x="551" y="-196"/>
      <point x="618" y="-100"/>
      <point x="618" y="27" type="curve" smooth="yes"/>
      <point x="618" y="146"/>
      <point x="556" y="231"/>
      <point x="453" y="224" type="curve"/>
      <point x="469" y="187" type="line"/>
      <point x="596" y="417" type="line"/>
      <point x="596" y="496" type="line"/>
      <point x="303" y="496" type="line"/>
      <point x="303" y="381" type="line"/>
      <point x="462" y="381" type="line"/>
      <point x="352" y="194" type="line"/>
      <point x="398" y="113" type="line"/>
      <point x="411" y="121"/>
      <point x="416" y="122"/>
      <point x="428" y="122" type="curve" smooth="yes"/>
      <point x="462" y="122"/>
      <point x="490" y="91"/>
      <point x="490" y="29" type="curve" smooth="yes"/>
      <point x="490" y="-47"/>
      <point x="460" y="-78"/>
      <point x="422" y="-78" type="curve" smooth="yes"/>
      <point x="397" y="-78"/>
      <point x="375" y="-67"/>
      <point x="355" y="-48" type="curve"/>
      <point x="298" y="-142" type="line"/>
      <point x="334" y="-176"/>
      <point x="377" y="-196"/>
    </contour>
    <contour>
      <point x="280" y="730" type="move" name="aboveUC"/>
    </contour>
    <contour>
      <point x="330" y="-205" type="move" name="belowLC"/>
    </contour>
  </outline>
</glyph>
<glyph name="tesh" format="1">
  <advance width="600"/>
  <unicode hex="02A7"/>
  <outline>
    <contour>
      <point x="240" y="-12" type="curve" smooth="yes"/>
      <point x="288" y="-12"/>
      <point x="321" y="-2"/>
      <point x="347" y="6" type="curve"/>
      <point x="324" y="113" type="line"/>
      <point x="308" y="106"/>
      <point x="292" y="103"/>
      <point x="272" y="103" type="curve" smooth="yes"/>
      <point x="242" y="103"/>
      <point x="221" y="126"/>
      <point x="221" y="182" type="curve" smooth="yes"/>
      <point x="221" y="381" type="line"/>
      <point x="438" y="381" type="line"/>
      <point x="438" y="496" type="line"/>
      <point x="221" y="496" type="line"/>
      <point x="221" y="628" type="line"/>
      <point x="99" y="628" type="line"/>
      <point x="82" y="496" type="line"/>
      <point x="6" y="490" type="line"/>
      <point x="6" y="381" type="line"/>
      <point x="74" y="381" type="line"/>
      <point x="74" y="180" type="line" smooth="yes"/>
      <point x="74" y="65"/>
      <point x="121" y="-12"/>
    </contour>
    <contour>
      <point x="370" y="-196" type="curve" smooth="yes"/>
      <point x="497" y="-196"/>
      <point x="542" y="-105"/>
      <point x="542" y="3" type="curve" smooth="yes"/>
      <point x="542" y="518" type="line" smooth="yes"/>
      <point x="542" y="573"/>
      <point x="555" y="598"/>
      <point x="596" y="598" type="curve" smooth="yes"/>
      <point x="607" y="598"/>
      <point x="615" y="595"/>
      <point x="625" y="591" type="curve"/>
      <point x="651" y="699" type="line"/>
      <point x="633" y="707"/>
      <point x="611" y="713"/>
      <point x="577" y="713" type="curve" smooth="yes"/>
      <point x="441" y="713"/>
      <point x="395" y="622"/>
      <point x="395" y="520" type="curve" smooth="yes"/>
      <point x="395" y="-1" type="line"/>
      <point x="395" y="-56"/>
      <point x="383" y="-81"/>
      <point x="350" y="-81" type="curve" smooth="yes"/>
      <point x="337" y="-81"/>
      <point x="325" y="-78"/>
      <point x="311" y="-74" type="curve"/>
      <point x="285" y="-182" type="line"/>
      <point x="304" y="-190"/>
      <point x="330" y="-196"/>
    </contour>
    <contour>
      <point x="266" y="730" type="move" name="aboveUC"/>
    </contour>
    <contour>
      <point x="331" y="-205" type="move" name="belowLC"/>
    </contour>
  </outline>
</glyph>
<glyph name="ringhalfrightmod" format="1">
  <advance width="600"/>
  <unicode hex="02BE"/>
  <outline>
    <contour>
      <point x="222" y="538" type="line"/>
      <point x="365" y="534"/>
      <point x="421" y="595"/>
      <point x="421" y="685" type="curve" smooth="yes"/>
      <point x="421" y="775"/>
      <point x="365" y="836"/>
      <point x="222" y="832" type="curve"/>
      <point x="222" y="753" type="line"/>
      <point x="286" y="753"/>
      <point x="315" y="729"/>
      <point x="315" y="685" type="curve" smooth="yes"/>
      <point x="315" y="641"/>
      <point x="286" y="617"/>
      <point x="222" y="617" type="curve"/>
    </contour>
  </outline>
</glyph>
<glyph name="circumflexcmb" format="1">
  <advance width="600"/>
  <unicode hex="0302"/>
  <outline>
    <contour>
      <point x="173" y="561" type="line"/>
      <point x="298" y="653" type="line"/>
      <point x="302" y="653" type="line"/>
      <point x="427" y="561" type="line"/>
      <point x="483" y="613" type="line"/>
      <point x="375" y="744" type="line"/>
      <point x="225" y="744" type="line"/>
      <point x="117" y="613" type="line"/>
    </contour>
    <contour>
      <point x="300" y="516" type="move" name="_aboveLC"/>
    </contour>
    <contour>
      <point x="300" y="738" type="move" name="aboveLC"/>
    </contour>
  </outline>
</glyph>
<glyph name="tildecmb" format="1">
  <advance width="600"/>
  <unicode hex="0303"/>
  <outline>
    <contour>
      <point x="366" y="573" type="curve" smooth="yes"/>
      <point x="443" y="573"/>
      <point x="487" y="622"/>
      <point x="490" y="725" type="curve"/>
      <point x="398" y="730" type="line"/>
      <point x="394" y="692"/>
      <point x="383" y="675"/>
      <point x="363" y="675" type="curve" smooth="yes"/>
      <point x="332" y="675"/>
      <point x="297" y="739"/>
      <point x="234" y="739" type="curve" smooth="yes"/>
      <point x="157" y="739"/>
      <point x="113" y="690"/>
      <point x="110" y="587" type="curve"/>
      <point x="202" y="582" type="line"/>
      <point x="206" y="621"/>
      <point x="217" y="637"/>
      <point x="237" y="637" type="curve" smooth="yes"/>
      <point x="268" y="637"/>
      <point x="303" y="573"/>
    </contour>
    <contour>
      <point x="300" y="516" type="move" name="_aboveLC"/>
    </contour>
    <contour>
      <point x="300" y="698" type="move" name="aboveLC"/>
    </contour>
  </outline>
</glyph>
<glyph name="macroncmb" format="1">
	<unicode hex="0304"/>
	<advance width="600"/>
	<outline>
		<contour>
			<point x="152" y="592" type="line"/>
			<point x="448" y="592" type="line"/>
			<point x="448" y="685" type="line"/>
			<point x="152" y="685" type="line"/>
		</contour>
		<contour>
			<point name="_aboveLC" x="300" y="516" type="move"/>
		</contour>
		<contour>
			<point name="aboveLC" x="300" y="665" type="move"/>
		</contour>
	</outline>
</glyph>
<glyph name="dotaccentcmb" format="1">
  <advance width="600"/>
  <unicode hex="0307"/>
  <outline>
    <contour>
      <point x="300" y="574" type="curve" smooth="yes"/>
      <point x="357" y="574"/>
      <point x="398" y="609"/>
      <point x="398" y="663" type="curve" smooth="yes"/>
      <point x="398" y="717"/>
      <point x="357" y="755"/>
      <point x="300" y="755" type="curve" smooth="yes"/>
      <point x="243" y="755"/>
      <point x="202" y="717"/>
      <point x="202" y="663" type="curve" smooth="yes"/>
      <point x="202" y="609"/>
      <point x="243" y="574"/>
    </contour>
    <contour>
      <point x="300" y="516" type="move" name="_aboveLC"/>
    </contour>
    <contour>
      <point x="300" y="753" type="move" name="aboveLC"/>
    </contour>
  </outline>
</glyph>
<glyph name="dieresiscmb" format="1">
  <advance width="600"/>
  <unicode hex="0308"/>
  <outline>
    <contour>
      <point x="189" y="571" type="curve" smooth="yes"/>
      <point x="236" y="571"/>
      <point x="269" y="606"/>
      <point x="269" y="651" type="curve" smooth="yes"/>
      <point x="269" y="697"/>
      <point x="236" y="732"/>
      <point x="189" y="732" type="curve" smooth="yes"/>
      <point x="142" y="732"/>
      <point x="109" y="697"/>
      <point x="109" y="651" type="curve" smooth="yes"/>
      <point x="109" y="606"/>
      <point x="142" y="571"/>
    </contour>
    <contour>
      <point x="411" y="571" type="curve" smooth="yes"/>
      <point x="458" y="571"/>
      <point x="491" y="606"/>
      <point x="491" y="651" type="curve" smooth="yes"/>
      <point x="491" y="697"/>
      <point x="458" y="732"/>
      <point x="411" y="732" type="curve" smooth="yes"/>
      <point x="364" y="732"/>
      <point x="331" y="697"/>
      <point x="331" y="651" type="curve" smooth="yes"/>
      <point x="331" y="606"/>
      <point x="364" y="571"/>
    </contour>
    <contour>
      <point x="300" y="516" type="move" name="_aboveLC"/>
    </contour>
    <contour>
      <point x="300" y="547" type="move" name="aboveLC"/>
    </contour>
  </outline>
</glyph>
<glyph name="candrabinducmb" format="1">
  <advance width="600"/>
  <unicode hex="0310"/>
  <outline>
    <contour>
      <point x="300" y="572" type="curve" smooth="yes"/>
      <point x="418" y="572"/>
      <point x="476" y="641"/>
      <point x="481" y="729" type="curve"/>
      <point x="405" y="743" type="line"/>
      <point x="398" y="695"/>
      <point x="360" y="655"/>
      <point x="300" y="655" type="curve" smooth="yes"/>
      <point x="239" y="655"/>
      <point x="202" y="695"/>
      <point x="195" y="743" type="curve"/>
      <point x="119" y="729" type="line"/>
      <point x="124" y="641"/>
      <point x="182" y="572"/>
    </contour>
    <contour>
      <point x="300" y="702" type="curve" smooth="yes"/>
      <point x="343" y="702"/>
      <point x="376" y="731"/>
      <point x="376" y="775" type="curve" smooth="yes"/>
      <point x="376" y="819"/>
      <point x="343" y="850"/>
      <point x="300" y="850" type="curve" smooth="yes"/>
      <point x="257" y="850"/>
      <point x="224" y="819"/>
      <point x="224" y="775" type="curve" smooth="yes"/>
      <point x="224" y="731"/>
      <point x="257" y="702"/>
    </contour>
    <contour>
      <point x="300" y="516" type="move" name="_aboveLC"/>
    </contour>
  </outline>
</glyph>
<glyph name="commaturnedabovecmb" format="1">
  <advance width="600"/>
  <unicode hex="0312"/>
  <outline>
    <contour>
      <point x="310" y="562" type="curve" smooth="yes"/>
      <point x="347" y="562"/>
      <point x="376" y="586"/>
      <point x="376" y="626" type="curve" smooth="yes"/>
      <point x="376" y="667"/>
      <point x="346" y="689"/>
      <point x="313" y="689" type="curve" smooth="yes"/>
      <point x="299" y="689"/>
      <point x="286" y="679"/>
      <point x="274" y="669" type="curve"/>
      <point x="309" y="617" type="line"/>
      <point x="308" y="633"/>
      <point x="293" y="657"/>
      <point x="294" y="675" type="curve" smooth="yes"/>
      <point x="295" y="706"/>
      <point x="319" y="726"/>
      <point x="368" y="741" type="curve"/>
      <point x="346" y="789" type="line"/>
      <point x="266" y="767"/>
      <point x="227" y="718"/>
      <point x="227" y="657" type="curve" smooth="yes"/>
      <point x="227" y="597"/>
      <point x="260" y="562"/>
    </contour>
    <contour>
      <point x="300" y="516" type="move" name="_aboveLC"/>
    </contour>
  </outline>
</glyph>
<glyph name="horncmb" format="1">
  <advance width="600"/>
  <unicode hex="031B"/>
  <outline>
    <contour>
      <point x="301" y="427" type="line"/>
      <point x="395" y="434"/>
      <point x="480" y="480"/>
      <point x="480" y="586" type="curve" smooth="yes"/>
      <point x="480" y="624"/>
      <point x="465" y="659"/>
      <point x="450" y="680" type="curve"/>
      <point x="341" y="633" type="line"/>
      <point x="349" y="618"/>
      <point x="357" y="599"/>
      <point x="357" y="576" type="curve" smooth="yes"/>
      <point x="357" y="517"/>
      <point x="330" y="494"/>
      <point x="290" y="486" type="curve"/>
    </contour>
    <contour>
      <point x="300" y="496" type="move" name="_hornLC"/>
    </contour>
  </outline>
</glyph>
<glyph name="uptackbelowcmb" format="1">
	<unicode hex="031D"/>
	<advance width="600"/>
	<outline>
		<contour>
			<point x="173" y="-229" type="line"/>
			<point x="427" y="-229" type="line"/>
			<point x="427" y="-158" type="line"/>
			<point x="342" y="-158" type="line"/>
			<point x="342" y="-54" type="line"/>
			<point x="258" y="-54" type="line"/>
			<point x="258" y="-158" type="line"/>
			<point x="173" y="-158" type="line"/>
		</contour>
		<contour>
			<point name="_belowLC" x="300" y="-20" type="move"/>
		</contour>
	</outline>
</glyph>
<glyph name="downtackbelowcmb" format="1">
  <advance width="600"/>
  <unicode hex="031E"/>
  <outline>
    <contour>
      <point x="258" y="-257" type="line"/>
      <point x="342" y="-257" type="line"/>
      <point x="342" y="-152" type="line"/>
      <point x="427" y="-152" type="line"/>
      <point x="427" y="-82" type="line"/>
      <point x="173" y="-82" type="line"/>
      <point x="173" y="-152" type="line"/>
      <point x="258" y="-152" type="line"/>
    </contour>
    <contour>
      <point x="300" y="-20" type="move" name="_belowLC"/>
    </contour>
  </outline>
</glyph>
<glyph name="plusbelowcmb" format="1">
	<unicode hex="031F"/>
	<advance width="600"/>
	<outline>
		<contour>
			<point x="258" y="-257" type="line"/>
			<point x="342" y="-257" type="line"/>
			<point x="342" y="-191" type="line"/>
			<point x="427" y="-191" type="line"/>
			<point x="427" y="-120" type="line"/>
			<point x="342" y="-120" type="line"/>
			<point x="342" y="-54" type="line"/>
			<point x="258" y="-54" type="line"/>
			<point x="258" y="-120" type="line"/>
			<point x="173" y="-120" type="line"/>
			<point x="173" y="-191" type="line"/>
			<point x="258" y="-191" type="line"/>
		</contour>
		<contour>
			<point name="_belowLC" x="300" y="-20" type="move"/>
		</contour>
	</outline>
</glyph>
<glyph name="commabelowcmb" format="1">
  <advance width="600"/>
  <unicode hex="0326"/>
  <outline>
    <contour>
      <point x="198" y="-239" type="line"/>
      <point x="323" y="-235"/>
      <point x="395" y="-204"/>
      <point x="395" y="-136" type="curve" smooth="yes"/>
      <point x="395" y="-87"/>
      <point x="361" y="-61"/>
      <point x="254" y="-52" type="curve"/>
      <point x="226" y="-106" type="line"/>
      <point x="271" y="-110"/>
      <point x="290" y="-122"/>
      <point x="290" y="-141" type="curve" smooth="yes"/>
      <point x="290" y="-164"/>
      <point x="265" y="-176"/>
      <point x="187" y="-180" type="curve"/>
    </contour>
    <contour>
      <point x="300" y="-20" type="move" name="_belowLC"/>
    </contour>
  </outline>
</glyph>
<glyph name="verticallinebelowcmb" format="1">
  <advance width="600"/>
  <unicode hex="0329"/>
  <outline>
    <contour>
      <point x="241" y="-269" type="line"/>
      <point x="359" y="-269" type="line"/>
      <point x="353" y="-64" type="line"/>
      <point x="247" y="-64" type="line"/>
    </contour>
    <contour>
      <point x="300" y="-20" type="move" name="_belowLC"/>
    </contour>
  </outline>
</glyph>
<glyph name="ringhalfrightbelowcmb" format="1">
	<unicode hex="0339"/>
	<advance width="600"/>
	<outline>
		<contour>
			<point x="232" y="-258" type="line"/>
			<point x="352" y="-261"/>
			<point x="398" y="-219"/>
			<point x="398" y="-156" type="curve" smooth="yes"/>
			<point x="398" y="-93"/>
			<point x="352" y="-51"/>
			<point x="232" y="-55" type="curve"/>
			<point x="232" y="-109" type="line"/>
			<point x="280" y="-109"/>
			<point x="300" y="-128"/>
			<point x="300" y="-156" type="curve" smooth="yes"/>
			<point x="300" y="-184"/>
			<point x="280" y="-203"/>
			<point x="232" y="-203" type="curve"/>
		</contour>
		<contour>
			<point name="_belowLC" x="300" y="-20" type="move"/>
		</contour>
	</outline>
</glyph>
<glyph name="iotasubscriptcmb" format="1">
  <advance width="600"/>
  <unicode hex="0345"/>
  <outline>
    <contour>
      <point x="354" y="-216" type="curve" smooth="yes"/>
      <point x="382" y="-216"/>
      <point x="401" y="-212"/>
      <point x="415" y="-205" type="curve"/>
      <point x="401" y="-126" type="line"/>
      <point x="392" y="-128"/>
      <point x="389" y="-128"/>
      <point x="384" y="-128" type="curve" smooth="yes"/>
      <point x="363" y="-128"/>
      <point x="347" y="-121"/>
      <point x="347" y="-95" type="curve" smooth="yes"/>
      <point x="347" y="-86"/>
      <point x="347" y="-70"/>
      <point x="349" y="-55" type="curve"/>
      <point x="243" y="-55" type="line"/>
      <point x="243" y="-89" type="line" smooth="yes"/>
      <point x="243" y="-167"/>
      <point x="272" y="-216"/>
    </contour>
    <contour>
      <point x="300" y="-20" type="move" name="_belowLC"/>
    </contour>
  </outline>
</glyph>
<glyph name="macrondoublebelowcmb" format="1">
	<unicode hex="035F"/>
	<advance width="600"/>
	<outline>
		<contour>
			<point x="-208" y="-189" type="line"/>
			<point x="808" y="-189" type="line"/>
			<point x="808" y="-95" type="line"/>
			<point x="-208" y="-95" type="line"/>
		</contour>
	</outline>
</glyph>
<glyph name="lownumeralsign" format="1">
  <advance width="600"/>
  <unicode hex="0375"/>
  <outline>
    <contour>
      <point x="202" y="0" type="line"/>
      <point x="349" y="0" type="line"/>
      <point x="368" y="298" type="line"/>
      <point x="272" y="298" type="line"/>
      <point x="225" y="127" type="line"/>
    </contour>
  </outline>
</glyph>
<glyph name="tonos" format="1">
  <advance width="600"/>
  <unicode hex="0384"/>
  <outline>
    <component base="tonoscmb"/>
    <contour>
      <point x="300" y="516" type="move" name="_aboveLC"/>
    </contour>
  </outline>
</glyph>
<glyph name="Alphatonos" format="1">
  <advance width="600"/>
  <unicode hex="0386"/>
  <outline>
    <contour>
      <point x="58" y="0" type="line"/>
      <point x="209" y="0" type="line"/>
      <point x="280" y="330" type="line" smooth="yes"/>
      <point x="294" y="395"/>
      <point x="304" y="448"/>
      <point x="319" y="524" type="curve"/>
      <point x="323" y="524" type="line"/>
      <point x="340" y="449"/>
      <point x="352" y="395"/>
      <point x="366" y="330" type="curve" smooth="yes"/>
      <point x="435" y="0" type="line"/>
      <point x="591" y="0" type="line"/>
      <point x="413" y="652" type="line"/>
      <point x="237" y="652" type="line"/>
    </contour>
    <contour>
      <point x="192" y="155" type="line"/>
      <point x="455" y="155" type="line"/>
      <point x="455" y="270" type="line"/>
      <point x="192" y="270" type="line"/>
    </contour>
    <component base="tonos.cap" xOffset="-208"/>
  </outline>
</glyph>
<glyph name="Iotatonos" format="1">
  <advance width="600"/>
  <unicode hex="038A"/>
  <outline>
    <contour>
      <point x="200" y="0" type="line"/>
      <point x="526" y="0" type="line"/>
      <point x="526" y="124" type="line"/>
      <point x="437" y="124" type="line"/>
      <point x="437" y="528" type="line"/>
      <point x="526" y="528" type="line"/>
      <point x="526" y="652" type="line"/>
      <point x="200" y="652" type="line"/>
      <point x="200" y="528" type="line"/>
      <point x="289" y="528" type="line"/>
      <point x="289" y="124" type="line"/>
      <point x="200" y="124" type="line"/>
    </contour>
    <component base="tonos.cap" xOffset="-212"/>
  </outline>
</glyph>
<glyph name="Upsilontonos" format="1">
  <advance width="600"/>
  <unicode hex="038E"/>
  <outline>
    <contour>
      <point x="348" y="0" type="line"/>
      <point x="478" y="0" type="line"/>
      <point x="478" y="220" type="line"/>
      <point x="624" y="652" type="line"/>
      <point x="495" y="652" type="line"/>
      <point x="454" y="495" type="line" smooth="yes"/>
      <point x="441" y="442"/>
      <point x="427" y="397"/>
      <point x="416" y="346" type="curve"/>
      <point x="412" y="346" type="line"/>
      <point x="400" y="397"/>
      <point x="388" y="441"/>
      <point x="376" y="495" type="curve" smooth="yes"/>
      <point x="336" y="652" type="line"/>
      <point x="202" y="652" type="line"/>
      <point x="348" y="220" type="line"/>
    </contour>
    <component base="tonos.cap" xOffset="-200"/>
  </outline>
</glyph>
<glyph name="Omegatonos" format="1">
  <advance width="600"/>
  <unicode hex="038F"/>
  <outline>
    <contour>
      <point x="130" y="0" type="line"/>
      <point x="329" y="0" type="line"/>
      <point x="329" y="106" type="line"/>
      <point x="295" y="191"/>
      <point x="283" y="246"/>
      <point x="283" y="345" type="curve" smooth="yes"/>
      <point x="283" y="474"/>
      <point x="309" y="537"/>
      <point x="354" y="537" type="curve" smooth="yes"/>
      <point x="399" y="537"/>
      <point x="424" y="474"/>
      <point x="424" y="345" type="curve" smooth="yes"/>
      <point x="424" y="246"/>
      <point x="412" y="191"/>
      <point x="378" y="106" type="curve"/>
      <point x="378" y="0" type="line"/>
      <point x="577" y="0" type="line"/>
      <point x="577" y="119" type="line"/>
      <point x="488" y="119" type="line"/>
      <point x="488" y="123" type="line"/>
      <point x="530" y="187"/>
      <point x="562" y="264"/>
      <point x="562" y="376" type="curve" smooth="yes"/>
      <point x="562" y="546"/>
      <point x="480" y="664"/>
      <point x="354" y="664" type="curve" smooth="yes"/>
      <point x="227" y="664"/>
      <point x="145" y="546"/>
      <point x="145" y="376" type="curve" smooth="yes"/>
      <point x="145" y="264"/>
      <point x="177" y="187"/>
      <point x="219" y="123" type="curve"/>
      <point x="219" y="119" type="line"/>
      <point x="130" y="119" type="line"/>
    </contour>
    <component base="tonos.cap" xOffset="-212"/>
  </outline>
</glyph>
<glyph name="Delta" format="1">
  <advance width="600"/>
  <unicode hex="0394"/>
  <outline>
    <contour>
      <point x="31" y="0" type="line"/>
      <point x="569" y="0" type="line"/>
      <point x="569" y="89" type="line"/>
      <point x="388" y="652" type="line"/>
      <point x="212" y="652" type="line"/>
      <point x="31" y="89" type="line"/>
    </contour>
    <contour>
      <point x="189" y="124" type="line"/>
      <point x="244" y="329" type="line"/>
      <point x="260" y="394"/>
      <point x="278" y="471"/>
      <point x="295" y="540" type="curve"/>
      <point x="299" y="540" type="line"/>
      <point x="315" y="471"/>
      <point x="334" y="394"/>
      <point x="351" y="329" type="curve" smooth="yes"/>
      <point x="408" y="124" type="line"/>
    </contour>
  </outline>
</glyph>
<glyph name="Eta" format="1">
  <advance width="600"/>
  <unicode hex="0397"/>
  <outline>
    <component base="H"/>
    <contour>
      <point x="300" y="672" type="move" name="aboveUC"/>
    </contour>
    <contour>
      <point x="300" y="-20" type="move" name="belowLC"/>
    </contour>
  </outline>
</glyph>
<glyph name="Lambda" format="1">
  <advance width="600"/>
  <unicode hex="039B"/>
  <outline>
    <contour>
      <point x="15" y="0" type="line"/>
      <point x="165" y="0" type="line"/>
      <point x="242" y="304" type="line" smooth="yes"/>
      <point x="261" y="375"/>
      <point x="275" y="441"/>
      <point x="295" y="513" type="curve"/>
      <point x="299" y="513" type="line"/>
      <point x="318" y="441"/>
      <point x="331" y="375"/>
      <point x="351" y="304" type="curve" smooth="yes"/>
      <point x="429" y="0" type="line"/>
      <point x="585" y="0" type="line"/>
      <point x="388" y="652" type="line"/>
      <point x="211" y="652" type="line"/>
    </contour>
  </outline>
</glyph>
<glyph name="Xi" format="1">
  <advance width="600"/>
  <unicode hex="039E"/>
  <outline>
    <contour>
      <point x="66" y="0" type="line"/>
      <point x="534" y="0" type="line"/>
      <point x="534" y="124" type="line"/>
      <point x="66" y="124" type="line"/>
    </contour>
    <contour>
      <point x="134" y="274" type="line"/>
      <point x="466" y="274" type="line"/>
      <point x="466" y="397" type="line"/>
      <point x="134" y="397" type="line"/>
    </contour>
    <contour>
      <point x="76" y="528" type="line"/>
      <point x="524" y="528" type="line"/>
      <point x="524" y="652" type="line"/>
      <point x="76" y="652" type="line"/>
    </contour>
  </outline>
</glyph>
<glyph name="Pi" format="1">
  <advance width="600"/>
  <unicode hex="03A0"/>
  <outline>
    <contour>
      <point x="64" y="0" type="line"/>
      <point x="211" y="0" type="line"/>
      <point x="211" y="528" type="line"/>
      <point x="389" y="528" type="line"/>
      <point x="389" y="0" type="line"/>
      <point x="536" y="0" type="line"/>
      <point x="536" y="652" type="line"/>
      <point x="64" y="652" type="line"/>
    </contour>
  </outline>
</glyph>
<glyph name="Upsilon" format="1">
  <advance width="600"/>
  <unicode hex="03A5"/>
  <outline>
    <component base="Y"/>
    <contour>
      <point x="300" y="672" type="move" name="aboveUC"/>
    </contour>
  </outline>
</glyph>
<glyph name="Phi" format="1">
  <advance width="600"/>
  <unicode hex="03A6"/>
  <outline>
    <contour>
      <point x="277" y="61" type="curve"/>
      <point x="323" y="61" type="line" smooth="yes"/>
      <point x="479" y="61"/>
      <point x="584" y="157"/>
      <point x="584" y="329" type="curve" smooth="yes"/>
      <point x="584" y="500"/>
      <point x="479" y="592"/>
      <point x="323" y="592" type="curve" smooth="yes"/>
      <point x="277" y="592" type="line" smooth="yes"/>
      <point x="121" y="592"/>
      <point x="16" y="500"/>
      <point x="16" y="329" type="curve" smooth="yes"/>
      <point x="16" y="157"/>
      <point x="121" y="61"/>
    </contour>
    <contour>
      <point x="268" y="172" type="line" smooth="yes"/>
      <point x="195" y="172"/>
      <point x="146" y="233"/>
      <point x="146" y="329" type="curve" smooth="yes"/>
      <point x="146" y="424"/>
      <point x="195" y="482"/>
      <point x="268" y="482" type="curve" smooth="yes"/>
      <point x="332" y="482" type="line" smooth="yes"/>
      <point x="405" y="482"/>
      <point x="454" y="424"/>
      <point x="454" y="329" type="curve" smooth="yes"/>
      <point x="454" y="233"/>
      <point x="405" y="172"/>
      <point x="332" y="172" type="curve" smooth="yes"/>
    </contour>
    <contour>
      <point x="242" y="-22" type="line"/>
      <point x="358" y="-22" type="line"/>
      <point x="358" y="674" type="line"/>
      <point x="242" y="674" type="line"/>
    </contour>
  </outline>
</glyph>
<glyph name="Psi" format="1">
  <advance width="600"/>
  <unicode hex="03A8"/>
  <outline>
    <contour>
      <point x="273" y="217" type="curve"/>
      <point x="327" y="217" type="line" smooth="yes"/>
      <point x="483" y="217"/>
      <point x="579" y="293"/>
      <point x="579" y="451" type="curve" smooth="yes"/>
      <point x="579" y="652" type="line"/>
      <point x="443" y="652" type="line"/>
      <point x="443" y="459" type="line" smooth="yes"/>
      <point x="443" y="372"/>
      <point x="406" y="333"/>
      <point x="335" y="333" type="curve" smooth="yes"/>
      <point x="265" y="333" type="line" smooth="yes"/>
      <point x="194" y="333"/>
      <point x="157" y="372"/>
      <point x="157" y="459" type="curve" smooth="yes"/>
      <point x="157" y="652" type="line"/>
      <point x="21" y="652" type="line"/>
      <point x="21" y="451" type="line" smooth="yes"/>
      <point x="21" y="293"/>
      <point x="117" y="217"/>
    </contour>
    <contour>
      <point x="238" y="0" type="line"/>
      <point x="362" y="0" type="line"/>
      <point x="362" y="652" type="line"/>
      <point x="238" y="652" type="line"/>
    </contour>
  </outline>
</glyph>
<glyph name="alpha" format="1">
  <advance width="600"/>
  <unicode hex="03B1"/>
  <outline>
    <contour>
      <point x="238" y="-12" type="curve" smooth="yes"/>
      <point x="294" y="-12"/>
      <point x="337" y="14"/>
      <point x="372" y="70" type="curve"/>
      <point x="375" y="70" type="line"/>
      <point x="393" y="10"/>
      <point x="434" y="-12"/>
      <point x="503" y="-12" type="curve" smooth="yes"/>
      <point x="543" y="-12"/>
      <point x="572" y="-4"/>
      <point x="590" y="5" type="curve"/>
      <point x="572" y="113" type="line"/>
      <point x="561" y="109"/>
      <point x="549" y="107"/>
      <point x="540" y="107" type="curve" smooth="yes"/>
      <point x="512" y="107"/>
      <point x="492" y="119"/>
      <point x="492" y="152" type="curve" smooth="yes"/>
      <point x="492" y="228"/>
      <point x="530" y="381"/>
      <point x="556" y="496" type="curve"/>
      <point x="411" y="496" type="line"/>
      <point x="395" y="409" type="line"/>
      <point x="392" y="409" type="line"/>
      <point x="358" y="483"/>
      <point x="307" y="508"/>
      <point x="250" y="508" type="curve" smooth="yes"/>
      <point x="143" y="508"/>
      <point x="42" y="410"/>
      <point x="42" y="246" type="curve" smooth="yes"/>
      <point x="42" y="84"/>
      <point x="120" y="-12"/>
    </contour>
    <contour>
      <point x="273" y="108" type="curve" smooth="yes"/>
      <point x="224" y="108"/>
      <point x="193" y="151"/>
      <point x="193" y="247" type="curve" smooth="yes"/>
      <point x="193" y="346"/>
      <point x="237" y="388"/>
      <point x="281" y="388" type="curve" smooth="yes"/>
      <point x="311" y="388"/>
      <point x="346" y="359"/>
      <point x="366" y="301" type="curve"/>
      <point x="360" y="215" type="line" smooth="yes"/>
      <point x="355" y="156"/>
      <point x="315" y="108"/>
    </contour>
    <contour>
      <point x="325" y="516" type="move" name="aboveLC"/>
    </contour>
    <contour>
      <point x="308" y="-20" type="move" name="belowLC"/>
    </contour>
  </outline>
</glyph>
<glyph name="beta" format="1">
  <advance width="600"/>
  <unicode hex="03B2"/>
  <outline>
    <contour>
      <point x="72" y="-177" type="line"/>
      <point x="221" y="-177" type="line"/>
      <point x="217" y="-101"/>
      <point x="214" y="-24"/>
      <point x="211" y="55" type="curve"/>
      <point x="258" y="4"/>
      <point x="312" y="-12"/>
      <point x="362" y="-12" type="curve" smooth="yes"/>
      <point x="457" y="-12"/>
      <point x="558" y="54"/>
      <point x="558" y="200" type="curve" smooth="yes"/>
      <point x="558" y="293"/>
      <point x="498" y="362"/>
      <point x="421" y="377" type="curve"/>
      <point x="421" y="381" type="line"/>
      <point x="477" y="416"/>
      <point x="506" y="464"/>
      <point x="506" y="531" type="curve" smooth="yes"/>
      <point x="506" y="656"/>
      <point x="400" y="713"/>
      <point x="291" y="713" type="curve" smooth="yes"/>
      <point x="141" y="713"/>
      <point x="72" y="609"/>
      <point x="72" y="474" type="curve" smooth="yes"/>
    </contour>
    <contour>
      <point x="319" y="108" type="curve" smooth="yes"/>
      <point x="285" y="108"/>
      <point x="246" y="121"/>
      <point x="209" y="169" type="curve"/>
      <point x="209" y="266"/>
      <point x="212" y="360"/>
      <point x="214" y="457" type="curve" smooth="yes"/>
      <point x="217" y="547"/>
      <point x="242" y="597"/>
      <point x="292" y="597" type="curve" smooth="yes"/>
      <point x="330" y="597"/>
      <point x="365" y="571"/>
      <point x="365" y="517" type="curve" smooth="yes"/>
      <point x="365" y="461"/>
      <point x="342" y="416"/>
      <point x="271" y="405" type="curve"/>
      <point x="289" y="298" type="line"/>
      <point x="301" y="302"/>
      <point x="314" y="304"/>
      <point x="329" y="304" type="curve" smooth="yes"/>
      <point x="385" y="304"/>
      <point x="414" y="261"/>
      <point x="414" y="209" type="curve" smooth="yes"/>
      <point x="414" y="141"/>
      <point x="371" y="108"/>
    </contour>
  </outline>
</glyph>
<glyph name="gamma" format="1">
  <advance width="600"/>
  <unicode hex="03B3"/>
  <outline>
    <contour>
      <point x="218" y="-177" type="curve"/>
      <point x="370" y="-177" type="line"/>
      <point x="370" y="-121"/>
      <point x="368" y="-49"/>
      <point x="357" y="13" type="curve"/>
      <point x="490" y="216"/>
      <point x="530" y="327"/>
      <point x="561" y="496" type="curve"/>
      <point x="415" y="496" type="line"/>
      <point x="406" y="376"/>
      <point x="373" y="272"/>
      <point x="319" y="166" type="curve"/>
      <point x="315" y="166" type="line"/>
      <point x="278" y="308"/>
      <point x="218" y="440"/>
      <point x="171" y="508" type="curve"/>
      <point x="21" y="476" type="line"/>
      <point x="131" y="323"/>
      <point x="225" y="83"/>
      <point x="225" y="-41" type="curve" smooth="yes"/>
      <point x="225" y="-109"/>
      <point x="223" y="-136"/>
    </contour>
  </outline>
</glyph>
<glyph name="delta" format="1">
	<unicode hex="03B4"/>
	<advance width="600"/>
	<outline>
		<contour>
			<point x="297" y="-12" type="curve" smooth="yes"/>
			<point x="453" y="-12"/>
			<point x="547" y="83"/>
			<point x="547" y="223" type="curve" smooth="yes"/>
			<point x="547" y="330"/>
			<point x="494" y="388"/>
			<point x="392" y="453" type="curve" smooth="yes"/>
			<point x="306" y="508"/>
			<point x="241" y="542"/>
			<point x="241" y="577" type="curve" smooth="yes"/>
			<point x="241" y="593"/>
			<point x="256" y="604"/>
			<point x="291" y="604" type="curve" smooth="yes"/>
			<point x="346" y="604"/>
			<point x="419" y="587"/>
			<point x="495" y="562" type="curve"/>
			<point x="528" y="671" type="line"/>
			<point x="453" y="695"/>
			<point x="368" y="713"/>
			<point x="291" y="713" type="curve" smooth="yes"/>
			<point x="161" y="713"/>
			<point x="101" y="656"/>
			<point x="101" y="591" type="curve" smooth="yes"/>
			<point x="101" y="493"/>
			<point x="188" y="438"/>
			<point x="265" y="389" type="curve" smooth="yes"/>
			<point x="339" y="342"/>
			<point x="405" y="300"/>
			<point x="405" y="224" type="curve" smooth="yes"/>
			<point x="405" y="142"/>
			<point x="362" y="107"/>
			<point x="301" y="107" type="curve" smooth="yes"/>
			<point x="242" y="107"/>
			<point x="192" y="146"/>
			<point x="192" y="218" type="curve" smooth="yes"/>
			<point x="192" y="297"/>
			<point x="242" y="342"/>
			<point x="322" y="359" type="curve"/>
			<point x="255" y="438" type="line"/>
			<point x="153" y="405"/>
			<point x="53" y="337"/>
			<point x="53" y="216" type="curve" smooth="yes"/>
			<point x="53" y="73"/>
			<point x="164" y="-12"/>
		</contour>
	</outline>
</glyph>
<glyph name="epsilon" format="1">
	<unicode hex="03B5"/>
	<advance width="600"/>
	<outline>
		<contour>
			<point x="330" y="-12" type="curve" smooth="yes"/>
			<point x="404" y="-12"/>
			<point x="470" y="0"/>
			<point x="546" y="53" type="curve"/>
			<point x="488" y="147" type="line"/>
			<point x="438" y="110"/>
			<point x="385" y="100"/>
			<point x="344" y="100" type="curve" smooth="yes"/>
			<point x="251" y="100"/>
			<point x="214" y="121"/>
			<point x="214" y="156" type="curve" smooth="yes"/>
			<point x="214" y="191"/>
			<point x="247" y="204"/>
			<point x="319" y="204" type="curve" smooth="yes"/>
			<point x="346" y="204"/>
			<point x="376" y="203"/>
			<point x="405" y="201" type="curve"/>
			<point x="405" y="306" type="line"/>
			<point x="381" y="304"/>
			<point x="356" y="303"/>
			<point x="335" y="303" type="curve" smooth="yes"/>
			<point x="270" y="303"/>
			<point x="235" y="317"/>
			<point x="235" y="346" type="curve" smooth="yes"/>
			<point x="235" y="376"/>
			<point x="266" y="396"/>
			<point x="341" y="396" type="curve" smooth="yes"/>
			<point x="389" y="396"/>
			<point x="438" y="384"/>
			<point x="481" y="354" type="curve"/>
			<point x="535" y="449" type="line"/>
			<point x="477" y="488"/>
			<point x="403" y="508"/>
			<point x="333" y="508" type="curve" smooth="yes"/>
			<point x="192" y="508"/>
			<point x="91" y="465"/>
			<point x="91" y="366" type="curve" smooth="yes"/>
			<point x="91" y="326"/>
			<point x="122" y="283"/>
			<point x="184" y="263" type="curve"/>
			<point x="184" y="259" type="line"/>
			<point x="114" y="240"/>
			<point x="70" y="208"/>
			<point x="70" y="141" type="curve" smooth="yes"/>
			<point x="70" y="39"/>
			<point x="175" y="-12"/>
		</contour>
		<contour>
			<point name="aboveLC" x="332" y="516" type="move"/>
		</contour>
	</outline>
</glyph>
<glyph name="zeta" format="1">
  <advance width="600"/>
  <unicode hex="03B6"/>
  <outline>
    <contour>
      <point x="474" y="-187" type="line"/>
      <point x="516" y="-122"/>
      <point x="534" y="-57"/>
      <point x="534" y="-23" type="curve" smooth="yes"/>
      <point x="534" y="54"/>
      <point x="489" y="84"/>
      <point x="375" y="107" type="curve" smooth="yes"/>
      <point x="270" y="127"/>
      <point x="236" y="155"/>
      <point x="236" y="236" type="curve" smooth="yes"/>
      <point x="236" y="343"/>
      <point x="353" y="504"/>
      <point x="521" y="585" type="curve"/>
      <point x="527" y="585" type="line"/>
      <point x="527" y="701" type="line"/>
      <point x="117" y="701" type="line"/>
      <point x="117" y="585" type="line"/>
      <point x="189" y="591"/>
      <point x="314" y="592"/>
      <point x="364" y="594" type="curve"/>
      <point x="191" y="484"/>
      <point x="86" y="355"/>
      <point x="86" y="228" type="curve" smooth="yes"/>
      <point x="86" y="64"/>
      <point x="188" y="14"/>
      <point x="289" y="-8" type="curve" smooth="yes"/>
      <point x="380" y="-28"/>
      <point x="405" y="-35"/>
      <point x="405" y="-62" type="curve" smooth="yes"/>
      <point x="405" y="-88"/>
      <point x="387" y="-111"/>
      <point x="359" y="-149" type="curve"/>
    </contour>
  </outline>
</glyph>
<glyph name="iota" format="1">
  <advance width="600"/>
  <unicode hex="03B9"/>
  <outline>
    <contour>
      <point x="384" y="-12" type="curve" smooth="yes"/>
      <point x="450" y="-12"/>
      <point x="486" y="-1"/>
      <point x="519" y="13" type="curve"/>
      <point x="493" y="123" type="line"/>
      <point x="470" y="113"/>
      <point x="440" y="107"/>
      <point x="422" y="107" type="curve" smooth="yes"/>
      <point x="369" y="107"/>
      <point x="343" y="125"/>
      <point x="343" y="179" type="curve" smooth="yes"/>
      <point x="343" y="256"/>
      <point x="349" y="390"/>
      <point x="353" y="496" type="curve"/>
      <point x="204" y="496" type="line"/>
      <point x="204" y="185" type="line" smooth="yes"/>
      <point x="204" y="66"/>
      <point x="245" y="-12"/>
    </contour>
    <contour>
      <point x="276" y="516" type="move" name="aboveLC"/>
    </contour>
    <contour>
      <point x="345" y="-20" type="move" name="belowLC"/>
    </contour>
  </outline>
</glyph>
<glyph name="kappa" format="1">
  <advance width="600"/>
  <unicode hex="03BA"/>
  <outline>
    <contour>
      <point x="85" y="0" type="line"/>
      <point x="223" y="0" type="line"/>
      <point x="223" y="29" type="line" smooth="yes"/>
      <point x="223" y="104"/>
      <point x="237" y="152"/>
      <point x="274" y="189" type="curve" smooth="yes"/>
      <point x="384" y="306"/>
      <point x="452" y="353"/>
      <point x="537" y="371" type="curve"/>
      <point x="525" y="508" type="line"/>
      <point x="403" y="491"/>
      <point x="307" y="397"/>
      <point x="232" y="281" type="curve"/>
      <point x="228" y="281" type="line"/>
      <point x="228" y="374" type="line" smooth="yes"/>
      <point x="228" y="420"/>
      <point x="226" y="464"/>
      <point x="219" y="496" type="curve"/>
      <point x="73" y="496" type="line"/>
      <point x="83" y="444"/>
      <point x="85" y="383"/>
      <point x="85" y="344" type="curve" smooth="yes"/>
    </contour>
    <contour>
      <point x="420" y="-11" type="curve"/>
      <point x="586" y="0" type="line"/>
      <point x="515" y="79"/>
      <point x="426" y="206"/>
      <point x="375" y="307" type="curve"/>
      <point x="281" y="212" type="line"/>
      <point x="328" y="116"/>
      <point x="378" y="42"/>
    </contour>
  </outline>
</glyph>
<glyph name="lambda" format="1">
	<unicode hex="03BB"/>
	<advance width="600"/>
	<outline>
		<contour>
			<point x="193" y="-11" type="line"/>
			<point x="314" y="334" type="line"/>
			<point x="318" y="334" type="line"/>
			<point x="417" y="0" type="line"/>
			<point x="576" y="0" type="line"/>
			<point x="395" y="505" type="line" smooth="yes"/>
			<point x="351" y="651"/>
			<point x="287" y="713"/>
			<point x="171" y="713" type="curve" smooth="yes"/>
			<point x="111" y="713"/>
			<point x="84" y="705"/>
			<point x="51" y="692" type="curve"/>
			<point x="83" y="573" type="line"/>
			<point x="105" y="583"/>
			<point x="123" y="589"/>
			<point x="154" y="589" type="curve" smooth="yes"/>
			<point x="197" y="589"/>
			<point x="233" y="565"/>
			<point x="247" y="513" type="curve"/>
			<point x="250" y="498" type="line"/>
			<point x="34" y="0" type="line"/>
		</contour>
	</outline>
</glyph>
<glyph name="nu" format="1">
  <advance width="600"/>
  <unicode hex="03BD"/>
  <outline>
    <contour>
      <point x="222" y="0" type="curve"/>
      <point x="361" y="0" type="line"/>
      <point x="474" y="186"/>
      <point x="529" y="321"/>
      <point x="559" y="496" type="curve"/>
      <point x="413" y="496" type="line"/>
      <point x="404" y="382"/>
      <point x="371" y="264"/>
      <point x="319" y="150" type="curve"/>
      <point x="315" y="150" type="line"/>
      <point x="295" y="259"/>
      <point x="231" y="417"/>
      <point x="175" y="508" type="curve"/>
      <point x="25" y="476" type="line"/>
      <point x="107" y="354"/>
      <point x="193" y="188"/>
    </contour>
  </outline>
</glyph>
<glyph name="xi" format="1">
  <advance width="600"/>
  <unicode hex="03BE"/>
  <outline>
    <contour>
      <point x="474" y="-187" type="line"/>
      <point x="519" y="-121"/>
      <point x="535" y="-57"/>
      <point x="535" y="-23" type="curve" smooth="yes"/>
      <point x="535" y="54"/>
      <point x="506" y="83"/>
      <point x="384" y="107" type="curve" smooth="yes"/>
      <point x="282" y="126"/>
      <point x="235" y="139"/>
      <point x="235" y="207" type="curve" smooth="yes"/>
      <point x="235" y="268"/>
      <point x="295" y="310"/>
      <point x="373" y="310" type="curve" smooth="yes"/>
      <point x="406" y="310"/>
      <point x="436" y="310"/>
      <point x="473" y="301" type="curve"/>
      <point x="473" y="416" type="line"/>
      <point x="439" y="406"/>
      <point x="417" y="407"/>
      <point x="382" y="407" type="curve" smooth="yes"/>
      <point x="317" y="407"/>
      <point x="277" y="451"/>
      <point x="277" y="497" type="curve" smooth="yes"/>
      <point x="277" y="551"/>
      <point x="321" y="585"/>
      <point x="386" y="585" type="curve" smooth="yes"/>
      <point x="527" y="585" type="line"/>
      <point x="527" y="701" type="line"/>
      <point x="59" y="701" type="line"/>
      <point x="59" y="585" type="line"/>
      <point x="114" y="591"/>
      <point x="139" y="592"/>
      <point x="177" y="594" type="curve"/>
      <point x="147" y="572"/>
      <point x="130" y="536"/>
      <point x="130" y="502" type="curve" smooth="yes"/>
      <point x="130" y="442"/>
      <point x="168" y="394"/>
      <point x="231" y="369" type="curve"/>
      <point x="231" y="365" type="line"/>
      <point x="152" y="338"/>
      <point x="85" y="270"/>
      <point x="85" y="184" type="curve" smooth="yes"/>
      <point x="85" y="59"/>
      <point x="177" y="17"/>
      <point x="290" y="-8" type="curve" smooth="yes"/>
      <point x="380" y="-28"/>
      <point x="406" y="-35"/>
      <point x="406" y="-62" type="curve" smooth="yes"/>
      <point x="406" y="-88"/>
      <point x="388" y="-111"/>
      <point x="359" y="-149" type="curve"/>
    </contour>
  </outline>
</glyph>
<glyph name="omicron" format="1">
  <advance width="600"/>
  <unicode hex="03BF"/>
  <outline>
    <contour>
      <point x="300" y="-12" type="curve" smooth="yes"/>
      <point x="432" y="-12"/>
      <point x="552" y="83"/>
      <point x="552" y="248" type="curve" smooth="yes"/>
      <point x="552" y="413"/>
      <point x="432" y="508"/>
      <point x="300" y="508" type="curve" smooth="yes"/>
      <point x="168" y="508"/>
      <point x="48" y="413"/>
      <point x="48" y="248" type="curve" smooth="yes"/>
      <point x="48" y="83"/>
      <point x="168" y="-12"/>
    </contour>
    <contour>
      <point x="300" y="107" type="curve" smooth="yes"/>
      <point x="231" y="107"/>
      <point x="198" y="162"/>
      <point x="198" y="248" type="curve" smooth="yes"/>
      <point x="198" y="334"/>
      <point x="231" y="389"/>
      <point x="300" y="389" type="curve" smooth="yes"/>
      <point x="369" y="389"/>
      <point x="402" y="334"/>
      <point x="402" y="248" type="curve" smooth="yes"/>
      <point x="402" y="162"/>
      <point x="369" y="107"/>
    </contour>
  </outline>
</glyph>
<glyph name="sigma" format="1">
  <advance width="600"/>
  <unicode hex="03C3"/>
  <outline>
    <contour>
      <point x="284" y="-12" type="curve" smooth="yes"/>
      <point x="418" y="-12"/>
      <point x="513" y="76"/>
      <point x="513" y="219" type="curve" smooth="yes"/>
      <point x="513" y="294"/>
      <point x="485" y="354"/>
      <point x="434" y="382" type="curve"/>
      <point x="434" y="386" type="line"/>
      <point x="486" y="385"/>
      <point x="522" y="381"/>
      <point x="576" y="375" type="curve"/>
      <point x="576" y="496" type="line"/>
      <point x="291" y="496" type="line" smooth="yes"/>
      <point x="166" y="496"/>
      <point x="47" y="414"/>
      <point x="47" y="242" type="curve" smooth="yes"/>
      <point x="47" y="78"/>
      <point x="154" y="-12"/>
    </contour>
    <contour>
      <point x="286" y="107" type="curve" smooth="yes"/>
      <point x="232" y="107"/>
      <point x="198" y="156"/>
      <point x="198" y="242" type="curve" smooth="yes"/>
      <point x="198" y="338"/>
      <point x="232" y="377"/>
      <point x="286" y="377" type="curve" smooth="yes"/>
      <point x="342" y="377"/>
      <point x="373" y="312"/>
      <point x="373" y="234" type="curve" smooth="yes"/>
      <point x="373" y="153"/>
      <point x="340" y="107"/>
    </contour>
  </outline>
</glyph>
<glyph name="tau" format="1">
  <advance width="600"/>
  <unicode hex="03C4"/>
  <outline>
    <contour>
      <point x="385" y="-12" type="curve" smooth="yes"/>
      <point x="432" y="-12"/>
      <point x="473" y="-3"/>
      <point x="508" y="10" type="curve"/>
      <point x="489" y="120" type="line"/>
      <point x="461" y="110"/>
      <point x="443" y="107"/>
      <point x="423" y="107" type="curve" smooth="yes"/>
      <point x="388" y="107"/>
      <point x="365" y="121"/>
      <point x="365" y="163" type="curve" smooth="yes"/>
      <point x="365" y="219"/>
      <point x="367" y="300"/>
      <point x="370" y="381" type="curve"/>
      <point x="550" y="381" type="line"/>
      <point x="550" y="496" type="line"/>
      <point x="124" y="496" type="line"/>
      <point x="50" y="490" type="line"/>
      <point x="50" y="381" type="line"/>
      <point x="226" y="381" type="line"/>
      <point x="226" y="169" type="line" smooth="yes"/>
      <point x="226" y="59"/>
      <point x="266" y="-12"/>
    </contour>
  </outline>
</glyph>
<glyph name="upsilon" format="1">
  <advance width="600"/>
  <unicode hex="03C5"/>
  <outline>
    <contour>
      <point x="294" y="-12" type="curve" smooth="yes"/>
      <point x="453" y="-12"/>
      <point x="538" y="95"/>
      <point x="538" y="272" type="curve" smooth="yes"/>
      <point x="538" y="351"/>
      <point x="521" y="432"/>
      <point x="500" y="508" type="curve"/>
      <point x="358" y="477" type="line"/>
      <point x="381" y="391"/>
      <point x="390" y="325"/>
      <point x="390" y="265" type="curve" smooth="yes"/>
      <point x="390" y="155"/>
      <point x="356" y="107"/>
      <point x="294" y="107" type="curve" smooth="yes"/>
      <point x="245" y="107"/>
      <point x="208" y="139"/>
      <point x="208" y="199" type="curve" smooth="yes"/>
      <point x="208" y="261"/>
      <point x="214" y="335"/>
      <point x="214" y="374" type="curve" smooth="yes"/>
      <point x="214" y="420"/>
      <point x="212" y="462"/>
      <point x="204" y="496" type="curve"/>
      <point x="62" y="496" type="line"/>
      <point x="72" y="442"/>
      <point x="73" y="383"/>
      <point x="73" y="344" type="curve" smooth="yes"/>
      <point x="73" y="300"/>
      <point x="69" y="255"/>
      <point x="69" y="211" type="curve" smooth="yes"/>
      <point x="69" y="79"/>
      <point x="137" y="-12"/>
    </contour>
    <contour>
      <point x="292" y="516" type="move" name="aboveLC"/>
    </contour>
    <contour>
      <point x="292" y="-20" type="move" name="belowLC"/>
    </contour>
  </outline>
</glyph>
<glyph name="phi" format="1">
  <advance width="600"/>
  <unicode hex="03C6"/>
  <outline>
    <contour>
      <point x="254" y="-8" type="curve"/>
      <point x="246" y="102" type="line"/>
      <point x="188" y="102"/>
      <point x="151" y="153"/>
      <point x="151" y="248" type="curve" smooth="yes"/>
      <point x="151" y="343"/>
      <point x="188" y="394"/>
      <point x="246" y="394" type="curve"/>
      <point x="254" y="504" type="line"/>
      <point x="135" y="503"/>
      <point x="25" y="413"/>
      <point x="25" y="248" type="curve" smooth="yes"/>
      <point x="25" y="83"/>
      <point x="135" y="-7"/>
    </contour>
    <contour>
      <point x="346" y="-8" type="line"/>
      <point x="465" y="-7"/>
      <point x="575" y="83"/>
      <point x="575" y="248" type="curve" smooth="yes"/>
      <point x="575" y="413"/>
      <point x="465" y="503"/>
      <point x="346" y="504" type="curve"/>
      <point x="354" y="394" type="line"/>
      <point x="413" y="394"/>
      <point x="449" y="343"/>
      <point x="449" y="248" type="curve" smooth="yes"/>
      <point x="449" y="153"/>
      <point x="413" y="102"/>
      <point x="354" y="102" type="curve"/>
    </contour>
    <contour>
      <point x="240" y="-177" type="line"/>
      <point x="360" y="-177" type="line"/>
      <point x="360" y="628" type="line"/>
      <point x="240" y="628" type="line"/>
    </contour>
  </outline>
</glyph>
<glyph name="psi" format="1">
  <advance width="600"/>
  <unicode hex="03C8"/>
  <outline>
    <contour>
      <point x="250" y="-12" type="curve"/>
      <point x="242" y="103" type="line"/>
      <point x="179" y="103"/>
      <point x="158" y="153"/>
      <point x="158" y="209" type="curve" smooth="yes"/>
      <point x="158" y="250"/>
      <point x="160" y="329"/>
      <point x="160" y="374" type="curve" smooth="yes"/>
      <point x="160" y="420"/>
      <point x="158" y="462"/>
      <point x="151" y="496" type="curve"/>
      <point x="20" y="496" type="line"/>
      <point x="29" y="442"/>
      <point x="31" y="383"/>
      <point x="31" y="344" type="curve" smooth="yes"/>
      <point x="31" y="221" type="line" smooth="yes"/>
      <point x="31" y="94"/>
      <point x="86" y="-12"/>
    </contour>
    <contour>
      <point x="353" y="-12" type="line"/>
      <point x="502" y="-12"/>
      <point x="581" y="87"/>
      <point x="581" y="264" type="curve" smooth="yes"/>
      <point x="581" y="347"/>
      <point x="569" y="430"/>
      <point x="543" y="508" type="curve"/>
      <point x="413" y="477" type="line"/>
      <point x="439" y="389"/>
      <point x="445" y="323"/>
      <point x="445" y="257" type="curve" smooth="yes"/>
      <point x="445" y="143"/>
      <point x="414" y="103"/>
      <point x="353" y="103" type="curve"/>
    </contour>
    <contour>
      <point x="240" y="-177" type="line"/>
      <point x="360" y="-177" type="line"/>
      <point x="360" y="628" type="line"/>
      <point x="240" y="628" type="line"/>
    </contour>
  </outline>
</glyph>
<glyph name="omega" format="1">
  <advance width="600"/>
  <unicode hex="03C9"/>
  <outline>
    <contour>
      <point x="196" y="-12" type="curve" smooth="yes"/>
      <point x="239" y="-12"/>
      <point x="274" y="9"/>
      <point x="296" y="65" type="curve"/>
      <point x="300" y="65" type="line"/>
      <point x="322" y="9"/>
      <point x="364" y="-12"/>
      <point x="409" y="-12" type="curve" smooth="yes"/>
      <point x="517" y="-12"/>
      <point x="578" y="86"/>
      <point x="578" y="257" type="curve" smooth="yes"/>
      <point x="578" y="359"/>
      <point x="548" y="437"/>
      <point x="504" y="508" type="curve"/>
      <point x="373" y="459" type="line"/>
      <point x="421" y="380"/>
      <point x="436" y="327"/>
      <point x="436" y="246" type="curve" smooth="yes"/>
      <point x="436" y="156"/>
      <point x="417" y="107"/>
      <point x="389" y="107" type="curve" smooth="yes"/>
      <point x="362" y="107"/>
      <point x="348" y="130"/>
      <point x="348" y="200" type="curve" smooth="yes"/>
      <point x="348" y="245"/>
      <point x="353" y="273"/>
      <point x="360" y="331" type="curve"/>
      <point x="236" y="331" type="line"/>
      <point x="243" y="273"/>
      <point x="248" y="245"/>
      <point x="248" y="200" type="curve" smooth="yes"/>
      <point x="248" y="137"/>
      <point x="232" y="107"/>
      <point x="203" y="107" type="curve" smooth="yes"/>
      <point x="171" y="107"/>
      <point x="156" y="154"/>
      <point x="156" y="224" type="curve" smooth="yes"/>
      <point x="156" y="306"/>
      <point x="181" y="373"/>
      <point x="231" y="456" type="curve"/>
      <point x="100" y="508" type="line"/>
      <point x="55" y="435"/>
      <point x="22" y="335"/>
      <point x="22" y="253" type="curve" smooth="yes"/>
      <point x="22" y="81"/>
      <point x="90" y="-12"/>
    </contour>
    <contour>
      <point x="300" y="516" type="move" name="aboveLC"/>
    </contour>
    <contour>
      <point x="300" y="-20" type="move" name="belowLC"/>
    </contour>
  </outline>
</glyph>
<glyph name="theta.a" format="1">
  <advance width="600"/>
  <unicode hex="03D1"/>
  <outline>
    <contour>
      <point x="299" y="-12" type="curve" smooth="yes"/>
      <point x="464" y="-12"/>
      <point x="545" y="115"/>
      <point x="545" y="355" type="curve" smooth="yes"/>
      <point x="545" y="574"/>
      <point x="448" y="713"/>
      <point x="273" y="713" type="curve" smooth="yes"/>
      <point x="150" y="713"/>
      <point x="57" y="629"/>
      <point x="57" y="519" type="curve" smooth="yes"/>
      <point x="57" y="432"/>
      <point x="123" y="278"/>
      <point x="424" y="322" type="curve"/>
      <point x="462" y="418" type="line"/>
      <point x="236" y="372"/>
      <point x="191" y="446"/>
      <point x="191" y="513" type="curve" smooth="yes"/>
      <point x="191" y="557"/>
      <point x="224" y="593"/>
      <point x="280" y="594" type="curve" smooth="yes"/>
      <point x="350" y="596"/>
      <point x="403" y="534"/>
      <point x="403" y="355" type="curve" smooth="yes"/>
      <point x="403" y="154"/>
      <point x="366" y="107"/>
      <point x="305" y="107" type="curve" smooth="yes"/>
      <point x="249" y="107"/>
      <point x="220" y="137"/>
      <point x="220" y="199" type="curve" smooth="yes"/>
      <point x="220" y="228"/>
      <point x="218" y="269"/>
      <point x="211" y="283" type="curve"/>
      <point x="72" y="283" type="line"/>
      <point x="81" y="253"/>
      <point x="81" y="223"/>
      <point x="81" y="178" type="curve" smooth="yes"/>
      <point x="81" y="74"/>
      <point x="144" y="-12"/>
    </contour>
  </outline>
</glyph>
<glyph name="phi.a" format="1">
	<unicode hex="03D5"/>
	<advance width="600"/>
	<outline>
		<contour>
			<point x="238" y="-177" type="line"/>
			<point x="372" y="-177" type="line"/>
			<point x="365" y="-27"/>
			<point x="361" y="130"/>
			<point x="361" y="280" type="curve" smooth="yes"/>
			<point x="361" y="356"/>
			<point x="378" y="388"/>
			<point x="404" y="388" type="curve" smooth="yes"/>
			<point x="433" y="388"/>
			<point x="449" y="350"/>
			<point x="449" y="254" type="curve" smooth="yes"/>
			<point x="449" y="145"/>
			<point x="408" y="103"/>
			<point x="346" y="100" type="curve"/>
			<point x="348" y="-8" type="line"/>
			<point x="465" y="-8"/>
			<point x="577" y="89"/>
			<point x="577" y="264" type="curve" smooth="yes"/>
			<point x="577" y="419"/>
			<point x="515" y="508"/>
			<point x="409" y="508" type="curve" smooth="yes"/>
			<point x="310" y="508"/>
			<point x="238" y="438"/>
			<point x="238" y="258" type="curve" smooth="yes"/>
		</contour>
		<contour>
			<point x="254" y="-8" type="curve"/>
			<point x="261" y="100" type="line"/>
			<point x="185" y="100"/>
			<point x="151" y="157"/>
			<point x="151" y="244" type="curve" smooth="yes"/>
			<point x="151" y="312"/>
			<point x="176" y="368"/>
			<point x="225" y="431" type="curve"/>
			<point x="127" y="516" type="line"/>
			<point x="66" y="446"/>
			<point x="23" y="345"/>
			<point x="23" y="258" type="curve" smooth="yes"/>
			<point x="23" y="84"/>
			<point x="131" y="-8"/>
		</contour>
	</outline>
</glyph>
<glyph name="koppa" format="1">
  <advance width="600"/>
  <unicode hex="03D9"/>
  <outline>
    <contour>
      <point x="300" y="-12" type="curve" smooth="yes"/>
      <point x="432" y="-12"/>
      <point x="552" y="83"/>
      <point x="552" y="248" type="curve" smooth="yes"/>
      <point x="552" y="413"/>
      <point x="432" y="508"/>
      <point x="300" y="508" type="curve" smooth="yes"/>
      <point x="168" y="508"/>
      <point x="48" y="413"/>
      <point x="48" y="248" type="curve" smooth="yes"/>
      <point x="48" y="83"/>
      <point x="168" y="-12"/>
    </contour>
    <contour>
      <point x="300" y="100" type="curve" smooth="yes"/>
      <point x="231" y="100"/>
      <point x="198" y="157"/>
      <point x="198" y="248" type="curve" smooth="yes"/>
      <point x="198" y="334"/>
      <point x="231" y="389"/>
      <point x="300" y="389" type="curve" smooth="yes"/>
      <point x="369" y="389"/>
      <point x="402" y="334"/>
      <point x="402" y="248" type="curve" smooth="yes"/>
      <point x="402" y="157"/>
      <point x="369" y="100"/>
    </contour>
    <contour>
      <point x="232" y="-177" type="line"/>
      <point x="381" y="-177" type="line"/>
      <point x="377" y="-103"/>
      <point x="374" y="-36"/>
      <point x="370" y="41" type="curve"/>
      <point x="232" y="46" type="line"/>
    </contour>
  </outline>
</glyph>
<glyph name="stigma" format="1">
  <advance width="600"/>
  <unicode hex="03DB"/>
  <outline>
    <contour>
      <point x="460" y="-186" type="line"/>
      <point x="504" y="-121"/>
      <point x="523" y="-54"/>
      <point x="523" y="-19" type="curve" smooth="yes"/>
      <point x="523" y="63"/>
      <point x="488" y="97"/>
      <point x="364" y="125" type="curve" smooth="yes"/>
      <point x="266" y="147"/>
      <point x="225" y="182"/>
      <point x="225" y="244" type="curve" smooth="yes"/>
      <point x="225" y="339"/>
      <point x="282" y="377"/>
      <point x="365" y="377" type="curve" smooth="yes"/>
      <point x="413" y="377"/>
      <point x="478" y="377"/>
      <point x="531" y="375" type="curve"/>
      <point x="531" y="496" type="line"/>
      <point x="353" y="496" type="line" smooth="yes"/>
      <point x="198" y="496"/>
      <point x="74" y="414"/>
      <point x="74" y="244" type="curve" smooth="yes"/>
      <point x="74" y="99"/>
      <point x="190" y="35"/>
      <point x="303" y="7" type="curve" smooth="yes"/>
      <point x="384" y="-14"/>
      <point x="394" y="-31"/>
      <point x="394" y="-61" type="curve" smooth="yes"/>
      <point x="394" y="-82"/>
      <point x="376" y="-110"/>
      <point x="346" y="-148" type="curve"/>
    </contour>
  </outline>
</glyph>
<glyph name="digamma" format="1">
	<unicode hex="03DD"/>
	<advance width="600"/>
	<outline>
		<contour>
			<point x="116" y="-177" type="line"/>
			<point x="264" y="-177" type="line"/>
			<point x="259" y="-66"/>
			<point x="256" y="24"/>
			<point x="256" y="125" type="curve"/>
			<point x="503" y="125" type="line"/>
			<point x="503" y="222" type="line"/>
			<point x="254" y="222" type="line"/>
			<point x="252" y="381" type="line"/>
			<point x="527" y="381" type="line"/>
			<point x="527" y="496" type="line"/>
			<point x="116" y="496" type="line"/>
		</contour>
	</outline>
</glyph>
<glyph name="Zhe" format="1">
  <advance width="600"/>
  <unicode hex="0416"/>
  <outline>
    <contour>
      <point x="1" y="0" type="line"/>
      <point x="137" y="0" type="line"/>
      <point x="203" y="274" type="line"/>
      <point x="240" y="274" type="line"/>
      <point x="240" y="0" type="line"/>
      <point x="360" y="0" type="line"/>
      <point x="360" y="274" type="line"/>
      <point x="397" y="274" type="line"/>
      <point x="463" y="0" type="line"/>
      <point x="599" y="0" type="line"/>
      <point x="470" y="397" type="line"/>
      <point x="360" y="397" type="line"/>
      <point x="360" y="652" type="line"/>
      <point x="240" y="652" type="line"/>
      <point x="240" y="397" type="line"/>
      <point x="130" y="397" type="line"/>
    </contour>
    <contour>
      <point x="118" y="325" type="line"/>
      <point x="229" y="345" type="line"/>
      <point x="178" y="551" type="line" smooth="yes"/>
      <point x="155" y="640"/>
      <point x="109" y="664"/>
      <point x="49" y="664" type="curve" smooth="yes"/>
      <point x="33" y="664"/>
      <point x="14" y="660"/>
      <point x="2" y="657" type="curve"/>
      <point x="24" y="520" type="line"/>
      <point x="31" y="522"/>
      <point x="38" y="524"/>
      <point x="46" y="524" type="curve" smooth="yes"/>
      <point x="65" y="524"/>
      <point x="79" y="512"/>
      <point x="88" y="475" type="curve" smooth="yes"/>
    </contour>
    <contour>
      <point x="482" y="325" type="line"/>
      <point x="512" y="475" type="line" smooth="yes"/>
      <point x="521" y="512"/>
      <point x="535" y="524"/>
      <point x="554" y="524" type="curve" smooth="yes"/>
      <point x="562" y="524"/>
      <point x="569" y="522"/>
      <point x="576" y="520" type="curve"/>
      <point x="598" y="657" type="line"/>
      <point x="586" y="660"/>
      <point x="566" y="664"/>
      <point x="550" y="664" type="curve" smooth="yes"/>
      <point x="490" y="664"/>
      <point x="445" y="640"/>
      <point x="422" y="551" type="curve" smooth="yes"/>
      <point x="371" y="345" type="line"/>
    </contour>
    <contour>
      <point x="300" y="672" type="move" name="aboveUC"/>
    </contour>
  </outline>
</glyph>
<glyph name="Ucyr" format="1">
	<unicode hex="0423"/>
	<advance width="600"/>
	<outline>
		<contour>
			<point x="179" y="-12" type="curve" smooth="yes"/>
			<point x="281" y="-12"/>
			<point x="341" y="49"/>
			<point x="381" y="148" type="curve" smooth="yes"/>
			<point x="582" y="652" type="line"/>
			<point x="434" y="652" type="line"/>
			<point x="365" y="462" type="line"/>
			<point x="313" y="306" type="line"/>
			<point x="309" y="306" type="line"/>
			<point x="255" y="462" type="line"/>
			<point x="179" y="652" type="line"/>
			<point x="23" y="652" type="line"/>
			<point x="244" y="170" type="line"/>
			<point x="235" y="151" type="line"/>
			<point x="223" y="130"/>
			<point x="201" y="121"/>
			<point x="172" y="121" type="curve" smooth="yes"/>
			<point x="146" y="121"/>
			<point x="135" y="125"/>
			<point x="123" y="129" type="curve"/>
			<point x="97" y="1" type="line"/>
			<point x="116" y="-7"/>
			<point x="142" y="-12"/>
		</contour>
		<contour>
			<point name="aboveUC" x="308" y="672" type="move"/>
		</contour>
	</outline>
</glyph>
<glyph name="Tse" format="1">
  <advance width="600"/>
  <unicode hex="0426"/>
  <outline>
    <contour>
      <point x="64" y="0" type="line"/>
      <point x="531" y="0" type="line"/>
      <point x="531" y="652" type="line"/>
      <point x="384" y="652" type="line"/>
      <point x="384" y="124" type="line"/>
      <point x="211" y="124" type="line"/>
      <point x="211" y="652" type="line"/>
      <point x="64" y="652" type="line"/>
    </contour>
    <contour>
      <point x="471" y="-188" type="line"/>
      <point x="593" y="-188" type="line"/>
      <point x="606" y="32" type="line"/>
      <point x="606" y="124" type="line"/>
      <point x="444" y="124" type="line"/>
      <point x="444" y="0" type="line"/>
      <point x="471" y="0" type="line"/>
    </contour>
  </outline>
</glyph>
<glyph name="Shcha" format="1">
  <advance width="600"/>
  <unicode hex="0429"/>
  <outline>
    <contour>
      <point x="29" y="0" type="line"/>
      <point x="547" y="0" type="line"/>
      <point x="547" y="652" type="line"/>
      <point x="421" y="652" type="line"/>
      <point x="421" y="124" type="line"/>
      <point x="346" y="124" type="line"/>
      <point x="346" y="652" type="line"/>
      <point x="230" y="652" type="line"/>
      <point x="230" y="124" type="line"/>
      <point x="155" y="124" type="line"/>
      <point x="155" y="652" type="line"/>
      <point x="29" y="652" type="line"/>
    </contour>
    <contour>
      <point x="479" y="-188" type="line"/>
      <point x="594" y="-188" type="line"/>
      <point x="606" y="32" type="line"/>
      <point x="606" y="124" type="line"/>
      <point x="462" y="124" type="line"/>
      <point x="462" y="0" type="line"/>
      <point x="479" y="0" type="line"/>
    </contour>
  </outline>
</glyph>
<glyph name="Hard" format="1">
	<unicode hex="042A"/>
	<advance width="600"/>
	<outline>
		<contour>
			<point x="166" y="0" type="line"/>
			<point x="345" y="0" type="line" smooth="yes"/>
			<point x="470" y="0"/>
			<point x="569" y="56"/>
			<point x="569" y="213" type="curve" smooth="yes"/>
			<point x="569" y="354"/>
			<point x="463" y="414"/>
			<point x="340" y="414" type="curve" smooth="yes"/>
			<point x="313" y="414" type="line"/>
			<point x="313" y="652" type="line"/>
			<point x="26" y="652" type="line"/>
			<point x="26" y="528" type="line"/>
			<point x="166" y="528" type="line"/>
		</contour>
		<contour>
			<point x="313" y="117" type="line"/>
			<point x="313" y="297" type="line"/>
			<point x="331" y="297" type="line" smooth="yes"/>
			<point x="397" y="297"/>
			<point x="430" y="267"/>
			<point x="430" y="211" type="curve" smooth="yes"/>
			<point x="430" y="144"/>
			<point x="397" y="117"/>
			<point x="336" y="117" type="curve" smooth="yes"/>
		</contour>
	</outline>
</glyph>
<glyph name="Yeru" format="1">
  <advance width="600"/>
  <unicode hex="042B"/>
  <outline>
    <contour>
      <point x="34" y="0" type="line"/>
      <point x="178" y="0" type="line" smooth="yes"/>
      <point x="293" y="0"/>
      <point x="383" y="56"/>
      <point x="383" y="213" type="curve" smooth="yes"/>
      <point x="383" y="357"/>
      <point x="298" y="414"/>
      <point x="181" y="414" type="curve" smooth="yes"/>
      <point x="165" y="414" type="line"/>
      <point x="165" y="652" type="line"/>
      <point x="34" y="652" type="line"/>
    </contour>
    <contour>
      <point x="165" y="117" type="line"/>
      <point x="165" y="297" type="line"/>
      <point x="177" y="297" type="line" smooth="yes"/>
      <point x="232" y="297"/>
      <point x="259" y="269"/>
      <point x="259" y="211" type="curve" smooth="yes"/>
      <point x="259" y="144"/>
      <point x="229" y="117"/>
      <point x="178" y="117" type="curve" smooth="yes"/>
    </contour>
    <contour>
      <point x="435" y="0" type="line"/>
      <point x="566" y="0" type="line"/>
      <point x="566" y="652" type="line"/>
      <point x="435" y="652" type="line"/>
    </contour>
    <contour>
      <point x="300" y="672" type="move" name="aboveUC"/>
    </contour>
  </outline>
</glyph>
<glyph name="Soft" format="1">
  <advance width="600"/>
  <unicode hex="042C"/>
  <outline>
    <contour>
      <point x="74" y="0" type="line"/>
      <point x="304" y="0" type="line" smooth="yes"/>
      <point x="449" y="0"/>
      <point x="562" y="56"/>
      <point x="562" y="213" type="curve" smooth="yes"/>
      <point x="562" y="357"/>
      <point x="454" y="414"/>
      <point x="307" y="414" type="curve" smooth="yes"/>
      <point x="221" y="414" type="line"/>
      <point x="221" y="652" type="line"/>
      <point x="74" y="652" type="line"/>
    </contour>
    <contour>
      <point x="221" y="117" type="line"/>
      <point x="221" y="297" type="line"/>
      <point x="295" y="297" type="line" smooth="yes"/>
      <point x="377" y="297"/>
      <point x="418" y="269"/>
      <point x="418" y="211" type="curve" smooth="yes"/>
      <point x="418" y="144"/>
      <point x="372" y="117"/>
      <point x="295" y="117" type="curve" smooth="yes"/>
    </contour>
  </outline>
</glyph>
<glyph name="zhe" format="1">
  <advance width="600"/>
  <unicode hex="0436"/>
  <outline>
    <contour>
      <point x="2" y="0" type="line"/>
      <point x="137" y="0" type="line"/>
      <point x="202" y="204" type="line"/>
      <point x="244" y="204" type="line"/>
      <point x="244" y="0" type="line"/>
      <point x="356" y="0" type="line"/>
      <point x="356" y="204" type="line"/>
      <point x="398" y="204" type="line"/>
      <point x="463" y="0" type="line"/>
      <point x="598" y="0" type="line"/>
      <point x="470" y="303" type="line"/>
      <point x="356" y="303" type="line"/>
      <point x="356" y="496" type="line"/>
      <point x="244" y="496" type="line"/>
      <point x="244" y="303" type="line"/>
      <point x="130" y="303" type="line"/>
    </contour>
    <contour>
      <point x="123" y="242" type="line"/>
      <point x="229" y="260" type="line"/>
      <point x="178" y="408" type="line" smooth="yes"/>
      <point x="150" y="487"/>
      <point x="105" y="508"/>
      <point x="45" y="508" type="curve" smooth="yes"/>
      <point x="31" y="508"/>
      <point x="20" y="507"/>
      <point x="9" y="502" type="curve"/>
      <point x="27" y="365" type="line"/>
      <point x="33" y="367"/>
      <point x="40" y="369"/>
      <point x="47" y="369" type="curve" smooth="yes"/>
      <point x="67" y="369"/>
      <point x="83" y="361"/>
      <point x="94" y="327" type="curve" smooth="yes"/>
    </contour>
    <contour>
      <point x="477" y="242" type="line"/>
      <point x="506" y="327" type="line" smooth="yes"/>
      <point x="517" y="361"/>
      <point x="533" y="369"/>
      <point x="553" y="369" type="curve" smooth="yes"/>
      <point x="560" y="369"/>
      <point x="567" y="367"/>
      <point x="573" y="365" type="curve"/>
      <point x="591" y="502" type="line"/>
      <point x="580" y="507"/>
      <point x="569" y="508"/>
      <point x="555" y="508" type="curve" smooth="yes"/>
      <point x="495" y="508"/>
      <point x="450" y="487"/>
      <point x="422" y="408" type="curve" smooth="yes"/>
      <point x="371" y="260" type="line"/>
    </contour>
    <contour>
      <point x="300" y="516" type="move" name="aboveLC"/>
    </contour>
  </outline>
</glyph>
<glyph name="en" format="1">
	<unicode hex="043D"/>
	<advance width="600"/>
	<outline>
		<contour>
			<point x="72" y="0" type="line"/>
			<point x="219" y="0" type="line"/>
			<point x="219" y="189" type="line"/>
			<point x="381" y="189" type="line"/>
			<point x="381" y="0" type="line"/>
			<point x="528" y="0" type="line"/>
			<point x="528" y="496" type="line"/>
			<point x="381" y="496" type="line"/>
			<point x="381" y="317" type="line"/>
			<point x="219" y="317" type="line"/>
			<point x="219" y="496" type="line"/>
			<point x="72" y="496" type="line"/>
		</contour>
		<contour>
			<point name="aboveLC" x="300" y="516" type="move"/>
		</contour>
	</outline>
</glyph>
<glyph name="ucyr" format="1">
	<unicode hex="0443"/>
	<advance width="600"/>
	<outline>
		<component base="y"/>
		<contour>
			<point name="aboveLC" x="308" y="516" type="move"/>
		</contour>
	</outline>
</glyph>
<glyph name="che" format="1">
  <advance width="600"/>
  <unicode hex="0447"/>
  <outline>
    <contour>
      <point x="373" y="0" type="line"/>
      <point x="520" y="0" type="line"/>
      <point x="520" y="496" type="line"/>
      <point x="373" y="496" type="line"/>
      <point x="373" y="283" type="line"/>
      <point x="352" y="278"/>
      <point x="333" y="276"/>
      <point x="308" y="276" type="curve" smooth="yes"/>
      <point x="238" y="276"/>
      <point x="211" y="302"/>
      <point x="211" y="363" type="curve" smooth="yes"/>
      <point x="211" y="496" type="line"/>
      <point x="64" y="496" type="line"/>
      <point x="64" y="363" type="line" smooth="yes"/>
      <point x="64" y="215"/>
      <point x="152" y="161"/>
      <point x="276" y="161" type="curve" smooth="yes"/>
      <point x="322" y="161"/>
      <point x="343" y="163"/>
      <point x="373" y="169" type="curve"/>
    </contour>
    <contour>
      <point x="308" y="516" type="move" name="aboveLC"/>
    </contour>
  </outline>
</glyph>
<glyph name="soft" format="1">
  <advance width="600"/>
  <unicode hex="044C"/>
  <outline>
    <contour>
      <point x="81" y="0" type="line"/>
      <point x="333" y="0" type="line" smooth="yes"/>
      <point x="458" y="0"/>
      <point x="554" y="44"/>
      <point x="554" y="172" type="curve" smooth="yes"/>
      <point x="554" y="295"/>
      <point x="458" y="338"/>
      <point x="333" y="338" type="curve" smooth="yes"/>
      <point x="228" y="338" type="line"/>
      <point x="228" y="496" type="line"/>
      <point x="81" y="496" type="line"/>
    </contour>
    <contour>
      <point x="228" y="112" type="line"/>
      <point x="228" y="229" type="line"/>
      <point x="327" y="229" type="line" smooth="yes"/>
      <point x="385" y="229"/>
      <point x="413" y="210"/>
      <point x="413" y="172" type="curve" smooth="yes"/>
      <point x="413" y="131"/>
      <point x="385" y="112"/>
      <point x="327" y="112" type="curve" smooth="yes"/>
    </contour>
    <contour>
      <point x="155" y="516" type="move" name="aboveLC"/>
    </contour>
  </outline>
</glyph>
<glyph name="yu" format="1">
  <advance width="600"/>
  <unicode hex="044E"/>
  <outline>
    <contour>
      <point x="31" y="0" type="line"/>
      <point x="171" y="0" type="line"/>
      <point x="171" y="188" type="line"/>
      <point x="238" y="188" type="line"/>
      <point x="243" y="316" type="line"/>
      <point x="171" y="316" type="line"/>
      <point x="171" y="496" type="line"/>
      <point x="31" y="496" type="line"/>
    </contour>
    <contour>
      <point x="396" y="-12" type="curve" smooth="yes"/>
      <point x="508" y="-12"/>
      <point x="580" y="73"/>
      <point x="580" y="248" type="curve" smooth="yes"/>
      <point x="580" y="423"/>
      <point x="508" y="508"/>
      <point x="396" y="508" type="curve" smooth="yes"/>
      <point x="294" y="508"/>
      <point x="220" y="419"/>
      <point x="220" y="248" type="curve" smooth="yes"/>
      <point x="220" y="77"/>
      <point x="294" y="-12"/>
    </contour>
    <contour>
      <point x="386" y="107" type="curve" smooth="yes"/>
      <point x="355" y="107"/>
      <point x="333" y="141"/>
      <point x="333" y="248" type="curve" smooth="yes"/>
      <point x="333" y="355"/>
      <point x="355" y="390"/>
      <point x="386" y="390" type="curve" smooth="yes"/>
      <point x="418" y="390"/>
      <point x="438" y="355"/>
      <point x="438" y="248" type="curve" smooth="yes"/>
      <point x="438" y="141"/>
      <point x="418" y="107"/>
    </contour>
    <contour>
      <point x="296" y="516" type="move" name="aboveLC"/>
    </contour>
  </outline>
</glyph>
<glyph name="dje" format="1">
  <advance width="600"/>
  <unicode hex="0452"/>
  <outline>
    <contour>
      <point x="317" y="-196" type="curve" smooth="yes"/>
      <point x="460" y="-196"/>
      <point x="550" y="-105"/>
      <point x="550" y="180" type="curve" smooth="yes"/>
      <point x="550" y="371"/>
      <point x="484" y="488"/>
      <point x="361" y="488" type="curve" smooth="yes"/>
      <point x="296" y="488"/>
      <point x="248" y="452"/>
      <point x="214" y="416" type="curve"/>
      <point x="210" y="416" type="line"/>
      <point x="219" y="510" type="line"/>
      <point x="219" y="700" type="line"/>
      <point x="72" y="700" type="line"/>
      <point x="72" y="0" type="line"/>
      <point x="219" y="0" type="line"/>
      <point x="219" y="311" type="line"/>
      <point x="251" y="345"/>
      <point x="275" y="363"/>
      <point x="306" y="363" type="curve" smooth="yes"/>
      <point x="366" y="363"/>
      <point x="399" y="316"/>
      <point x="399" y="162" type="curve" smooth="yes"/>
      <point x="399" y="-31"/>
      <point x="355" y="-81"/>
      <point x="302" y="-81" type="curve" smooth="yes"/>
      <point x="289" y="-81"/>
      <point x="278" y="-78"/>
      <point x="265" y="-74" type="curve"/>
      <point x="239" y="-182" type="line"/>
      <point x="257" y="-190"/>
      <point x="281" y="-196"/>
    </contour>
    <contour>
      <point x="6" y="554" type="line"/>
      <point x="401" y="554" type="line"/>
      <point x="401" y="629" type="line"/>
      <point x="81" y="629" type="line"/>
      <point x="6" y="623" type="line"/>
    </contour>
  </outline>
</glyph>
<glyph name="ieukran" format="1">
	<unicode hex="0454"/>
	<advance width="600"/>
	<outline>
		<contour>
			<point x="347" y="-12" type="curve" smooth="yes"/>
			<point x="413" y="-12"/>
			<point x="489" y="4"/>
			<point x="545" y="53" type="curve"/>
			<point x="493" y="142" type="line"/>
			<point x="461" y="118"/>
			<point x="413" y="100"/>
			<point x="364" y="100" type="curve" smooth="yes"/>
			<point x="266" y="100"/>
			<point x="204" y="144"/>
			<point x="204" y="248" type="curve" smooth="yes"/>
			<point x="204" y="352"/>
			<point x="265" y="396"/>
			<point x="359" y="396" type="curve" smooth="yes"/>
			<point x="404" y="396"/>
			<point x="443" y="386"/>
			<point x="477" y="360" type="curve"/>
			<point x="540" y="449" type="line"/>
			<point x="496" y="486"/>
			<point x="435" y="508"/>
			<point x="359" y="508" type="curve" smooth="yes"/>
			<point x="201" y="508"/>
			<point x="67" y="421"/>
			<point x="67" y="248" type="curve" smooth="yes"/>
			<point x="67" y="75"/>
			<point x="187" y="-12"/>
		</contour>
		<contour>
			<point x="153" y="204" type="line"/>
			<point x="413" y="204" type="line"/>
			<point x="413" y="303" type="line"/>
			<point x="153" y="303" type="line"/>
		</contour>
	</outline>
</glyph>
<glyph name="nje" format="1">
  <advance width="600"/>
  <unicode hex="045A"/>
  <outline>
    <contour>
      <point x="37" y="0" type="line"/>
      <point x="166" y="0" type="line"/>
      <point x="166" y="189" type="line"/>
      <point x="246" y="189" type="line"/>
      <point x="246" y="0" type="line"/>
      <point x="375" y="0" type="line"/>
      <point x="375" y="496" type="line"/>
      <point x="246" y="496" type="line"/>
      <point x="246" y="317" type="line"/>
      <point x="166" y="317" type="line"/>
      <point x="166" y="496" type="line"/>
      <point x="37" y="496" type="line"/>
    </contour>
    <contour>
      <point x="246" y="0" type="line"/>
      <point x="391" y="0" type="line" smooth="yes"/>
      <point x="498" y="0"/>
      <point x="575" y="43"/>
      <point x="575" y="172" type="curve" smooth="yes"/>
      <point x="575" y="295"/>
      <point x="498" y="338"/>
      <point x="391" y="338" type="curve" smooth="yes"/>
      <point x="375" y="338" type="line"/>
      <point x="375" y="496" type="line"/>
      <point x="246" y="496" type="line"/>
    </contour>
    <contour>
      <point x="375" y="112" type="line"/>
      <point x="375" y="229" type="line"/>
      <point x="384" y="229" type="line" smooth="yes"/>
      <point x="429" y="229"/>
      <point x="451" y="212"/>
      <point x="451" y="172" type="curve" smooth="yes"/>
      <point x="451" y="130"/>
      <point x="429" y="112"/>
      <point x="384" y="112" type="curve" smooth="yes"/>
    </contour>
  </outline>
</glyph>
<glyph name="Gheup" format="1">
  <advance width="600"/>
  <unicode hex="0490"/>
  <outline>
    <contour>
      <point x="110" y="0" type="line"/>
      <point x="257" y="0" type="line"/>
      <point x="257" y="528" type="line"/>
      <point x="528" y="528" type="line"/>
      <point x="518" y="652" type="line"/>
      <point x="110" y="652" type="line"/>
    </contour>
    <contour>
      <point x="358" y="528" type="line"/>
      <point x="528" y="528" type="line"/>
      <point x="538" y="824" type="line"/>
      <point x="412" y="824" type="line"/>
      <point x="391" y="652" type="line"/>
      <point x="358" y="652" type="line"/>
    </contour>
  </outline>
</glyph>
<glyph name="zedescender" format="1">
  <advance width="600"/>
  <unicode hex="0499"/>
  <outline>
    <contour>
      <point x="223" y="-172" type="line"/>
      <point x="347" y="-172" type="line"/>
      <point x="364" y="10" type="line"/>
      <point x="217" y="10" type="line"/>
    </contour>
    <component base="ze"/>
  </outline>
</glyph>
<glyph name="kabashkir" format="1">
  <advance width="600"/>
  <unicode hex="04A1"/>
  <outline>
    <contour>
      <point x="173" y="0" type="line"/>
      <point x="304" y="0" type="line"/>
      <point x="304" y="198" type="line"/>
      <point x="355" y="198" type="line"/>
      <point x="459" y="0" type="line"/>
      <point x="595" y="0" type="line"/>
      <point x="420" y="313" type="line"/>
      <point x="304" y="313" type="line"/>
      <point x="304" y="496" type="line"/>
      <point x="173" y="496" type="line"/>
    </contour>
    <contour>
      <point x="29" y="381" type="line"/>
      <point x="173" y="381" type="line"/>
      <point x="304" y="496" type="line"/>
      <point x="29" y="496" type="line"/>
    </contour>
    <contour>
      <point x="450" y="233" type="line"/>
      <point x="478" y="319" type="line" smooth="yes"/>
      <point x="493" y="362"/>
      <point x="507" y="369"/>
      <point x="525" y="369" type="curve" smooth="yes"/>
      <point x="532" y="369"/>
      <point x="538" y="367"/>
      <point x="544" y="365" type="curve"/>
      <point x="567" y="501" type="line"/>
      <point x="554" y="506"/>
      <point x="541" y="508"/>
      <point x="527" y="508" type="curve" smooth="yes"/>
      <point x="463" y="508"/>
      <point x="417" y="491"/>
      <point x="387" y="404" type="curve" smooth="yes"/>
      <point x="336" y="260" type="line"/>
    </contour>
  </outline>
</glyph>
<glyph name="Endescender" format="1">
  <advance width="600"/>
  <unicode hex="04A2"/>
  <outline>
    <contour>
      <point x="64" y="0" type="line"/>
      <point x="211" y="0" type="line"/>
      <point x="211" y="272" type="line"/>
      <point x="384" y="272" type="line"/>
      <point x="384" y="0" type="line"/>
      <point x="531" y="0" type="line"/>
      <point x="531" y="652" type="line"/>
      <point x="384" y="652" type="line"/>
      <point x="384" y="401" type="line"/>
      <point x="211" y="401" type="line"/>
      <point x="211" y="652" type="line"/>
      <point x="64" y="652" type="line"/>
    </contour>
    <contour>
      <point x="481" y="-188" type="line"/>
      <point x="593" y="-188" type="line"/>
      <point x="606" y="32" type="line"/>
      <point x="606" y="124" type="line"/>
      <point x="454" y="124" type="line"/>
      <point x="454" y="0" type="line"/>
      <point x="481" y="0" type="line"/>
    </contour>
  </outline>
</glyph>
<glyph name="chedescender" format="1">
  <advance width="600"/>
  <unicode hex="04B7"/>
  <outline>
    <contour>
      <point x="360" y="0" type="line"/>
      <point x="507" y="0" type="line"/>
      <point x="507" y="496" type="line"/>
      <point x="360" y="496" type="line"/>
      <point x="360" y="283" type="line"/>
      <point x="341" y="279"/>
      <point x="324" y="276"/>
      <point x="302" y="276" type="curve" smooth="yes"/>
      <point x="237" y="276"/>
      <point x="211" y="302"/>
      <point x="211" y="355" type="curve" smooth="yes"/>
      <point x="211" y="496" type="line"/>
      <point x="64" y="496" type="line"/>
      <point x="64" y="355" type="line" smooth="yes"/>
      <point x="64" y="215"/>
      <point x="149" y="161"/>
      <point x="270" y="161" type="curve" smooth="yes"/>
      <point x="312" y="161"/>
      <point x="332" y="164"/>
      <point x="360" y="169" type="curve"/>
    </contour>
    <contour>
      <point x="447" y="-172" type="line"/>
      <point x="572" y="-172" type="line"/>
      <point x="586" y="19" type="line"/>
      <point x="586" y="115" type="line"/>
      <point x="415" y="115" type="line"/>
      <point x="415" y="0" type="line"/>
      <point x="447" y="0" type="line"/>
    </contour>
  </outline>
</glyph>
<glyph name="asperacute" format="1">
	<unicode hex="1FDE"/>
	<advance width="600"/>
	<outline>
		<component base="asperacutecmb"/>
		<contour>
			<point name="_aboveLC" x="300" y="516" type="move"/>
		</contour>
	</outline>
</glyph>
<glyph name="dialytikaacute" format="1">
	<unicode hex="1FEE"/>
	<advance width="600"/>
	<outline>
		<component base="dieresistonoscmb"/>
		<contour>
			<point name="_aboveLC" x="300" y="516" type="move"/>
		</contour>
	</outline>
</glyph>
<glyph name="emdash" format="1">
  <advance width="600"/>
  <unicode hex="2014"/>
  <outline>
    <contour>
      <point x="0" y="199" type="line"/>
      <point x="600" y="199" type="line"/>
      <point x="600" y="310" type="line"/>
      <point x="0" y="310" type="line"/>
    </contour>
  </outline>
</glyph>
<glyph name="quoteleft" format="1">
  <advance width="600"/>
  <unicode hex="2018"/>
  <outline>
    <contour>
      <point x="301" y="290" type="curve" smooth="yes"/>
      <point x="357" y="290"/>
      <point x="397" y="330"/>
      <point x="397" y="391" type="curve" smooth="yes"/>
      <point x="397" y="446"/>
      <point x="359" y="482"/>
      <point x="306" y="482" type="curve" smooth="yes"/>
      <point x="281" y="482"/>
      <point x="251" y="469"/>
      <point x="232" y="453" type="curve"/>
      <point x="291" y="372" type="line"/>
      <point x="285" y="467" type="line" smooth="yes"/>
      <point x="285" y="537"/>
      <point x="323" y="585"/>
      <point x="397" y="619" type="curve"/>
      <point x="359" y="697" type="line"/>
      <point x="242" y="644"/>
      <point x="184" y="559"/>
      <point x="184" y="450" type="curve" smooth="yes"/>
      <point x="184" y="349"/>
      <point x="227" y="290"/>
    </contour>
  </outline>
</glyph>
<glyph name="quotereversed" format="1">
  <advance width="600"/>
  <unicode hex="201B"/>
  <outline>
    <contour>
      <point x="359" y="290" type="curve"/>
      <point x="398" y="368" type="line"/>
      <point x="324" y="401"/>
      <point x="286" y="450"/>
      <point x="286" y="520" type="curve" smooth="yes"/>
      <point x="292" y="615" type="line"/>
      <point x="233" y="534" type="line"/>
      <point x="251" y="518"/>
      <point x="282" y="504"/>
      <point x="306" y="504" type="curve" smooth="yes"/>
      <point x="360" y="504"/>
      <point x="398" y="541"/>
      <point x="398" y="596" type="curve" smooth="yes"/>
      <point x="398" y="657"/>
      <point x="357" y="697"/>
      <point x="302" y="697" type="curve" smooth="yes"/>
      <point x="227" y="697"/>
      <point x="185" y="637"/>
      <point x="185" y="537" type="curve" smooth="yes"/>
      <point x="185" y="428"/>
      <point x="243" y="343"/>
    </contour>
  </outline>
</glyph>
<glyph name="daggerdbl" format="1">
	<unicode hex="2021"/>
	<advance width="600"/>
	<outline>
		<contour>
			<point x="241" y="-80" type="line"/>
			<point x="359" y="-80" type="line"/>
			<point x="350" y="93" type="line"/>
			<point x="511" y="84" type="line"/>
			<point x="511" y="202" type="line"/>
			<point x="350" y="190" type="line"/>
			<point x="359" y="316" type="line"/>
			<point x="350" y="442" type="line"/>
			<point x="511" y="430" type="line"/>
			<point x="511" y="548" type="line"/>
			<point x="350" y="539" type="line"/>
			<point x="359" y="712" type="line"/>
			<point x="241" y="712" type="line"/>
			<point x="250" y="539" type="line"/>
			<point x="89" y="548" type="line"/>
			<point x="89" y="430" type="line"/>
			<point x="250" y="442" type="line"/>
			<point x="241" y="316" type="line"/>
			<point x="250" y="190" type="line"/>
			<point x="89" y="202" type="line"/>
			<point x="89" y="84" type="line"/>
			<point x="250" y="93" type="line"/>
		</contour>
	</outline>
</glyph>
<glyph name="guilsinglright" format="1">
	<unicode hex="203A"/>
	<advance width="600"/>
	<outline>
		<contour>
			<point x="254" y="25" type="line"/>
			<point x="425" y="179" type="line"/>
			<point x="425" y="325" type="line"/>
			<point x="254" y="479" type="line"/>
			<point x="192" y="424" type="line"/>
			<point x="319" y="252" type="line"/>
			<point x="192" y="80" type="line"/>
		</contour>
	</outline>
</glyph>
<glyph name="interrobang" format="1">
  <advance width="600"/>
  <unicode hex="203D"/>
  <outline>
    <contour>
      <point x="273" y="255" type="curve"/>
      <point x="334" y="255" type="line"/>
      <point x="328" y="327"/>
      <point x="508" y="352"/>
      <point x="508" y="516" type="curve" smooth="yes"/>
      <point x="508" y="619"/>
      <point x="412" y="682"/>
      <point x="282" y="682" type="curve" smooth="yes"/>
      <point x="202" y="682"/>
      <point x="117" y="648"/>
      <point x="64" y="587" type="curve"/>
      <point x="145" y="512" type="line"/>
      <point x="184" y="553"/>
      <point x="221" y="572"/>
      <point x="272" y="572" type="curve" smooth="yes"/>
      <point x="331" y="572"/>
      <point x="376" y="542"/>
      <point x="376" y="489" type="curve" smooth="yes"/>
      <point x="376" y="382"/>
      <point x="256" y="379"/>
    </contour>
    <contour>
      <point x="231" y="255" type="line"/>
      <point x="317" y="255" type="line"/>
      <point x="318" y="417" type="line"/>
      <point x="320" y="509" type="line"/>
      <point x="202" y="509" type="line"/>
      <point x="212" y="417" type="line"/>
    </contour>
    <contour>
      <point x="278" y="-12" type="curve" smooth="yes"/>
      <point x="330" y="-12"/>
      <point x="369" y="29"/>
      <point x="369" y="84" type="curve" smooth="yes"/>
      <point x="369" y="138"/>
      <point x="330" y="180"/>
      <point x="278" y="180" type="curve" smooth="yes"/>
      <point x="225" y="180"/>
      <point x="186" y="138"/>
      <point x="186" y="84" type="curve" smooth="yes"/>
      <point x="186" y="29"/>
      <point x="225" y="-12"/>
    </contour>
  </outline>
</glyph>
<glyph name="undertie" format="1">
  <advance width="600"/>
  <unicode hex="203F"/>
  <outline>
    <contour>
      <point x="300" y="-231" type="curve" smooth="yes"/>
      <point x="460" y="-231"/>
      <point x="620" y="-191"/>
      <point x="757" y="-107" type="curve"/>
      <point x="719" y="-40" type="line"/>
      <point x="589" y="-113"/>
      <point x="425" y="-137"/>
      <point x="300" y="-137" type="curve" smooth="yes"/>
      <point x="175" y="-137"/>
      <point x="11" y="-113"/>
      <point x="-119" y="-40" type="curve"/>
      <point x="-157" y="-107" type="line"/>
      <point x="-20" y="-191"/>
      <point x="140" y="-231"/>
    </contour>
  </outline>
</glyph>
<glyph name="questionexclam" format="1">
  <advance width="600"/>
  <unicode hex="2048"/>
  <outline>
    <contour>
      <point x="78" y="255" type="curve"/>
      <point x="198" y="255" type="line"/>
      <point x="184" y="365"/>
      <point x="300" y="405"/>
      <point x="300" y="547" type="curve" smooth="yes"/>
      <point x="300" y="629"/>
      <point x="235" y="682"/>
      <point x="151" y="682" type="curve" smooth="yes"/>
      <point x="99" y="682"/>
      <point x="48" y="663"/>
      <point x="8" y="623" type="curve"/>
      <point x="73" y="539" type="line"/>
      <point x="91" y="557"/>
      <point x="102" y="563"/>
      <point x="121" y="563" type="curve" smooth="yes"/>
      <point x="144" y="563"/>
      <point x="160" y="546"/>
      <point x="160" y="517" type="curve" smooth="yes"/>
      <point x="160" y="436"/>
      <point x="55" y="380"/>
    </contour>
    <contour>
      <point x="146" y="-12" type="curve" smooth="yes"/>
      <point x="203" y="-12"/>
      <point x="246" y="30"/>
      <point x="246" y="90" type="curve" smooth="yes"/>
      <point x="246" y="149"/>
      <point x="203" y="190"/>
      <point x="146" y="190" type="curve" smooth="yes"/>
      <point x="89" y="190"/>
      <point x="46" y="149"/>
      <point x="46" y="90" type="curve" smooth="yes"/>
      <point x="46" y="30"/>
      <point x="89" y="-12"/>
    </contour>
    <component base="exclam" xOffset="140"/>
  </outline>
</glyph>
